{"glyphs":{"0":{"ha":693,"x_min":44,"x_max":649,"o":"m 347 -16 b 99.0 -3.1 -7.8 195.8 81 552.5 b 205.0 774.8 438.2 795.9 612 552.5 b 706.9 264.1 631.9 32.8 347 -16 m 347 112 b 532.9 176.2 550.4 476.1 347 598 b 159.6 531.6 142.1 231.3 347 112"},"1":{"ha":449,"x_min":38,"x_max":344,"o":"m 344 0 l 192 0 l 192 467 l 38 467 l 38 578 l 99 578 b 164.1 567.3 220.4 603.8 223 710 l 344 710 l 344 0"},"2":{"ha":653,"x_min":58,"x_max":596,"o":"m 596 0 l 58 0 b 62.8 217.4 205.1 356.8 387.5 423.5 b 463.8 470.2 472.0 549.9 340 598 b 286.5 605.9 229.3 563.2 215 475 l 59 484 b 155.1 788.1 467.6 815.8 596 512 b 602.9 394.2 509.0 318.8 283 195.5 q 242 157 239 128 l 596 128 l 596 0"},"3":{"ha":650,"x_min":44,"x_max":606,"o":"m 324 -16 b 194.0 -29.5 61.9 51.7 44 208 l 199 214 b 242.3 82.3 378.8 71.5 449 210 b 456.9 260.4 409.9 308.5 319 312 l 256 312 l 256 425 l 319 425 b 453.3 443.5 469.2 551.9 322 598 b 269.6 602.5 219.1 572.8 208 519 l 55 527 b 145.7 779.5 452.0 805.4 582 527 b 590.1 475.1 548.2 408.5 459 376 b 644.8 302.4 661.8 135.4 473 9.5 q 410 -16 324 -16"},"4":{"ha":656,"x_min":24,"x_max":612,"o":"m 529 0 l 377 0 l 377 135 l 24 135 l 24 256 l 348 710 l 529 710 l 529 263 l 612 263 l 612 135 l 529 135 l 529 0 m 377 523 l 185 263 l 377 263 l 377 523"},"5":{"ha":671,"x_min":56,"x_max":615,"o":"m 334 -16 b 205.5 -28.7 76.8 48.5 56 196 l 210 203 b 255.6 80.1 393.3 68.2 459 236 b 419.5 386.4 288.6 398.8 216 295 l 64 295 l 113 710 l 566 710 l 566 582 l 242 582 l 222 418 b 291.9 499.1 438.6 509.7 586 357.5 b 667.0 179.8 595.5 20.6 334 -16"},"6":{"ha":627,"x_min":44,"x_max":593,"o":"m 321 -16 b -12.2 73.9 -35.1 422.9 174.5 672 b 287.9 769.3 491.0 753.5 589 540 l 449 530 b 417.6 641.8 288.0 660.6 192 398 b 259.5 490.3 414.4 502.7 563 356 b 643.9 175.4 572.6 16.5 321 -16 m 320 105 b 472.6 143.9 488.0 289.8 324 358 b 164.1 319.2 147.4 174.5 320 105"},"7":{"ha":544,"x_min":20,"x_max":544,"o":"m 318 0 l 164 0 b 150.7 147.2 234.2 390.8 390 582 l 20 582 l 20 710 l 544 710 l 544 591 b 433.9 493.7 337.8 312.8 318 0"},"8":{"ha":664,"x_min":34,"x_max":630,"o":"m 332 -16 b -21.9 43.8 -51.1 266.1 179 381 b 13.7 441.8 -10.0 612.6 332 726 b 644.6 657.2 666.3 469.9 484 381 b 694.7 302.5 721.8 91.6 332 -16 m 332 431 b 471.0 452.1 485.0 554.1 332 599 b 192.1 573.0 179.4 471.3 332 431 m 332 112 b 511.0 140.6 529.8 265.6 332 324 b 151.3 290.1 134.9 164.2 332 112"},"9":{"ha":631,"x_min":34,"x_max":587,"o":"m 293 -16 b 197.4 -27.6 88.8 32.2 47 160 l 192 169 b 250.0 63.6 388.0 74.5 437 299 l 437 305 b 201.6 170.3 61.4 238.7 34 469 b 33.9 687.4 164.8 788.7 516 636 b 651.9 474.8 634.7 112.7 293 -16 m 304 340 b 458.4 378.3 474.5 533.1 306 605 b 153.7 564.5 138.8 409.2 304 340"},"A":{"ha":730,"x_min":19,"x_max":711,"o":"m 176 0 l 19 0 l 275 710 l 455 710 l 711 0 l 553 0 l 501 151 l 228 151 l 176 0 m 365 550 l 271 276 l 459 276 l 365 550"},"Á":{"ha":730,"x_min":19,"x_max":711,"o":"m 176 0 l 19 0 l 275 710 l 455 710 l 711 0 l 553 0 l 501 151 l 228 151 l 176 0 m 365 550 l 271 276 l 459 276 l 365 550 m 411 765 l 297 765 l 356 913 l 501 913 l 411 765"},"Ă":{"ha":730,"x_min":19,"x_max":711,"o":"m 176 0 l 19 0 l 275 710 l 455 710 l 711 0 l 553 0 l 501 151 l 228 151 l 176 0 m 365 550 l 271 276 l 459 276 l 365 550 m 366 766 b 296.9 756.7 220.9 808.0 209 913 l 296 913 b 320.7 828.2 396.6 821.1 435 913 l 522 913 b 528.1 843.6 470.9 772.5 366 766"},"Ắ":{"ha":730,"x_min":19,"x_max":711,"o":"m 176 0 l 19 0 l 275 710 l 455 710 l 711 0 l 553 0 l 501 151 l 228 151 l 176 0 m 365 550 l 271 276 l 459 276 l 365 550 m 418 921 l 315 921 l 369 1048 l 497 1048 l 418 921 m 366 758 b 296.9 748.7 220.9 800.0 209 905 l 296 905 b 320.7 820.6 396.6 813.3 435 905 l 522 905 b 528.1 835.6 470.9 764.5 366 758"},"Ặ":{"ha":730,"x_min":19,"x_max":711,"o":"m 176 0 l 19 0 l 275 710 l 455 710 l 711 0 l 553 0 l 501 151 l 228 151 l 176 0 m 365 550 l 271 276 l 459 276 l 365 550 m 430 -156 l 301 -156 l 301 -47 l 430 -47 l 430 -156 m 366 766 b 296.9 756.7 220.9 808.0 209 913 l 296 913 b 320.7 828.2 396.6 821.1 435 913 l 522 913 b 528.1 843.6 470.9 772.5 366 766"},"Ằ":{"ha":730,"x_min":19,"x_max":711,"o":"m 176 0 l 19 0 l 275 710 l 455 710 l 711 0 l 553 0 l 501 151 l 228 151 l 176 0 m 365 550 l 271 276 l 459 276 l 365 550 m 418 921 l 315 921 l 236 1048 l 364 1048 l 418 921 m 366 758 b 296.9 748.7 220.9 800.0 209 905 l 296 905 b 320.7 820.6 396.6 813.3 435 905 l 522 905 b 528.1 835.6 470.9 764.5 366 758"},"Ẳ":{"ha":730,"x_min":19,"x_max":711,"o":"m 176 0 l 19 0 l 275 710 l 455 710 l 711 0 l 553 0 l 501 151 l 228 151 l 176 0 m 365 550 l 271 276 l 459 276 l 365 550 m 405 909 l 324 909 b 370.3 956.4 375.3 992.2 329 998 q 306 998 288 992 l 288 1059 b 311.9 1078.2 397.5 1083.9 445 992 b 446.4 964.0 427.6 928.5 405 909 m 366 766 b 296.9 756.7 220.9 808.0 209 913 l 296 913 b 320.7 828.6 396.6 821.3 435 913 l 522 913 b 528.1 843.6 470.9 772.5 366 766"},"Ẵ":{"ha":730,"x_min":19,"x_max":711,"o":"m 176 0 l 19 0 l 275 710 l 455 710 l 711 0 l 553 0 l 501 151 l 228 151 l 176 0 m 365 550 l 271 276 l 459 276 l 365 550 m 420 945 b 371.8 953.0 325.7 991.5 289.5 977.5 q 280 968 278 940 l 205 940 b 240.1 1087.3 332.0 1098.1 385 1043 b 415.2 1013.8 442.5 1015.3 454 1076 l 526 1076 b 531.7 1015.4 494.8 951.4 420 945 m 366 758 b 296.9 748.7 220.9 800.0 209 905 l 296 905 b 321.0 820.6 396.2 813.3 436 905 l 522 905 b 528.3 835.6 471.9 764.5 366 758"},"Ǎ":{"ha":730,"x_min":19,"x_max":711,"o":"m 176 0 l 19 0 l 275 710 l 455 710 l 711 0 l 553 0 l 501 151 l 228 151 l 176 0 m 365 550 l 271 276 l 459 276 l 365 550 m 293 765 l 197 918 l 302 918 l 365 829 l 428 918 l 533 918 l 437 765 l 293 765"},"Â":{"ha":730,"x_min":19,"x_max":711,"o":"m 176 0 l 19 0 l 275 710 l 455 710 l 711 0 l 553 0 l 501 151 l 228 151 l 176 0 m 365 550 l 271 276 l 459 276 l 365 550 m 302 765 l 197 765 l 293 918 l 437 918 l 533 765 l 428 765 l 365 854 l 302 765"},"Ấ":{"ha":730,"x_min":19,"x_max":711,"o":"m 176 0 l 19 0 l 275 710 l 455 710 l 711 0 l 553 0 l 501 151 l 228 151 l 176 0 m 365 550 l 271 276 l 459 276 l 365 550 m 579 862 l 476 862 l 529 1009 l 660 1009 l 579 862 m 305 755 l 200 755 l 296 898 l 435 898 l 531 755 l 427 755 l 366 833 l 305 755"},"Ậ":{"ha":730,"x_min":19,"x_max":711,"o":"m 176 0 l 19 0 l 275 710 l 455 710 l 711 0 l 553 0 l 501 151 l 228 151 l 176 0 m 365 550 l 271 276 l 459 276 l 365 550 m 430 -156 l 301 -156 l 301 -47 l 430 -47 l 430 -156 m 302 765 l 197 765 l 293 918 l 437 918 l 533 765 l 428 765 l 365 854 l 302 765"},"Ầ":{"ha":730,"x_min":19,"x_max":711,"o":"m 176 0 l 19 0 l 275 710 l 455 710 l 711 0 l 553 0 l 501 151 l 228 151 l 176 0 m 365 550 l 271 276 l 459 276 l 365 550 m 630 862 l 527 862 l 446 1009 l 577 1009 l 630 862 m 305 755 l 200 755 l 296 898 l 435 898 l 531 755 l 427 755 l 366 833 l 305 755"},"Ẩ":{"ha":730,"x_min":19,"x_max":711,"o":"m 176 0 l 19 0 l 275 710 l 455 710 l 711 0 l 553 0 l 501 151 l 228 151 l 176 0 m 365 550 l 271 276 l 459 276 l 365 550 m 558 859 l 476 859 b 532.1 966.2 475.9 972.3 435 947 l 435 1018 b 462.1 1036.5 550.9 1042.2 598 949 b 599.4 919.1 580.6 880.4 558 859 m 305 755 l 200 755 l 296 898 l 435 898 l 531 755 l 427 755 l 366 833 l 305 755"},"Ẫ":{"ha":730,"x_min":19,"x_max":711,"o":"m 176 0 l 19 0 l 275 710 l 455 710 l 711 0 l 553 0 l 501 151 l 228 151 l 176 0 m 365 550 l 271 276 l 459 276 l 365 550 m 421 931 b 372.8 939.0 326.3 977.5 290.5 963.5 q 281 954 279 926 l 206 926 b 236.4 1076.5 352.5 1081.9 421 1012 b 434.6 1007.7 449.8 1020.2 454 1062 l 526 1062 b 532.7 1001.4 496.0 937.4 421 931 m 303 755 l 198 755 l 296 895 l 436 895 l 534 755 l 429 755 l 366 833 l 303 755"},"Ä":{"ha":730,"x_min":19,"x_max":711,"o":"m 176 0 l 19 0 l 275 710 l 455 710 l 711 0 l 553 0 l 501 151 l 228 151 l 176 0 m 365 550 l 271 276 l 459 276 l 365 550 m 329 776 l 186 776 l 186 896 l 329 896 l 329 776 m 544 776 l 401 776 l 401 896 l 544 896 l 544 776"},"Ạ":{"ha":730,"x_min":19,"x_max":711,"o":"m 176 0 l 19 0 l 275 710 l 455 710 l 711 0 l 553 0 l 501 151 l 228 151 l 176 0 m 365 550 l 271 276 l 459 276 l 365 550 m 430 -156 l 301 -156 l 301 -47 l 430 -47 l 430 -156"},"À":{"ha":730,"x_min":19,"x_max":711,"o":"m 176 0 l 19 0 l 275 710 l 455 710 l 711 0 l 553 0 l 501 151 l 228 151 l 176 0 m 365 550 l 271 276 l 459 276 l 365 550 m 432 765 l 318 765 l 228 912 l 373 912 l 432 765"},"Ả":{"ha":730,"x_min":19,"x_max":711,"o":"m 176 0 l 19 0 l 275 710 l 455 710 l 711 0 l 553 0 l 501 151 l 228 151 l 176 0 m 365 550 l 271 276 l 459 276 l 365 550 m 409 762 l 319 762 b 370.4 815.7 376.1 854.9 324 861 q 299 861 279 855 l 279 929 b 305.2 949.9 401.1 955.9 453 854 b 454.7 823.3 434.6 784.4 409 762"},"Ā":{"ha":730,"x_min":19,"x_max":711,"o":"m 176 0 l 19 0 l 275 710 l 455 710 l 711 0 l 553 0 l 501 151 l 228 151 l 176 0 m 365 550 l 271 276 l 459 276 l 365 550 m 515 781 l 216 781 l 216 891 l 515 891 l 515 781"},"Ą":{"ha":730,"x_min":19,"x_max":748,"o":"m 176 0 l 19 0 l 275 710 l 455 710 l 711 0 l 553 0 l 501 151 l 228 151 l 176 0 m 365 550 l 271 276 l 459 276 l 365 550 m 641 -217 b 507.0 -197.6 497.7 -107.6 578 -20 l 611 24 l 711 0 l 681 -40 b 641.1 -89.3 637.9 -122.0 675 -128 q 702 -128 720 -115 l 748 -191 b 738.1 -202.0 692.8 -215.3 641 -217"},"Å":{"ha":736,"x_min":13,"x_max":705,"o":"m 170 0 l 13 0 l 269 710 l 449 710 l 705 0 l 547 0 l 495 151 l 222 151 l 170 0 m 359 550 l 265 276 l 453 276 l 359 550 m 363 755 b 233.4 788.7 219.6 901.2 363 958 b 491.1 924.2 504.9 811.4 363 755 m 363 819 b 409.6 831.0 414.6 873.3 363 894 b 314.9 881.9 309.9 839.3 363 819"},"Ã":{"ha":730,"x_min":19,"x_max":711,"o":"m 176 0 l 19 0 l 275 710 l 455 710 l 711 0 l 553 0 l 501 151 l 228 151 l 176 0 m 365 550 l 271 276 l 459 276 l 365 550 m 422 774 b 367.2 781.8 328.5 815.3 307 822 b 292.3 826.4 274.0 812.5 269 769 l 194 769 b 225.2 934.3 349.1 940.4 424 863 b 439.6 858.4 457.5 873.0 462 918 l 536 918 b 542.2 852.4 502.7 781.5 422 774"},"Æ":{"ha":1042,"x_min":19,"x_max":997,"o":"m 179 0 l 19 0 l 399 710 l 989 710 l 989 582 l 676 582 l 676 419 l 977 419 l 977 293 l 676 293 l 676 128 l 997 128 l 997 0 l 524 0 l 524 152 l 257 152 l 179 0 m 524 275 l 524 584 l 481 584 l 321 275 l 524 275"},"B":{"ha":703,"x_min":74,"x_max":652,"o":"m 384 0 l 74 0 l 74 710 l 350 710 b 678.7 655.8 703.3 444.6 475 367 b 716.8 311.9 743.9 99.6 384 0 m 226 586 l 226 416 l 346 416 b 502.2 438.8 518.3 545.7 346 586 l 226 586 m 226 306 l 226 124 l 377 124 b 531.3 146.3 547.4 259.6 377 306 l 226 306"},"C":{"ha":734,"x_min":42,"x_max":697,"o":"m 375 -16 b 110.9 -4.9 -14.1 194.2 83.5 550.5 b 219.4 789.2 513.1 816.7 694 462 l 536 456 b 480.0 653.8 294.7 677.0 199 354 b 255.4 60.2 451.3 35.0 538 265 l 697 259 b 694.1 130.0 581.5 -3.4 375 -16"},"Ć":{"ha":734,"x_min":42,"x_max":697,"o":"m 375 -16 b 110.9 -4.9 -14.1 194.2 83.5 550.5 b 219.4 789.2 513.1 816.7 694 462 l 536 456 b 480.0 653.8 294.7 677.0 199 354 b 255.4 60.2 451.3 35.0 538 265 l 697 259 b 694.1 130.0 581.5 -3.4 375 -16 m 423 765 l 309 765 l 368 913 l 513 913 l 423 765"},"Č":{"ha":734,"x_min":42,"x_max":697,"o":"m 375 -16 b 110.9 -4.9 -14.1 194.2 83.5 550.5 b 219.4 789.2 513.1 816.7 694 462 l 536 456 b 480.0 653.8 294.7 677.0 199 354 b 255.4 60.2 451.3 35.0 538 265 l 697 259 b 694.1 130.0 581.5 -3.4 375 -16 m 305 765 l 209 918 l 314 918 l 377 829 l 440 918 l 545 918 l 449 765 l 305 765"},"Ç":{"ha":734,"x_min":42,"x_max":697,"o":"m 375 -16 b 110.9 -4.9 -14.1 194.2 83.5 550.5 b 219.4 789.2 513.1 816.7 694 462 l 536 456 b 480.0 653.8 294.7 677.0 199 354 b 255.4 60.2 451.3 35.0 538 265 l 697 259 b 694.1 130.0 581.5 -3.4 375 -16 m 373 -232 b 325.3 -236.8 268.1 -205.8 245 -149 l 311 -121 b 338.0 -169.7 394.5 -173.8 418 -123 b 423.8 -105.1 408.3 -86.0 353 -84 l 312 -45 l 345 10 l 431 10 l 404 -31 b 533.6 -66.6 544.1 -179.0 373 -232"},"Ĉ":{"ha":734,"x_min":42,"x_max":697,"o":"m 375 -16 b 110.9 -4.9 -14.1 194.2 83.5 550.5 b 219.4 789.2 513.1 816.7 694 462 l 536 456 b 480.0 653.8 294.7 677.0 199 354 b 255.4 60.2 451.3 35.0 538 265 l 697 259 b 694.1 130.0 581.5 -3.4 375 -16 m 314 765 l 209 765 l 305 918 l 449 918 l 545 765 l 440 765 l 377 854 l 314 765"},"Ċ":{"ha":734,"x_min":42,"x_max":697,"o":"m 375 -16 b 110.9 -4.9 -14.1 194.2 83.5 550.5 b 219.4 789.2 513.1 816.7 694 462 l 536 456 b 480.0 653.8 294.7 677.0 199 354 b 255.4 60.2 451.3 35.0 538 265 l 697 259 b 694.1 130.0 581.5 -3.4 375 -16 m 455 776 l 300 776 l 300 896 l 455 896 l 455 776"},"D":{"ha":716,"x_min":74,"x_max":678,"o":"m 325 0 l 74 0 l 74 710 l 319 710 b 777.6 609.3 821.1 179.8 325 0 m 226 582 l 226 128 l 319 128 b 580.2 185.2 603.4 472.1 319 582 l 226 582"},"Ď":{"ha":716,"x_min":74,"x_max":678,"o":"m 325 0 l 74 0 l 74 710 l 319 710 b 777.6 609.3 821.1 179.8 325 0 m 226 582 l 226 128 l 319 128 b 580.2 185.2 603.4 472.1 319 582 l 226 582 m 253 765 l 157 918 l 262 918 l 325 829 l 388 918 l 493 918 l 397 765 l 253 765"},"Đ":{"ha":716,"x_min":9,"x_max":678,"o":"m 325 0 l 74 0 l 74 710 l 319 710 b 777.6 609.3 821.1 179.8 325 0 m 226 582 l 226 128 l 319 128 b 580.2 185.2 603.4 472.1 319 582 l 226 582 m 411 298 l 9 298 l 9 413 l 411 413 l 411 298"},"Ð":{"ha":716,"x_min":9,"x_max":678,"o":"m 325 0 l 74 0 l 74 710 l 319 710 b 777.6 609.3 821.1 179.8 325 0 m 226 582 l 226 128 l 319 128 b 580.2 185.2 603.4 472.1 319 582 l 226 582 m 411 298 l 9 298 l 9 413 l 411 413 l 411 298"},"E":{"ha":622,"x_min":74,"x_max":576,"o":"m 576 0 l 74 0 l 74 710 l 568 710 l 568 582 l 226 582 l 226 419 l 556 419 l 556 293 l 226 293 l 226 128 l 576 128 l 576 0"},"É":{"ha":622,"x_min":74,"x_max":576,"o":"m 576 0 l 74 0 l 74 710 l 568 710 l 568 582 l 226 582 l 226 419 l 556 419 l 556 293 l 226 293 l 226 128 l 576 128 l 576 0 m 368 765 l 254 765 l 313 913 l 458 913 l 368 765"},"Ě":{"ha":622,"x_min":74,"x_max":576,"o":"m 576 0 l 74 0 l 74 710 l 568 710 l 568 582 l 226 582 l 226 419 l 556 419 l 556 293 l 226 293 l 226 128 l 576 128 l 576 0 m 250 765 l 154 918 l 259 918 l 322 829 l 385 918 l 490 918 l 394 765 l 250 765"},"Ê":{"ha":622,"x_min":74,"x_max":576,"o":"m 576 0 l 74 0 l 74 710 l 568 710 l 568 582 l 226 582 l 226 419 l 556 419 l 556 293 l 226 293 l 226 128 l 576 128 l 576 0 m 259 765 l 154 765 l 250 918 l 394 918 l 490 765 l 385 765 l 322 854 l 259 765"},"Ế":{"ha":622,"x_min":74,"x_max":616,"o":"m 576 0 l 74 0 l 74 710 l 568 710 l 568 582 l 226 582 l 226 419 l 556 419 l 556 293 l 226 293 l 226 128 l 576 128 l 576 0 m 535 862 l 432 862 l 485 1009 l 616 1009 l 535 862 m 261 755 l 156 755 l 252 898 l 391 898 l 487 755 l 383 755 l 322 833 l 261 755"},"Ệ":{"ha":622,"x_min":74,"x_max":576,"o":"m 576 0 l 74 0 l 74 710 l 568 710 l 568 582 l 226 582 l 226 419 l 556 419 l 556 293 l 226 293 l 226 128 l 576 128 l 576 0 m 387 -156 l 258 -156 l 258 -47 l 387 -47 l 387 -156 m 259 765 l 154 765 l 250 918 l 394 918 l 490 765 l 385 765 l 322 854 l 259 765"},"Ề":{"ha":622,"x_min":74,"x_max":586,"o":"m 576 0 l 74 0 l 74 710 l 568 710 l 568 582 l 226 582 l 226 419 l 556 419 l 556 293 l 226 293 l 226 128 l 576 128 l 576 0 m 586 862 l 483 862 l 402 1009 l 533 1009 l 586 862 m 261 755 l 156 755 l 252 898 l 391 898 l 487 755 l 383 755 l 322 833 l 261 755"},"Ể":{"ha":622,"x_min":74,"x_max":576,"o":"m 576 0 l 74 0 l 74 710 l 568 710 l 568 582 l 226 582 l 226 419 l 556 419 l 556 293 l 226 293 l 226 128 l 576 128 l 576 0 m 514 859 l 432 859 b 488.1 966.2 431.9 972.3 391 947 l 391 1018 b 418.1 1036.5 506.9 1042.2 554 949 b 555.4 919.1 536.6 880.4 514 859 m 261 755 l 156 755 l 252 898 l 391 898 l 487 755 l 383 755 l 322 833 l 261 755"},"Ễ":{"ha":622,"x_min":74,"x_max":576,"o":"m 576 0 l 74 0 l 74 710 l 568 710 l 568 582 l 226 582 l 226 419 l 556 419 l 556 293 l 226 293 l 226 128 l 576 128 l 576 0 m 377 931 b 328.8 939.0 282.3 977.5 246.5 963.5 q 237 954 235 926 l 162 926 b 192.4 1076.5 308.5 1081.9 377 1012 b 390.6 1007.7 405.8 1020.2 410 1062 l 482 1062 b 488.7 1001.4 452.0 937.4 377 931 m 259 755 l 154 755 l 252 895 l 392 895 l 490 755 l 385 755 l 322 833 l 259 755"},"Ë":{"ha":622,"x_min":74,"x_max":576,"o":"m 576 0 l 74 0 l 74 710 l 568 710 l 568 582 l 226 582 l 226 419 l 556 419 l 556 293 l 226 293 l 226 128 l 576 128 l 576 0 m 286 776 l 143 776 l 143 896 l 286 896 l 286 776 m 501 776 l 358 776 l 358 896 l 501 896 l 501 776"},"Ė":{"ha":622,"x_min":74,"x_max":576,"o":"m 576 0 l 74 0 l 74 710 l 568 710 l 568 582 l 226 582 l 226 419 l 556 419 l 556 293 l 226 293 l 226 128 l 576 128 l 576 0 m 399 776 l 244 776 l 244 896 l 399 896 l 399 776"},"Ẹ":{"ha":622,"x_min":74,"x_max":576,"o":"m 576 0 l 74 0 l 74 710 l 568 710 l 568 582 l 226 582 l 226 419 l 556 419 l 556 293 l 226 293 l 226 128 l 576 128 l 576 0 m 387 -156 l 258 -156 l 258 -47 l 387 -47 l 387 -156"},"È":{"ha":622,"x_min":74,"x_max":576,"o":"m 576 0 l 74 0 l 74 710 l 568 710 l 568 582 l 226 582 l 226 419 l 556 419 l 556 293 l 226 293 l 226 128 l 576 128 l 576 0 m 388 765 l 274 765 l 184 912 l 329 912 l 388 765"},"Ẻ":{"ha":622,"x_min":74,"x_max":576,"o":"m 576 0 l 74 0 l 74 710 l 568 710 l 568 582 l 226 582 l 226 419 l 556 419 l 556 293 l 226 293 l 226 128 l 576 128 l 576 0 m 365 762 l 275 762 b 326.4 815.7 332.1 854.9 280 861 q 255 861 235 855 l 235 929 b 261.2 949.9 357.1 955.9 409 854 b 410.7 823.3 390.6 784.4 365 762"},"Ē":{"ha":622,"x_min":74,"x_max":576,"o":"m 576 0 l 74 0 l 74 710 l 568 710 l 568 582 l 226 582 l 226 419 l 556 419 l 556 293 l 226 293 l 226 128 l 576 128 l 576 0 m 471 781 l 172 781 l 172 891 l 471 891 l 471 781"},"Ę":{"ha":622,"x_min":74,"x_max":613,"o":"m 576 0 l 74 0 l 74 710 l 568 710 l 568 582 l 226 582 l 226 419 l 556 419 l 556 293 l 226 293 l 226 128 l 576 128 l 576 0 m 506 -217 b 372.0 -197.6 362.7 -107.6 443 -20 l 476 24 l 576 0 l 546 -40 b 506.1 -89.3 502.9 -122.0 540 -128 q 567 -128 585 -115 l 613 -191 b 603.1 -202.0 557.8 -215.3 506 -217"},"Ẽ":{"ha":622,"x_min":74,"x_max":576,"o":"m 576 0 l 74 0 l 74 710 l 568 710 l 568 582 l 226 582 l 226 419 l 556 419 l 556 293 l 226 293 l 226 128 l 576 128 l 576 0 m 378 774 b 323.2 781.8 284.5 815.3 263 822 b 248.3 826.4 230.0 812.5 225 769 l 150 769 b 181.2 934.3 305.1 940.4 380 863 b 395.6 858.4 413.5 873.0 418 918 l 492 918 b 498.2 852.4 458.7 781.5 378 774"},"Ə":{"ha":757,"x_min":42,"x_max":715,"o":"m 715 355 b 683.2 46.4 487.0 -73.2 246.5 7 b 157.1 22.6 67.3 121.3 42 348 l 42 404 l 557 404 b 480.2 638.2 318.4 656.4 222 492 l 62 501 b 198.4 778.6 472.6 804.4 671.5 556 q 715 473 715 355 m 555 283 l 556 285 l 205 285 b 269.6 60.8 446.4 42.5 555 283"},"F":{"ha":604,"x_min":74,"x_max":564,"o":"m 226 0 l 74 0 l 74 710 l 564 710 l 564 582 l 226 582 l 226 410 l 546 410 l 546 284 l 226 284 l 226 0"},"G":{"ha":738,"x_min":42,"x_max":691,"o":"m 370 -16 b 101.0 2.5 -14.1 203.7 82 545 b 216.6 786.6 514.4 813.0 689 477 l 532 470 b 483.1 631.4 321.6 647.1 218.5 479 b 164.5 299.1 202.4 149.0 383 112 b 451.8 103.8 527.6 159.2 542 258 l 380 258 l 380 369 l 691 369 l 691 0 l 597 0 l 592 101 b 574.1 48.3 486.5 -9.7 370 -16"},"Ğ":{"ha":738,"x_min":42,"x_max":691,"o":"m 370 -16 b 101.0 2.5 -14.1 203.7 82 545 b 216.6 786.6 514.4 813.0 689 477 l 532 470 b 483.1 631.4 321.6 647.1 218.5 479 b 164.5 299.1 202.4 149.0 383 112 b 451.8 103.8 527.6 159.2 542 258 l 380 258 l 380 369 l 691 369 l 691 0 l 597 0 l 592 101 b 574.1 48.3 486.5 -9.7 370 -16 m 381 766 b 311.9 756.7 235.9 808.0 224 913 l 311 913 b 335.7 828.2 411.6 821.1 450 913 l 537 913 b 543.1 843.6 485.9 772.5 381 766"},"Ǧ":{"ha":738,"x_min":42,"x_max":691,"o":"m 370 -16 b 101.0 2.5 -14.1 203.7 82 545 b 216.6 786.6 514.4 813.0 689 477 l 532 470 b 483.1 631.4 321.6 647.1 218.5 479 b 164.5 299.1 202.4 149.0 383 112 b 451.8 103.8 527.6 159.2 542 258 l 380 258 l 380 369 l 691 369 l 691 0 l 597 0 l 592 101 b 574.1 48.3 486.5 -9.7 370 -16 m 308 765 l 212 918 l 317 918 l 380 829 l 443 918 l 548 918 l 452 765 l 308 765"},"Ĝ":{"ha":738,"x_min":42,"x_max":691,"o":"m 370 -16 b 101.0 2.5 -14.1 203.7 82 545 b 216.6 786.6 514.4 813.0 689 477 l 532 470 b 483.1 631.4 321.6 647.1 218.5 479 b 164.5 299.1 202.4 149.0 383 112 b 451.8 103.8 527.6 159.2 542 258 l 380 258 l 380 369 l 691 369 l 691 0 l 597 0 l 592 101 b 574.1 48.3 486.5 -9.7 370 -16 m 317 765 l 212 765 l 308 918 l 452 918 l 548 765 l 443 765 l 380 854 l 317 765"},"Ģ":{"ha":738,"x_min":42,"x_max":691,"o":"m 370 -16 b 101.0 2.5 -14.1 203.7 82 545 b 216.6 786.6 514.4 813.0 689 477 l 532 470 b 483.1 631.4 321.6 647.1 218.5 479 b 164.5 299.1 202.4 149.0 383 112 b 451.8 103.8 527.6 159.2 542 258 l 380 258 l 380 369 l 691 369 l 691 0 l 597 0 l 592 101 b 574.1 48.3 486.5 -9.7 370 -16 m 389 -253 l 301 -253 l 353 -165 l 318 -165 l 318 -49 l 448 -49 l 448 -154 l 389 -253"},"Ġ":{"ha":738,"x_min":42,"x_max":691,"o":"m 370 -16 b 101.0 2.5 -14.1 203.7 82 545 b 216.6 786.6 514.4 813.0 689 477 l 532 470 b 483.1 631.4 321.6 647.1 218.5 479 b 164.5 299.1 202.4 149.0 383 112 b 451.8 103.8 527.6 159.2 542 258 l 380 258 l 380 369 l 691 369 l 691 0 l 597 0 l 592 101 b 574.1 48.3 486.5 -9.7 370 -16 m 458 776 l 303 776 l 303 896 l 458 896 l 458 776"},"Ḡ":{"ha":738,"x_min":42,"x_max":691,"o":"m 370 -16 b 101.0 2.5 -14.1 203.7 82 545 b 216.6 786.6 514.4 813.0 689 477 l 532 470 b 483.1 631.4 321.6 647.1 218.5 479 b 164.5 299.1 202.4 149.0 383 112 b 451.8 103.8 527.6 159.2 542 258 l 380 258 l 380 369 l 691 369 l 691 0 l 597 0 l 592 101 b 574.1 48.3 486.5 -9.7 370 -16 m 530 781 l 231 781 l 231 891 l 530 891 l 530 781"},"Ǥ":{"ha":779,"x_min":42,"x_max":742,"o":"m 381 -16 b 94.6 5.9 -16.6 208.3 82 544 b 219.1 786.5 514.2 813.7 689 477 l 532 470 b 485.3 631.0 321.3 647.1 218 479 b 165.5 299.1 203.8 149.0 378 112 q 470 112 511 169 l 380 169 l 380 241 l 538 241 q 541 261 542 285 l 380 285 l 380 369 l 691 369 l 691 327 q 691 281 685 241 l 742 241 l 742 169 l 667 169 b 647.2 78.0 539.2 -9.4 381 -16"},"H":{"ha":721,"x_min":74,"x_max":647,"o":"m 226 0 l 74 0 l 74 710 l 226 710 l 226 421 l 495 421 l 495 710 l 647 710 l 647 0 l 495 0 l 495 293 l 226 293 l 226 0"},"Ħ":{"ha":721,"x_min":3,"x_max":719,"o":"m 226 0 l 74 0 l 74 710 l 226 710 l 226 421 l 495 421 l 495 710 l 647 710 l 647 0 l 495 0 l 495 293 l 226 293 l 226 0 m 719 520 l 3 520 l 3 631 l 719 631 l 719 520"},"Ĥ":{"ha":721,"x_min":74,"x_max":647,"o":"m 226 0 l 74 0 l 74 710 l 226 710 l 226 421 l 495 421 l 495 710 l 647 710 l 647 0 l 495 0 l 495 293 l 226 293 l 226 0 m 298 765 l 193 765 l 289 918 l 433 918 l 529 765 l 424 765 l 361 854 l 298 765"},"I":{"ha":300,"x_min":74,"x_max":226,"o":"m 226 0 l 74 0 l 74 710 l 226 710 l 226 0"},"Ĳ":{"ha":913,"x_min":74,"x_max":854,"o":"m 226 0 l 74 0 l 74 710 l 226 710 l 226 0 m 595 -16 b 471.8 -30.0 361.7 49.8 335 253 l 488 260 b 520.0 69.2 647.2 52.7 702 255 l 702 710 l 854 710 l 854 255 b 868.4 131.0 794.4 14.0 595 -16"},"Í":{"ha":300,"x_min":74,"x_max":286,"o":"m 226 0 l 74 0 l 74 710 l 226 710 l 226 0 m 196 765 l 82 765 l 141 913 l 286 913 l 196 765"},"Î":{"ha":300,"x_min":-18,"x_max":318,"o":"m 226 0 l 74 0 l 74 710 l 226 710 l 226 0 m 87 765 l -18 765 l 78 918 l 222 918 l 318 765 l 213 765 l 150 854 l 87 765"},"Ï":{"ha":300,"x_min":-29,"x_max":329,"o":"m 226 0 l 74 0 l 74 710 l 226 710 l 226 0 m 114 776 l -29 776 l -29 896 l 114 896 l 114 776 m 329 776 l 186 776 l 186 896 l 329 896 l 329 776"},"İ":{"ha":300,"x_min":73,"x_max":228,"o":"m 226 0 l 74 0 l 74 710 l 226 710 l 226 0 m 228 776 l 73 776 l 73 896 l 228 896 l 228 776"},"Ị":{"ha":300,"x_min":74,"x_max":226,"o":"m 226 0 l 74 0 l 74 710 l 226 710 l 226 0 m 215 -156 l 86 -156 l 86 -47 l 215 -47 l 215 -156"},"Ì":{"ha":300,"x_min":12,"x_max":226,"o":"m 226 0 l 74 0 l 74 710 l 226 710 l 226 0 m 216 765 l 102 765 l 12 912 l 157 912 l 216 765"},"Ỉ":{"ha":300,"x_min":63,"x_max":237,"o":"m 226 0 l 74 0 l 74 710 l 226 710 l 226 0 m 193 762 l 103 762 b 154.4 815.7 160.1 854.9 108 861 q 83 861 63 855 l 63 929 b 89.2 949.9 185.1 955.9 237 854 b 238.7 823.3 218.6 784.4 193 762"},"Ī":{"ha":300,"x_min":1,"x_max":300,"o":"m 226 0 l 74 0 l 74 710 l 226 710 l 226 0 m 300 781 l 1 781 l 1 891 l 300 891 l 300 781"},"Į":{"ha":300,"x_min":43,"x_max":263,"o":"m 226 0 l 74 0 l 74 710 l 226 710 l 226 0 m 156 -217 b 22.0 -197.6 12.7 -107.6 93 -20 l 126 24 l 226 0 l 196 -40 b 156.1 -89.3 152.9 -122.0 190 -128 q 217 -128 235 -115 l 263 -191 b 253.1 -202.0 207.8 -215.3 156 -217"},"Ĩ":{"ha":300,"x_min":-22,"x_max":320,"o":"m 226 0 l 74 0 l 74 710 l 226 710 l 226 0 m 206 774 b 151.2 781.8 112.5 815.3 91 822 b 76.3 826.4 58.0 812.5 53 769 l -22 769 b 9.2 934.3 133.1 940.4 208 863 b 223.6 858.4 241.5 873.0 246 918 l 320 918 b 326.2 852.4 286.7 781.5 206 774"},"J":{"ha":627,"x_min":49,"x_max":568,"o":"m 309 -16 b 185.8 -30.0 75.7 49.8 49 253 l 202 260 b 234.0 69.2 361.2 52.7 416 255 l 416 710 l 568 710 l 568 255 b 582.4 131.0 508.4 14.0 309 -16"},"Ĵ":{"ha":627,"x_min":49,"x_max":660,"o":"m 309 -16 b 185.8 -30.0 75.7 49.8 49 253 l 202 260 b 234.0 69.2 361.2 52.7 416 255 l 416 710 l 568 710 l 568 255 b 582.4 131.0 508.4 14.0 309 -16 m 429 765 l 324 765 l 420 918 l 564 918 l 660 765 l 555 765 l 492 854 l 429 765"},"K":{"ha":689,"x_min":74,"x_max":677,"o":"m 226 0 l 74 0 l 74 710 l 226 710 l 226 400 l 484 710 l 661 710 l 400 397 l 677 0 l 504 0 l 300 295 l 226 209 l 226 0"},"Ǩ":{"ha":689,"x_min":74,"x_max":677,"o":"m 226 0 l 74 0 l 74 710 l 226 710 l 226 400 l 484 710 l 661 710 l 400 397 l 677 0 l 504 0 l 300 295 l 226 209 l 226 0 m 274 765 l 178 918 l 283 918 l 346 829 l 409 918 l 514 918 l 418 765 l 274 765"},"Ķ":{"ha":689,"x_min":74,"x_max":677,"o":"m 226 0 l 74 0 l 74 710 l 226 710 l 226 400 l 484 710 l 661 710 l 400 397 l 677 0 l 504 0 l 300 295 l 226 209 l 226 0 m 363 -253 l 275 -253 l 327 -165 l 292 -165 l 292 -49 l 422 -49 l 422 -154 l 363 -253"},"L":{"ha":589,"x_min":74,"x_max":553,"o":"m 553 0 l 74 0 l 74 710 l 226 710 l 226 128 l 553 128 l 553 0"},"Ĺ":{"ha":589,"x_min":74,"x_max":553,"o":"m 553 0 l 74 0 l 74 710 l 226 710 l 226 128 l 553 128 l 553 0 m 196 765 l 82 765 l 141 913 l 286 913 l 196 765"},"Ľ":{"ha":589,"x_min":74,"x_max":553,"o":"m 553 0 l 74 0 l 74 710 l 226 710 l 226 128 l 553 128 l 553 0 m 486 424 l 382 424 l 411 710 l 540 710 l 486 424"},"Ļ":{"ha":589,"x_min":74,"x_max":553,"o":"m 553 0 l 74 0 l 74 710 l 226 710 l 226 128 l 553 128 l 553 0 m 320 -253 l 232 -253 l 284 -165 l 249 -165 l 249 -49 l 379 -49 l 379 -154 l 320 -253"},"Ł":{"ha":589,"x_min":5,"x_max":553,"o":"m 553 0 l 74 0 l 74 710 l 226 710 l 226 128 l 553 128 l 553 0 m 362 414 l 5 242 l 5 344 l 362 517 l 362 414"},"M":{"ha":915,"x_min":74,"x_max":841,"o":"m 226 0 l 74 0 l 74 710 l 277 710 l 458 193 l 638 710 l 841 710 l 841 0 l 689 0 l 689 460 l 522 2 l 392 2 l 226 460 l 226 0"},"N":{"ha":750,"x_min":74,"x_max":676,"o":"m 226 0 l 74 0 l 74 710 l 242 710 l 524 220 l 524 710 l 676 710 l 676 0 l 506 0 l 226 473 l 226 0"},"Ń":{"ha":750,"x_min":74,"x_max":676,"o":"m 226 0 l 74 0 l 74 710 l 242 710 l 524 220 l 524 710 l 676 710 l 676 0 l 506 0 l 226 473 l 226 0 m 427 765 l 313 765 l 372 913 l 517 913 l 427 765"},"Ň":{"ha":750,"x_min":74,"x_max":676,"o":"m 226 0 l 74 0 l 74 710 l 242 710 l 524 220 l 524 710 l 676 710 l 676 0 l 506 0 l 226 473 l 226 0 m 309 765 l 213 918 l 318 918 l 381 829 l 444 918 l 549 918 l 453 765 l 309 765"},"Ņ":{"ha":750,"x_min":74,"x_max":676,"o":"m 226 0 l 74 0 l 74 710 l 242 710 l 524 220 l 524 710 l 676 710 l 676 0 l 506 0 l 226 473 l 226 0 m 379 -253 l 291 -253 l 343 -165 l 308 -165 l 308 -49 l 438 -49 l 438 -154 l 379 -253"},"Ñ":{"ha":750,"x_min":74,"x_max":676,"o":"m 226 0 l 74 0 l 74 710 l 242 710 l 524 220 l 524 710 l 676 710 l 676 0 l 506 0 l 226 473 l 226 0 m 438 774 b 383.2 781.8 344.5 815.3 323 822 b 308.3 826.4 290.0 812.5 285 769 l 210 769 b 241.2 934.3 365.1 940.4 440 863 b 455.6 858.4 473.5 873.0 478 918 l 552 918 b 558.2 852.4 518.7 781.5 438 774"},"Ŋ":{"ha":750,"x_min":74,"x_max":676,"o":"m 226 0 l 74 0 l 74 710 l 242 710 l 524 221 l 524 710 l 676 710 l 676 -6 b 686.8 -78.5 633.2 -154.5 515 -162 l 385 -162 l 385 -58 l 479 -58 b 505.7 -61.8 530.4 -46.8 532 -8 l 532 0 l 506 0 l 226 473 l 226 0"},"O":{"ha":776,"x_min":42,"x_max":734,"o":"m 388 -16 b 104.2 -2.9 -17.0 196.1 83.5 551.5 b 224.5 774.9 493.9 796.2 692.5 551.5 b 800.1 264.4 715.2 33.0 388 -16 m 388 112 b 629.3 181.1 652.8 471.4 388 598 b 146.7 526.7 123.3 236.0 388 112"},"Ó":{"ha":776,"x_min":42,"x_max":734,"o":"m 388 -16 b 104.2 -2.9 -17.0 196.1 83.5 551.5 b 224.5 774.9 493.9 796.2 692.5 551.5 b 800.1 264.4 715.2 33.0 388 -16 m 388 112 b 629.3 181.1 652.8 471.4 388 598 b 146.7 526.7 123.3 236.0 388 112 m 434 765 l 320 765 l 379 913 l 524 913 l 434 765"},"Ô":{"ha":776,"x_min":42,"x_max":734,"o":"m 388 -16 b 104.2 -2.9 -17.0 196.1 83.5 551.5 b 224.5 774.9 493.9 796.2 692.5 551.5 b 800.1 264.4 715.2 33.0 388 -16 m 388 112 b 629.3 181.1 652.8 471.4 388 598 b 146.7 526.7 123.3 236.0 388 112 m 325 765 l 220 765 l 316 918 l 460 918 l 556 765 l 451 765 l 388 854 l 325 765"},"Ố":{"ha":776,"x_min":42,"x_max":734,"o":"m 388 -16 b 104.2 -2.9 -17.0 196.1 83.5 551.5 b 224.5 774.9 493.9 796.2 692.5 551.5 b 800.1 264.4 715.2 33.0 388 -16 m 388 112 b 629.3 181.1 652.8 471.4 388 598 b 146.7 526.7 123.3 236.0 388 112 m 601 862 l 498 862 l 551 1009 l 682 1009 l 601 862 m 327 755 l 222 755 l 318 898 l 457 898 l 553 755 l 449 755 l 388 833 l 327 755"},"Ộ":{"ha":776,"x_min":42,"x_max":734,"o":"m 388 -16 b 104.2 -2.9 -17.0 196.1 83.5 551.5 b 224.5 774.9 493.9 796.2 692.5 551.5 b 800.1 264.4 715.2 33.0 388 -16 m 388 112 b 629.3 181.1 652.8 471.4 388 598 b 146.7 526.7 123.3 236.0 388 112 m 452 -156 l 323 -156 l 323 -47 l 452 -47 l 452 -156 m 325 765 l 220 765 l 316 918 l 460 918 l 556 765 l 451 765 l 388 854 l 325 765"},"Ồ":{"ha":776,"x_min":42,"x_max":734,"o":"m 388 -16 b 104.2 -2.9 -17.0 196.1 83.5 551.5 b 224.5 774.9 493.9 796.2 692.5 551.5 b 800.1 264.4 715.2 33.0 388 -16 m 388 112 b 629.3 181.1 652.8 471.4 388 598 b 146.7 526.7 123.3 236.0 388 112 m 652 862 l 549 862 l 468 1009 l 599 1009 l 652 862 m 327 755 l 222 755 l 318 898 l 457 898 l 553 755 l 449 755 l 388 833 l 327 755"},"Ổ":{"ha":776,"x_min":42,"x_max":734,"o":"m 388 -16 b 104.2 -2.9 -17.0 196.1 83.5 551.5 b 224.5 774.9 493.9 796.2 692.5 551.5 b 800.1 264.4 715.2 33.0 388 -16 m 388 112 b 629.3 181.1 652.8 471.4 388 598 b 146.7 526.7 123.3 236.0 388 112 m 580 859 l 498 859 b 554.1 966.2 497.9 972.3 457 947 l 457 1018 b 484.1 1036.5 572.9 1042.2 620 949 b 621.4 919.1 602.6 880.4 580 859 m 327 755 l 222 755 l 318 898 l 457 898 l 553 755 l 449 755 l 388 833 l 327 755"},"Ỗ":{"ha":776,"x_min":42,"x_max":734,"o":"m 388 -16 b 104.2 -2.9 -17.0 196.1 83.5 551.5 b 224.5 774.9 493.9 796.2 692.5 551.5 b 800.1 264.4 715.2 33.0 388 -16 m 388 112 b 629.3 181.1 652.8 471.4 388 598 b 146.7 526.7 123.3 236.0 388 112 m 443 931 b 394.8 939.0 348.3 977.5 312.5 963.5 q 303 954 301 926 l 228 926 b 258.4 1076.5 374.5 1081.9 443 1012 b 456.6 1007.7 471.8 1020.2 476 1062 l 548 1062 b 554.7 1001.4 518.0 937.4 443 931 m 325 755 l 220 755 l 318 895 l 458 895 l 556 755 l 451 755 l 388 833 l 325 755"},"Ö":{"ha":776,"x_min":42,"x_max":734,"o":"m 388 -16 b 104.2 -2.9 -17.0 196.1 83.5 551.5 b 224.5 774.9 493.9 796.2 692.5 551.5 b 800.1 264.4 715.2 33.0 388 -16 m 388 112 b 629.3 181.1 652.8 471.4 388 598 b 146.7 526.7 123.3 236.0 388 112 m 352 776 l 209 776 l 209 896 l 352 896 l 352 776 m 567 776 l 424 776 l 424 896 l 567 896 l 567 776"},"Ọ":{"ha":776,"x_min":42,"x_max":734,"o":"m 388 -16 b 104.2 -2.9 -17.0 196.1 83.5 551.5 b 224.5 774.9 493.9 796.2 692.5 551.5 b 800.1 264.4 715.2 33.0 388 -16 m 388 112 b 629.3 181.1 652.8 471.4 388 598 b 146.7 526.7 123.3 236.0 388 112 m 452 -156 l 323 -156 l 323 -47 l 452 -47 l 452 -156"},"Ò":{"ha":776,"x_min":42,"x_max":734,"o":"m 388 -16 b 104.2 -2.9 -17.0 196.1 83.5 551.5 b 224.5 774.9 493.9 796.2 692.5 551.5 b 800.1 264.4 715.2 33.0 388 -16 m 388 112 b 629.3 181.1 652.8 471.4 388 598 b 146.7 526.7 123.3 236.0 388 112 m 454 765 l 340 765 l 250 912 l 395 912 l 454 765"},"Ỏ":{"ha":776,"x_min":42,"x_max":734,"o":"m 388 -16 b 104.2 -2.9 -17.0 196.1 83.5 551.5 b 224.5 774.9 493.9 796.2 692.5 551.5 b 800.1 264.4 715.2 33.0 388 -16 m 388 112 b 629.3 181.1 652.8 471.4 388 598 b 146.7 526.7 123.3 236.0 388 112 m 431 762 l 341 762 b 392.4 815.7 398.1 854.9 346 861 q 321 861 301 855 l 301 929 b 327.2 949.9 423.1 955.9 475 854 b 476.7 823.3 456.6 784.4 431 762"},"Ơ":{"ha":776,"x_min":42,"x_max":734,"o":"m 388 -16 b 104.2 -2.9 -17.0 196.1 83.5 551.5 b 224.5 774.9 493.9 796.2 692.5 551.5 b 800.1 264.4 715.2 33.0 388 -16 m 388 112 b 629.3 181.1 652.8 471.4 388 598 b 146.7 526.7 123.3 236.0 388 112 m 551 643 l 489 643 l 482 710 l 534 710 b 599.9 715.3 603.9 779.5 577 861 l 693 861 b 733.2 812.2 745.5 705.0 551 643"},"Ớ":{"ha":776,"x_min":42,"x_max":734,"o":"m 388 -16 b 104.2 -2.9 -17.0 196.1 83.5 551.5 b 224.5 774.9 493.9 796.2 692.5 551.5 b 800.1 264.4 715.2 33.0 388 -16 m 388 112 b 629.3 181.1 652.8 471.4 388 598 b 146.7 526.7 123.3 236.0 388 112 m 551 643 l 489 643 l 482 710 l 534 710 b 599.9 715.3 603.9 779.5 577 861 l 693 861 b 733.2 812.2 745.5 705.0 551 643 m 434 765 l 320 765 l 379 913 l 524 913 l 434 765"},"Ợ":{"ha":776,"x_min":42,"x_max":734,"o":"m 388 -16 b 104.2 -2.9 -17.0 196.1 83.5 551.5 b 224.5 774.9 493.9 796.2 692.5 551.5 b 800.1 264.4 715.2 33.0 388 -16 m 388 112 b 629.3 181.1 652.8 471.4 388 598 b 146.7 526.7 123.3 236.0 388 112 m 551 643 l 489 643 l 482 710 l 534 710 b 599.9 715.3 603.9 779.5 577 861 l 693 861 b 733.2 812.2 745.5 705.0 551 643 m 452 -156 l 323 -156 l 323 -47 l 452 -47 l 452 -156"},"Ờ":{"ha":776,"x_min":42,"x_max":734,"o":"m 388 -16 b 104.2 -2.9 -17.0 196.1 83.5 551.5 b 224.5 774.9 493.9 796.2 692.5 551.5 b 800.1 264.4 715.2 33.0 388 -16 m 388 112 b 629.3 181.1 652.8 471.4 388 598 b 146.7 526.7 123.3 236.0 388 112 m 551 643 l 489 643 l 482 710 l 534 710 b 599.9 715.3 603.9 779.5 577 861 l 693 861 b 733.2 812.2 745.5 705.0 551 643 m 454 765 l 340 765 l 250 912 l 395 912 l 454 765"},"Ở":{"ha":776,"x_min":42,"x_max":734,"o":"m 388 -16 b 104.2 -2.9 -17.0 196.1 83.5 551.5 b 224.5 774.9 493.9 796.2 692.5 551.5 b 800.1 264.4 715.2 33.0 388 -16 m 388 112 b 629.3 181.1 652.8 471.4 388 598 b 146.7 526.7 123.3 236.0 388 112 m 551 643 l 489 643 l 482 710 l 534 710 b 599.9 715.3 603.9 779.5 577 861 l 693 861 b 733.2 812.2 745.5 705.0 551 643 m 431 762 l 341 762 b 392.4 815.7 398.1 854.9 346 861 q 321 861 301 855 l 301 929 b 327.2 949.9 423.1 955.9 475 854 b 476.7 823.3 456.6 784.4 431 762"},"Ỡ":{"ha":776,"x_min":42,"x_max":734,"o":"m 388 -16 b 104.2 -2.9 -17.0 196.1 83.5 551.5 b 224.5 774.9 493.9 796.2 692.5 551.5 b 800.1 264.4 715.2 33.0 388 -16 m 388 112 b 629.3 181.1 652.8 471.4 388 598 b 146.7 526.7 123.3 236.0 388 112 m 551 643 l 489 643 l 482 710 l 534 710 b 599.9 715.3 603.9 779.5 577 861 l 693 861 b 733.2 812.2 745.5 705.0 551 643 m 444 774 b 389.2 781.8 350.5 815.3 329 822 b 314.3 826.4 296.0 812.5 291 769 l 216 769 b 247.2 934.3 371.1 940.4 446 863 b 461.6 858.4 479.5 873.0 484 918 l 558 918 b 564.2 852.4 524.7 781.5 444 774"},"Ő":{"ha":776,"x_min":42,"x_max":734,"o":"m 388 -16 b 104.2 -2.9 -17.0 196.1 83.5 551.5 b 224.5 774.9 493.9 796.2 692.5 551.5 b 800.1 264.4 715.2 33.0 388 -16 m 388 112 b 629.3 181.1 652.8 471.4 388 598 b 146.7 526.7 123.3 236.0 388 112 m 356 765 l 242 765 l 301 913 l 446 913 l 356 765 m 533 765 l 419 765 l 478 913 l 623 913 l 533 765"},"Ō":{"ha":776,"x_min":42,"x_max":734,"o":"m 388 -16 b 104.2 -2.9 -17.0 196.1 83.5 551.5 b 224.5 774.9 493.9 796.2 692.5 551.5 b 800.1 264.4 715.2 33.0 388 -16 m 388 112 b 629.3 181.1 652.8 471.4 388 598 b 146.7 526.7 123.3 236.0 388 112 m 537 781 l 238 781 l 238 891 l 537 891 l 537 781"},"Ø":{"ha":776,"x_min":42,"x_max":734,"o":"m 388 -16 b 104.2 -2.9 -17.0 196.1 83.5 551.5 b 224.5 774.9 493.9 796.2 692.5 551.5 b 800.1 264.4 715.2 33.0 388 -16 m 388 112 b 629.3 181.1 652.8 471.4 388 598 b 146.7 526.7 123.3 236.0 388 112 m 184 -16 l 72 -16 l 592 726 l 704 726 l 184 -16"},"Õ":{"ha":776,"x_min":42,"x_max":734,"o":"m 388 -16 b 104.2 -2.9 -17.0 196.1 83.5 551.5 b 224.5 774.9 493.9 796.2 692.5 551.5 b 800.1 264.4 715.2 33.0 388 -16 m 388 112 b 629.3 181.1 652.8 471.4 388 598 b 146.7 526.7 123.3 236.0 388 112 m 444 774 b 389.2 781.8 350.5 815.3 329 822 b 314.3 826.4 296.0 812.5 291 769 l 216 769 b 247.2 934.3 371.1 940.4 446 863 b 461.6 858.4 479.5 873.0 484 918 l 558 918 b 564.2 852.4 524.7 781.5 444 774"},"Œ":{"ha":1120,"x_min":42,"x_max":1074,"o":"m 386 -16 b 107.6 -3.3 -16.6 194.5 84.5 553.5 b 241.8 760.6 466.6 775.7 600 641 l 600 710 l 1066 710 l 1066 582 l 752 582 l 752 419 l 1054 419 l 1054 293 l 752 293 l 752 128 l 1074 128 l 1074 0 l 600 0 l 600 69 b 570.7 28.4 489.0 -12.5 386 -16 m 386 112 b 550.0 125.8 608.5 258.2 556 478.5 b 483.7 630.7 322.4 645.6 219 479 b 163.9 300.4 204.4 150.5 386 112"},"P":{"ha":672,"x_min":74,"x_max":631,"o":"m 226 0 l 74 0 l 74 710 l 358 710 b 706.3 641.4 740.3 367.4 358 245 l 226 245 l 226 0 m 226 582 l 226 373 l 349 373 b 510.2 401.2 525.6 531.2 349 582 l 226 582"},"Þ":{"ha":642,"x_min":74,"x_max":601,"o":"m 226 0 l 74 0 l 74 710 l 226 710 l 226 583 l 336 583 b 674.9 520.7 707.4 261.0 336 149 l 226 149 l 226 0 m 333 454 l 226 454 l 226 277 l 333 277 b 459.0 281.8 490.5 411.0 333 454"},"Q":{"ha":769,"x_min":42,"x_max":727,"o":"m 692 -62 l 567 -62 l 512 7 b 321.4 -79.1 98.1 16.3 42 354 b 48.7 646.5 231.6 789.2 572 677 b 767.0 513.0 783.5 254.1 598 55 l 692 -62 m 385 112 q 413 112 430 119 l 331 240 l 457 240 l 509 171 b 590.1 251.6 599.3 412.4 490 564 b 333.0 645.8 214.2 572.8 199 354 b 185.4 256.3 230.1 146.7 385 112"},"R":{"ha":697,"x_min":74,"x_max":647,"o":"m 226 0 l 74 0 l 74 710 l 385 710 b 592.2 701.5 684.4 587.1 605.5 388 q 571 343 515 326 q 620 311 629 204 l 647 0 l 492 0 l 479 180 b 483.7 220.5 453.9 257.7 377 260 l 226 260 l 226 0 m 226 582 l 226 387 l 368 387 b 517.1 414.9 532.0 534.1 363 582 l 226 582"},"Ŕ":{"ha":697,"x_min":74,"x_max":647,"o":"m 226 0 l 74 0 l 74 710 l 385 710 b 592.2 701.5 684.4 587.1 605.5 388 q 571 343 515 326 q 620 311 629 204 l 647 0 l 492 0 l 479 180 b 483.7 220.5 453.9 257.7 377 260 l 226 260 l 226 0 m 226 582 l 226 387 l 368 387 b 517.1 414.9 532.0 534.1 363 582 l 226 582 m 391 765 l 277 765 l 336 913 l 481 913 l 391 765"},"Ř":{"ha":697,"x_min":74,"x_max":647,"o":"m 226 0 l 74 0 l 74 710 l 385 710 b 592.2 701.5 684.4 587.1 605.5 388 q 571 343 515 326 q 620 311 629 204 l 647 0 l 492 0 l 479 180 b 483.7 220.5 453.9 257.7 377 260 l 226 260 l 226 0 m 226 582 l 226 387 l 368 387 b 517.1 414.9 532.0 534.1 363 582 l 226 582 m 273 765 l 177 918 l 282 918 l 345 829 l 408 918 l 513 918 l 417 765 l 273 765"},"Ŗ":{"ha":697,"x_min":74,"x_max":647,"o":"m 226 0 l 74 0 l 74 710 l 385 710 b 592.2 701.5 684.4 587.1 605.5 388 q 571 343 515 326 q 620 311 629 204 l 647 0 l 492 0 l 479 180 b 483.7 220.5 453.9 257.7 377 260 l 226 260 l 226 0 m 226 582 l 226 387 l 368 387 b 517.1 414.9 532.0 534.1 363 582 l 226 582 m 366 -253 l 278 -253 l 330 -165 l 295 -165 l 295 -49 l 425 -49 l 425 -154 l 366 -253"},"S":{"ha":681,"x_min":52,"x_max":629,"o":"m 355 -16 b 219.3 -30.9 76.0 60.5 52 234 l 205 241 b 260.9 81.1 420.2 68.0 476 192 b 496.2 245.8 424.5 281.2 171.5 347 b 31.5 419.9 19.4 569.7 189 699 b 397.6 771.0 569.7 706.7 618 486 l 466 478 b 416.8 626.4 272.3 639.8 219 517 b 200.9 463.2 265.5 435.2 523 367.5 b 665.0 283.9 676.7 137.9 500.5 10 q 439 -16 355 -16"},"Ś":{"ha":681,"x_min":52,"x_max":629,"o":"m 355 -16 b 219.3 -30.9 76.0 60.5 52 234 l 205 241 b 260.9 81.1 420.2 68.0 476 192 b 496.2 245.8 424.5 281.2 171.5 347 b 31.5 419.9 19.4 569.7 189 699 b 397.6 771.0 569.7 706.7 618 486 l 466 478 b 416.8 626.4 272.3 639.8 219 517 b 200.9 463.2 265.5 435.2 523 367.5 b 665.0 283.9 676.7 137.9 500.5 10 q 439 -16 355 -16 m 379 765 l 265 765 l 324 913 l 469 913 l 379 765"},"Š":{"ha":681,"x_min":52,"x_max":629,"o":"m 355 -16 b 219.3 -30.9 76.0 60.5 52 234 l 205 241 b 260.9 81.1 420.2 68.0 476 192 b 496.2 245.8 424.5 281.2 171.5 347 b 31.5 419.9 19.4 569.7 189 699 b 397.6 771.0 569.7 706.7 618 486 l 466 478 b 416.8 626.4 272.3 639.8 219 517 b 200.9 463.2 265.5 435.2 523 367.5 b 665.0 283.9 676.7 137.9 500.5 10 q 439 -16 355 -16 m 261 765 l 165 918 l 270 918 l 333 829 l 396 918 l 501 918 l 405 765 l 261 765"},"Ş":{"ha":681,"x_min":52,"x_max":629,"o":"m 355 -16 b 219.3 -30.9 76.0 60.5 52 234 l 205 241 b 260.9 81.1 420.2 68.0 476 192 b 496.2 245.8 424.5 281.2 171.5 347 b 31.5 419.9 19.4 569.7 189 699 b 397.6 771.0 569.7 706.7 618 486 l 466 478 b 416.8 626.4 272.3 639.8 219 517 b 200.9 463.2 265.5 435.2 523 367.5 b 665.0 283.9 676.7 137.9 500.5 10 q 439 -16 355 -16 m 343 -232 b 295.3 -236.8 238.1 -205.8 215 -149 l 281 -121 b 308.0 -169.7 364.5 -173.8 388 -123 b 393.8 -105.1 378.3 -86.0 323 -84 l 282 -45 l 315 10 l 401 10 l 374 -31 b 503.6 -66.6 514.1 -179.0 343 -232"},"Ŝ":{"ha":681,"x_min":52,"x_max":629,"o":"m 355 -16 b 219.3 -30.9 76.0 60.5 52 234 l 205 241 b 260.9 81.1 420.2 68.0 476 192 b 496.2 245.8 424.5 281.2 171.5 347 b 31.5 419.9 19.4 569.7 189 699 b 397.6 771.0 569.7 706.7 618 486 l 466 478 b 416.8 626.4 272.3 639.8 219 517 b 200.9 463.2 265.5 435.2 523 367.5 b 665.0 283.9 676.7 137.9 500.5 10 q 439 -16 355 -16 m 270 765 l 165 765 l 261 918 l 405 918 l 501 765 l 396 765 l 333 854 l 270 765"},"Ș":{"ha":681,"x_min":52,"x_max":629,"o":"m 355 -16 b 219.3 -30.9 76.0 60.5 52 234 l 205 241 b 260.9 81.1 420.2 68.0 476 192 b 496.2 245.8 424.5 281.2 171.5 347 b 31.5 419.9 19.4 569.7 189 699 b 397.6 771.0 569.7 706.7 618 486 l 466 478 b 416.8 626.4 272.3 639.8 219 517 b 200.9 463.2 265.5 435.2 523 367.5 b 665.0 283.9 676.7 137.9 500.5 10 q 439 -16 355 -16 m 355 -253 l 267 -253 l 319 -165 l 284 -165 l 284 -49 l 414 -49 l 414 -154 l 355 -253"},"ẞ":{"ha":741,"x_min":74,"x_max":691,"o":"m 226 0 l 74 0 l 74 469 b 56.9 584.9 144.5 700.3 333 710 l 656 710 l 656 579 l 480 421 b 762.0 350.2 790.7 117.2 414 0 l 293 0 l 293 128 l 414 128 b 570.0 155.4 585.5 270.0 405 318 l 307 318 l 307 423 l 478 582 l 333 582 q 226 582 226 469 l 226 0"},"T":{"ha":599,"x_min":11,"x_max":589,"o":"m 376 0 l 223 0 l 223 582 l 11 582 l 11 710 l 589 710 l 589 582 l 376 582 l 376 0"},"Ŧ":{"ha":599,"x_min":11,"x_max":589,"o":"m 376 0 l 223 0 l 223 582 l 11 582 l 11 710 l 589 710 l 589 582 l 376 582 l 376 0 m 501 269 l 99 269 l 99 384 l 501 384 l 501 269"},"Ť":{"ha":599,"x_min":11,"x_max":589,"o":"m 376 0 l 223 0 l 223 582 l 11 582 l 11 710 l 589 710 l 589 582 l 376 582 l 376 0 m 227 765 l 131 918 l 236 918 l 299 829 l 362 918 l 467 918 l 371 765 l 227 765"},"Ţ":{"ha":599,"x_min":11,"x_max":589,"o":"m 376 0 l 223 0 l 223 582 l 11 582 l 11 710 l 589 710 l 589 582 l 376 582 l 376 0 m 293 -232 b 245.3 -236.8 188.1 -205.8 165 -149 l 231 -121 b 258.0 -169.7 314.5 -173.8 338 -123 b 343.8 -105.1 328.3 -86.0 273 -84 l 232 -45 l 265 10 l 351 10 l 324 -31 b 453.6 -66.6 464.1 -179.0 293 -232"},"Ț":{"ha":599,"x_min":11,"x_max":589,"o":"m 376 0 l 223 0 l 223 582 l 11 582 l 11 710 l 589 710 l 589 582 l 376 582 l 376 0 m 305 -253 l 217 -253 l 269 -165 l 234 -165 l 234 -49 l 364 -49 l 364 -154 l 305 -253"},"U":{"ha":703,"x_min":59,"x_max":644,"o":"m 352 -16 b 217.5 -31.7 91.0 44.9 59 256 l 59 710 l 211 710 l 211 256 b 250.6 71.6 420.7 54.1 492 256 l 492 710 l 644 710 l 644 256 b 661.3 131.8 579.6 13.9 352 -16"},"Ú":{"ha":703,"x_min":59,"x_max":644,"o":"m 352 -16 b 217.5 -31.7 91.0 44.9 59 256 l 59 710 l 211 710 l 211 256 b 250.6 71.6 420.7 54.1 492 256 l 492 710 l 644 710 l 644 256 b 661.3 131.8 579.6 13.9 352 -16 m 398 765 l 284 765 l 343 913 l 488 913 l 398 765"},"Ŭ":{"ha":703,"x_min":59,"x_max":644,"o":"m 352 -16 b 217.5 -31.7 91.0 44.9 59 256 l 59 710 l 211 710 l 211 256 b 250.6 71.6 420.7 54.1 492 256 l 492 710 l 644 710 l 644 256 b 661.3 131.8 579.6 13.9 352 -16 m 352 766 b 282.9 756.7 206.9 808.0 195 913 l 282 913 b 306.7 828.2 382.6 821.1 421 913 l 508 913 b 514.1 843.6 456.9 772.5 352 766"},"Û":{"ha":703,"x_min":59,"x_max":644,"o":"m 352 -16 b 217.5 -31.7 91.0 44.9 59 256 l 59 710 l 211 710 l 211 256 b 250.6 71.6 420.7 54.1 492 256 l 492 710 l 644 710 l 644 256 b 661.3 131.8 579.6 13.9 352 -16 m 289 765 l 184 765 l 280 918 l 424 918 l 520 765 l 415 765 l 352 854 l 289 765"},"Ü":{"ha":703,"x_min":59,"x_max":644,"o":"m 352 -16 b 217.5 -31.7 91.0 44.9 59 256 l 59 710 l 211 710 l 211 256 b 250.6 71.6 420.7 54.1 492 256 l 492 710 l 644 710 l 644 256 b 661.3 131.8 579.6 13.9 352 -16 m 316 776 l 173 776 l 173 896 l 316 896 l 316 776 m 531 776 l 388 776 l 388 896 l 531 896 l 531 776"},"Ụ":{"ha":703,"x_min":59,"x_max":644,"o":"m 352 -16 b 217.5 -31.7 91.0 44.9 59 256 l 59 710 l 211 710 l 211 256 b 250.6 71.6 420.7 54.1 492 256 l 492 710 l 644 710 l 644 256 b 661.3 131.8 579.6 13.9 352 -16 m 416 -156 l 287 -156 l 287 -47 l 416 -47 l 416 -156"},"Ù":{"ha":703,"x_min":59,"x_max":644,"o":"m 352 -16 b 217.5 -31.7 91.0 44.9 59 256 l 59 710 l 211 710 l 211 256 b 250.6 71.6 420.7 54.1 492 256 l 492 710 l 644 710 l 644 256 b 661.3 131.8 579.6 13.9 352 -16 m 418 765 l 304 765 l 214 912 l 359 912 l 418 765"},"Ủ":{"ha":703,"x_min":59,"x_max":644,"o":"m 352 -16 b 217.5 -31.7 91.0 44.9 59 256 l 59 710 l 211 710 l 211 256 b 250.6 71.6 420.7 54.1 492 256 l 492 710 l 644 710 l 644 256 b 661.3 131.8 579.6 13.9 352 -16 m 395 762 l 305 762 b 356.4 815.7 362.1 854.9 310 861 q 285 861 265 855 l 265 929 b 291.2 949.9 387.1 955.9 439 854 b 440.7 823.3 420.6 784.4 395 762"},"Ư":{"ha":703,"x_min":59,"x_max":726,"o":"m 352 -16 b 217.5 -31.7 91.0 44.9 59 256 l 59 710 l 211 710 l 211 256 b 250.6 71.6 420.7 54.1 492 256 l 492 710 l 644 710 l 644 256 b 661.3 131.8 579.6 13.9 352 -16 m 570 643 l 508 643 l 501 710 l 553 710 b 618.9 715.3 622.9 779.5 596 861 l 712 861 b 752.2 812.2 764.5 705.0 570 643"},"Ứ":{"ha":703,"x_min":59,"x_max":726,"o":"m 352 -16 b 217.5 -31.7 91.0 44.9 59 256 l 59 710 l 211 710 l 211 256 b 250.6 71.6 420.7 54.1 492 256 l 492 710 l 644 710 l 644 256 b 661.3 131.8 579.6 13.9 352 -16 m 570 643 l 508 643 l 501 710 l 553 710 b 618.9 715.3 622.9 779.5 596 861 l 712 861 b 752.2 812.2 764.5 705.0 570 643 m 398 765 l 284 765 l 343 913 l 488 913 l 398 765"},"Ự":{"ha":703,"x_min":59,"x_max":726,"o":"m 352 -16 b 217.5 -31.7 91.0 44.9 59 256 l 59 710 l 211 710 l 211 256 b 250.6 71.6 420.7 54.1 492 256 l 492 710 l 644 710 l 644 256 b 661.3 131.8 579.6 13.9 352 -16 m 570 643 l 508 643 l 501 710 l 553 710 b 618.9 715.3 622.9 779.5 596 861 l 712 861 b 752.2 812.2 764.5 705.0 570 643 m 416 -156 l 287 -156 l 287 -47 l 416 -47 l 416 -156"},"Ừ":{"ha":703,"x_min":59,"x_max":726,"o":"m 352 -16 b 217.5 -31.7 91.0 44.9 59 256 l 59 710 l 211 710 l 211 256 b 250.6 71.6 420.7 54.1 492 256 l 492 710 l 644 710 l 644 256 b 661.3 131.8 579.6 13.9 352 -16 m 570 643 l 508 643 l 501 710 l 553 710 b 618.9 715.3 622.9 779.5 596 861 l 712 861 b 752.2 812.2 764.5 705.0 570 643 m 418 765 l 304 765 l 214 912 l 359 912 l 418 765"},"Ử":{"ha":703,"x_min":59,"x_max":726,"o":"m 352 -16 b 217.5 -31.7 91.0 44.9 59 256 l 59 710 l 211 710 l 211 256 b 250.6 71.6 420.7 54.1 492 256 l 492 710 l 644 710 l 644 256 b 661.3 131.8 579.6 13.9 352 -16 m 570 643 l 508 643 l 501 710 l 553 710 b 618.9 715.3 622.9 779.5 596 861 l 712 861 b 752.2 812.2 764.5 705.0 570 643 m 395 762 l 305 762 b 356.4 815.7 362.1 854.9 310 861 q 285 861 265 855 l 265 929 b 291.2 949.9 387.1 955.9 439 854 b 440.7 823.3 420.6 784.4 395 762"},"Ữ":{"ha":703,"x_min":59,"x_max":726,"o":"m 352 -16 b 217.5 -31.7 91.0 44.9 59 256 l 59 710 l 211 710 l 211 256 b 250.6 71.6 420.7 54.1 492 256 l 492 710 l 644 710 l 644 256 b 661.3 131.8 579.6 13.9 352 -16 m 570 643 l 508 643 l 501 710 l 553 710 b 618.9 715.3 622.9 779.5 596 861 l 712 861 b 752.2 812.2 764.5 705.0 570 643 m 408 774 b 353.2 781.8 314.5 815.3 293 822 b 278.3 826.4 260.0 812.5 255 769 l 180 769 b 211.2 934.3 335.1 940.4 410 863 b 425.6 858.4 443.5 873.0 448 918 l 522 918 b 528.2 852.4 488.7 781.5 408 774"},"Ű":{"ha":703,"x_min":59,"x_max":644,"o":"m 352 -16 b 217.5 -31.7 91.0 44.9 59 256 l 59 710 l 211 710 l 211 256 b 250.6 71.6 420.7 54.1 492 256 l 492 710 l 644 710 l 644 256 b 661.3 131.8 579.6 13.9 352 -16 m 320 765 l 206 765 l 265 913 l 410 913 l 320 765 m 497 765 l 383 765 l 442 913 l 587 913 l 497 765"},"Ū":{"ha":703,"x_min":59,"x_max":644,"o":"m 352 -16 b 217.5 -31.7 91.0 44.9 59 256 l 59 710 l 211 710 l 211 256 b 250.6 71.6 420.7 54.1 492 256 l 492 710 l 644 710 l 644 256 b 661.3 131.8 579.6 13.9 352 -16 m 501 781 l 202 781 l 202 891 l 501 891 l 501 781"},"Ų":{"ha":703,"x_min":59,"x_max":644,"o":"m 352 -16 b 217.5 -31.7 91.0 44.9 59 256 l 59 710 l 211 710 l 211 256 b 250.6 71.6 420.7 54.1 492 256 l 492 710 l 644 710 l 644 256 b 661.3 131.8 579.6 13.9 352 -16 m 397 -216 b 263.0 -196.6 253.7 -106.6 334 -19 l 367 25 l 467 1 l 437 -39 b 397.1 -88.3 393.9 -121.0 431 -127 q 458 -127 476 -114 l 504 -190 b 494.1 -201.0 448.8 -214.3 397 -216"},"Ů":{"ha":703,"x_min":59,"x_max":644,"o":"m 352 -16 b 217.5 -31.7 91.0 44.9 59 256 l 59 710 l 211 710 l 211 256 b 250.6 71.6 420.7 54.1 492 256 l 492 710 l 644 710 l 644 256 b 661.3 131.8 579.6 13.9 352 -16 m 352 749 b 222.4 782.7 208.6 895.2 352 952 b 480.1 918.2 493.9 805.4 352 749 m 352 813 b 398.6 825.0 403.6 867.3 352 888 b 303.9 875.9 298.9 833.3 352 813"},"Ũ":{"ha":703,"x_min":59,"x_max":644,"o":"m 352 -16 b 217.5 -31.7 91.0 44.9 59 256 l 59 710 l 211 710 l 211 256 b 250.6 71.6 420.7 54.1 492 256 l 492 710 l 644 710 l 644 256 b 661.3 131.8 579.6 13.9 352 -16 m 408 774 b 353.2 781.8 314.5 815.3 293 822 b 278.3 826.4 260.0 812.5 255 769 l 180 769 b 211.2 934.3 335.1 940.4 410 863 b 425.6 858.4 443.5 873.0 448 918 l 522 918 b 528.2 852.4 488.7 781.5 408 774"},"V":{"ha":730,"x_min":19,"x_max":711,"o":"m 454 0 l 275 0 l 19 710 l 176 710 l 365 171 l 554 710 l 711 710 l 454 0"},"W":{"ha":1015,"x_min":37,"x_max":978,"o":"m 391 0 l 229 0 l 37 710 l 196 710 l 318 210 l 441 710 l 574 710 l 698 210 l 819 710 l 978 710 l 787 0 l 623 0 l 507 454 l 391 0"},"Ẃ":{"ha":1015,"x_min":37,"x_max":978,"o":"m 391 0 l 229 0 l 37 710 l 196 710 l 318 210 l 441 710 l 574 710 l 698 210 l 819 710 l 978 710 l 787 0 l 623 0 l 507 454 l 391 0 m 553 765 l 439 765 l 498 913 l 643 913 l 553 765"},"Ŵ":{"ha":1015,"x_min":37,"x_max":978,"o":"m 391 0 l 229 0 l 37 710 l 196 710 l 318 210 l 441 710 l 574 710 l 698 210 l 819 710 l 978 710 l 787 0 l 623 0 l 507 454 l 391 0 m 444 765 l 339 765 l 435 918 l 579 918 l 675 765 l 570 765 l 507 854 l 444 765"},"Ẅ":{"ha":1015,"x_min":37,"x_max":978,"o":"m 391 0 l 229 0 l 37 710 l 196 710 l 318 210 l 441 710 l 574 710 l 698 210 l 819 710 l 978 710 l 787 0 l 623 0 l 507 454 l 391 0 m 472 776 l 329 776 l 329 896 l 472 896 l 472 776 m 687 776 l 544 776 l 544 896 l 687 896 l 687 776"},"Ẁ":{"ha":1015,"x_min":37,"x_max":978,"o":"m 391 0 l 229 0 l 37 710 l 196 710 l 318 210 l 441 710 l 574 710 l 698 210 l 819 710 l 978 710 l 787 0 l 623 0 l 507 454 l 391 0 m 574 765 l 460 765 l 370 912 l 515 912 l 574 765"},"X":{"ha":688,"x_min":12,"x_max":676,"o":"m 189 0 l 12 0 l 253 356 l 14 710 l 190 710 l 345 471 l 496 710 l 673 710 l 434 358 l 676 0 l 499 0 l 343 243 l 189 0"},"Y":{"ha":631,"x_min":-7,"x_max":638,"o":"m 392 0 l 240 0 l 240 276 l -7 710 l 161 710 l 316 424 l 470 710 l 638 710 l 392 276 l 392 0"},"Ý":{"ha":631,"x_min":-7,"x_max":638,"o":"m 392 0 l 240 0 l 240 276 l -7 710 l 161 710 l 316 424 l 470 710 l 638 710 l 392 276 l 392 0 m 362 765 l 248 765 l 307 913 l 452 913 l 362 765"},"Ŷ":{"ha":631,"x_min":-7,"x_max":638,"o":"m 392 0 l 240 0 l 240 276 l -7 710 l 161 710 l 316 424 l 470 710 l 638 710 l 392 276 l 392 0 m 253 765 l 148 765 l 244 918 l 388 918 l 484 765 l 379 765 l 316 854 l 253 765"},"Ÿ":{"ha":631,"x_min":-7,"x_max":638,"o":"m 392 0 l 240 0 l 240 276 l -7 710 l 161 710 l 316 424 l 470 710 l 638 710 l 392 276 l 392 0 m 280 776 l 137 776 l 137 896 l 280 896 l 280 776 m 495 776 l 352 776 l 352 896 l 495 896 l 495 776"},"Ỵ":{"ha":631,"x_min":-7,"x_max":638,"o":"m 392 0 l 240 0 l 240 276 l -7 710 l 161 710 l 316 424 l 470 710 l 638 710 l 392 276 l 392 0 m 381 -156 l 252 -156 l 252 -47 l 381 -47 l 381 -156"},"Ỳ":{"ha":631,"x_min":-7,"x_max":638,"o":"m 392 0 l 240 0 l 240 276 l -7 710 l 161 710 l 316 424 l 470 710 l 638 710 l 392 276 l 392 0 m 383 765 l 269 765 l 179 912 l 324 912 l 383 765"},"Ỷ":{"ha":631,"x_min":-7,"x_max":638,"o":"m 392 0 l 240 0 l 240 276 l -7 710 l 161 710 l 316 424 l 470 710 l 638 710 l 392 276 l 392 0 m 360 762 l 270 762 b 321.4 815.7 327.1 854.9 275 861 q 250 861 230 855 l 230 929 b 256.2 949.9 352.1 955.9 404 854 b 405.7 823.3 385.6 784.4 360 762"},"Ỹ":{"ha":631,"x_min":-7,"x_max":638,"o":"m 392 0 l 240 0 l 240 276 l -7 710 l 161 710 l 316 424 l 470 710 l 638 710 l 392 276 l 392 0 m 373 774 b 318.2 781.8 279.5 815.3 258 822 b 243.3 826.4 225.0 812.5 220 769 l 145 769 b 176.2 934.3 300.1 940.4 375 863 b 390.6 858.4 408.5 873.0 413 918 l 487 918 b 493.2 852.4 453.7 781.5 373 774"},"Z":{"ha":594,"x_min":27,"x_max":567,"o":"m 567 0 l 27 0 l 27 124 l 365 582 l 43 582 l 43 710 l 554 710 l 554 586 l 209 128 l 567 128 l 567 0"},"Ź":{"ha":594,"x_min":27,"x_max":567,"o":"m 567 0 l 27 0 l 27 124 l 365 582 l 43 582 l 43 710 l 554 710 l 554 586 l 209 128 l 567 128 l 567 0 m 352 765 l 238 765 l 297 913 l 442 913 l 352 765"},"Ž":{"ha":594,"x_min":27,"x_max":567,"o":"m 567 0 l 27 0 l 27 124 l 365 582 l 43 582 l 43 710 l 554 710 l 554 586 l 209 128 l 567 128 l 567 0 m 234 765 l 138 918 l 243 918 l 306 829 l 369 918 l 474 918 l 378 765 l 234 765"},"Ż":{"ha":594,"x_min":27,"x_max":567,"o":"m 567 0 l 27 0 l 27 124 l 365 582 l 43 582 l 43 710 l 554 710 l 554 586 l 209 128 l 567 128 l 567 0 m 383 776 l 228 776 l 228 896 l 383 896 l 383 776"},"Ꞌ":{"ha":226,"x_min":42,"x_max":184,"o":"m 171 330 l 55 330 l 42 570 l 42 710 l 184 710 l 184 570 l 171 330"},"a":{"ha":594,"x_min":37,"x_max":581,"o":"m 225 -12 b -11.2 27.0 -36.4 200.4 213 300 l 386 334 b 382.4 447.6 254.7 475.2 197 362 l 46 369 b 138.2 606.4 418.8 630.5 536 324 l 536 141 b 534.0 118.5 543.9 102.6 566 103 l 581 103 l 581 0 b 563.0 -19.8 497.8 -27.3 412 77 l 410 82 b 399.4 39.3 329.8 -7.1 225 -12 m 261 91 b 316.7 83.5 379.0 127.7 386 214 l 386 240 l 264 214 b 182.4 198.6 162.0 117.4 261 91"},"á":{"ha":594,"x_min":37,"x_max":581,"o":"m 225 -12 b -11.2 27.0 -36.4 200.4 213 300 l 386 334 b 382.4 447.6 254.7 475.2 197 362 l 46 369 b 138.2 606.4 418.8 630.5 536 324 l 536 141 b 534.0 118.5 543.9 102.6 566 103 l 581 103 l 581 0 b 563.0 -19.8 497.8 -27.3 412 77 l 410 82 b 399.4 39.3 329.8 -7.1 225 -12 m 261 91 b 316.7 83.5 379.0 127.7 386 214 l 386 240 l 264 214 b 182.4 198.6 162.0 117.4 261 91 m 343 591 l 229 591 l 288 739 l 433 739 l 343 591"},"ă":{"ha":594,"x_min":37,"x_max":581,"o":"m 225 -12 b -11.2 27.0 -36.4 200.4 213 300 l 386 334 b 382.4 447.6 254.7 475.2 197 362 l 46 369 b 138.2 606.4 418.8 630.5 536 324 l 536 141 b 534.0 118.5 543.9 102.6 566 103 l 581 103 l 581 0 b 563.0 -19.8 497.8 -27.3 412 77 l 410 82 b 399.4 39.3 329.8 -7.1 225 -12 m 261 91 b 316.7 83.5 379.0 127.7 386 214 l 386 240 l 264 214 b 182.4 198.6 162.0 117.4 261 91 m 297 592 b 227.9 582.7 151.9 634.0 140 739 l 227 739 b 251.7 654.2 327.6 647.1 366 739 l 453 739 b 459.1 669.6 401.9 598.5 297 592"},"ắ":{"ha":594,"x_min":37,"x_max":581,"o":"m 225 -12 b -11.2 27.0 -36.4 200.4 213 300 l 386 334 b 382.4 447.6 254.7 475.2 197 362 l 46 369 b 138.2 606.4 418.8 630.5 536 324 l 536 141 b 534.0 118.5 543.9 102.6 566 103 l 581 103 l 581 0 b 563.0 -19.8 497.8 -27.3 412 77 l 410 82 b 399.4 39.3 329.8 -7.1 225 -12 m 261 91 b 316.7 83.5 379.0 127.7 386 214 l 386 240 l 264 214 b 182.4 198.6 162.0 117.4 261 91 m 349 747 l 246 747 l 300 874 l 428 874 l 349 747 m 297 584 b 227.9 574.7 151.9 626.0 140 731 l 227 731 b 251.7 646.6 327.6 639.3 366 731 l 453 731 b 459.1 661.6 401.9 590.5 297 584"},"ặ":{"ha":594,"x_min":37,"x_max":581,"o":"m 225 -12 b -11.2 27.0 -36.4 200.4 213 300 l 386 334 b 382.4 447.6 254.7 475.2 197 362 l 46 369 b 138.2 606.4 418.8 630.5 536 324 l 536 141 b 534.0 118.5 543.9 102.6 566 103 l 581 103 l 581 0 b 563.0 -19.8 497.8 -27.3 412 77 l 410 82 b 399.4 39.3 329.8 -7.1 225 -12 m 261 91 b 316.7 83.5 379.0 127.7 386 214 l 386 240 l 264 214 b 182.4 198.6 162.0 117.4 261 91 m 357 -156 l 228 -156 l 228 -47 l 357 -47 l 357 -156 m 297 592 b 227.9 582.7 151.9 634.0 140 739 l 227 739 b 251.7 654.2 327.6 647.1 366 739 l 453 739 b 459.1 669.6 401.9 598.5 297 592"},"ằ":{"ha":594,"x_min":37,"x_max":581,"o":"m 225 -12 b -11.2 27.0 -36.4 200.4 213 300 l 386 334 b 382.4 447.6 254.7 475.2 197 362 l 46 369 b 138.2 606.4 418.8 630.5 536 324 l 536 141 b 534.0 118.5 543.9 102.6 566 103 l 581 103 l 581 0 b 563.0 -19.8 497.8 -27.3 412 77 l 410 82 b 399.4 39.3 329.8 -7.1 225 -12 m 261 91 b 316.7 83.5 379.0 127.7 386 214 l 386 240 l 264 214 b 182.4 198.6 162.0 117.4 261 91 m 349 747 l 246 747 l 167 874 l 295 874 l 349 747 m 297 584 b 227.9 574.7 151.9 626.0 140 731 l 227 731 b 251.7 646.6 327.6 639.3 366 731 l 453 731 b 459.1 661.6 401.9 590.5 297 584"},"ẳ":{"ha":594,"x_min":37,"x_max":581,"o":"m 225 -12 b -11.2 27.0 -36.4 200.4 213 300 l 386 334 b 382.4 447.6 254.7 475.2 197 362 l 46 369 b 138.2 606.4 418.8 630.5 536 324 l 536 141 b 534.0 118.5 543.9 102.6 566 103 l 581 103 l 581 0 b 563.0 -19.8 497.8 -27.3 412 77 l 410 82 b 399.4 39.3 329.8 -7.1 225 -12 m 261 91 b 316.7 83.5 379.0 127.7 386 214 l 386 240 l 264 214 b 182.4 198.6 162.0 117.4 261 91 m 336 735 l 255 735 b 301.3 782.4 306.3 818.2 260 824 q 237 824 219 818 l 219 885 b 242.9 904.2 328.5 909.9 376 818 b 377.4 790.0 358.6 754.5 336 735 m 297 592 b 227.9 582.7 151.9 634.0 140 739 l 227 739 b 251.7 654.6 327.6 647.3 366 739 l 453 739 b 459.1 669.6 401.9 598.5 297 592"},"ẵ":{"ha":594,"x_min":37,"x_max":581,"o":"m 225 -12 b -11.2 27.0 -36.4 200.4 213 300 l 386 334 b 382.4 447.6 254.7 475.2 197 362 l 46 369 b 138.2 606.4 418.8 630.5 536 324 l 536 141 b 534.0 118.5 543.9 102.6 566 103 l 581 103 l 581 0 b 563.0 -19.8 497.8 -27.3 412 77 l 410 82 b 399.4 39.3 329.8 -7.1 225 -12 m 261 91 b 316.7 83.5 379.0 127.7 386 214 l 386 240 l 264 214 b 182.4 198.6 162.0 117.4 261 91 m 351 771 b 302.8 779.0 256.7 817.5 220.5 803.5 q 211 794 209 766 l 136 766 b 171.1 913.3 263.0 924.1 316 869 b 346.2 839.8 373.5 841.3 385 902 l 457 902 b 462.7 841.4 425.8 777.4 351 771 m 297 584 b 227.9 574.7 151.9 626.0 140 731 l 227 731 b 252.0 646.6 327.2 639.3 367 731 l 453 731 b 459.3 661.6 402.9 590.5 297 584"},"ǎ":{"ha":594,"x_min":37,"x_max":581,"o":"m 225 -12 b -11.2 27.0 -36.4 200.4 213 300 l 386 334 b 382.4 447.6 254.7 475.2 197 362 l 46 369 b 138.2 606.4 418.8 630.5 536 324 l 536 141 b 534.0 118.5 543.9 102.6 566 103 l 581 103 l 581 0 b 563.0 -19.8 497.8 -27.3 412 77 l 410 82 b 399.4 39.3 329.8 -7.1 225 -12 m 261 91 b 316.7 83.5 379.0 127.7 386 214 l 386 240 l 264 214 b 182.4 198.6 162.0 117.4 261 91 m 225 591 l 129 744 l 234 744 l 297 655 l 360 744 l 465 744 l 369 591 l 225 591"},"â":{"ha":594,"x_min":37,"x_max":581,"o":"m 225 -12 b -11.2 27.0 -36.4 200.4 213 300 l 386 334 b 382.4 447.6 254.7 475.2 197 362 l 46 369 b 138.2 606.4 418.8 630.5 536 324 l 536 141 b 534.0 118.5 543.9 102.6 566 103 l 581 103 l 581 0 b 563.0 -19.8 497.8 -27.3 412 77 l 410 82 b 399.4 39.3 329.8 -7.1 225 -12 m 261 91 b 316.7 83.5 379.0 127.7 386 214 l 386 240 l 264 214 b 182.4 198.6 162.0 117.4 261 91 m 234 591 l 129 591 l 225 744 l 369 744 l 465 591 l 360 591 l 297 680 l 234 591"},"ấ":{"ha":594,"x_min":37,"x_max":591,"o":"m 225 -12 b -11.2 27.0 -36.4 200.4 213 300 l 386 334 b 382.4 447.6 254.7 475.2 197 362 l 46 369 b 138.2 606.4 418.8 630.5 536 324 l 536 141 b 534.0 118.5 543.9 102.6 566 103 l 581 103 l 581 0 b 563.0 -19.8 497.8 -27.3 412 77 l 410 82 b 399.4 39.3 329.8 -7.1 225 -12 m 261 91 b 316.7 83.5 379.0 127.7 386 214 l 386 240 l 264 214 b 182.4 198.6 162.0 117.4 261 91 m 510 688 l 407 688 l 460 835 l 591 835 l 510 688 m 236 581 l 131 581 l 227 724 l 366 724 l 462 581 l 358 581 l 297 659 l 236 581"},"ậ":{"ha":594,"x_min":37,"x_max":581,"o":"m 225 -12 b -11.2 27.0 -36.4 200.4 213 300 l 386 334 b 382.4 447.6 254.7 475.2 197 362 l 46 369 b 138.2 606.4 418.8 630.5 536 324 l 536 141 b 534.0 118.5 543.9 102.6 566 103 l 581 103 l 581 0 b 563.0 -19.8 497.8 -27.3 412 77 l 410 82 b 399.4 39.3 329.8 -7.1 225 -12 m 261 91 b 316.7 83.5 379.0 127.7 386 214 l 386 240 l 264 214 b 182.4 198.6 162.0 117.4 261 91 m 357 -156 l 228 -156 l 228 -47 l 357 -47 l 357 -156 m 234 591 l 129 591 l 225 744 l 369 744 l 465 591 l 360 591 l 297 680 l 234 591"},"ầ":{"ha":594,"x_min":37,"x_max":581,"o":"m 225 -12 b -11.2 27.0 -36.4 200.4 213 300 l 386 334 b 382.4 447.6 254.7 475.2 197 362 l 46 369 b 138.2 606.4 418.8 630.5 536 324 l 536 141 b 534.0 118.5 543.9 102.6 566 103 l 581 103 l 581 0 b 563.0 -19.8 497.8 -27.3 412 77 l 410 82 b 399.4 39.3 329.8 -7.1 225 -12 m 261 91 b 316.7 83.5 379.0 127.7 386 214 l 386 240 l 264 214 b 182.4 198.6 162.0 117.4 261 91 m 561 688 l 458 688 l 377 835 l 508 835 l 561 688 m 236 581 l 131 581 l 227 724 l 366 724 l 462 581 l 358 581 l 297 659 l 236 581"},"ẩ":{"ha":594,"x_min":37,"x_max":581,"o":"m 225 -12 b -11.2 27.0 -36.4 200.4 213 300 l 386 334 b 382.4 447.6 254.7 475.2 197 362 l 46 369 b 138.2 606.4 418.8 630.5 536 324 l 536 141 b 534.0 118.5 543.9 102.6 566 103 l 581 103 l 581 0 b 563.0 -19.8 497.8 -27.3 412 77 l 410 82 b 399.4 39.3 329.8 -7.1 225 -12 m 261 91 b 316.7 83.5 379.0 127.7 386 214 l 386 240 l 264 214 b 182.4 198.6 162.0 117.4 261 91 m 489 685 l 407 685 b 463.1 792.2 406.9 798.3 366 773 l 366 844 b 393.1 862.5 481.9 868.2 529 775 b 530.4 745.1 511.6 706.4 489 685 m 236 581 l 131 581 l 227 724 l 366 724 l 462 581 l 358 581 l 297 659 l 236 581"},"ẫ":{"ha":594,"x_min":37,"x_max":581,"o":"m 225 -12 b -11.2 27.0 -36.4 200.4 213 300 l 386 334 b 382.4 447.6 254.7 475.2 197 362 l 46 369 b 138.2 606.4 418.8 630.5 536 324 l 536 141 b 534.0 118.5 543.9 102.6 566 103 l 581 103 l 581 0 b 563.0 -19.8 497.8 -27.3 412 77 l 410 82 b 399.4 39.3 329.8 -7.1 225 -12 m 261 91 b 316.7 83.5 379.0 127.7 386 214 l 386 240 l 264 214 b 182.4 198.6 162.0 117.4 261 91 m 352 757 b 303.8 765.0 257.3 803.5 221.5 789.5 q 212 780 210 752 l 137 752 b 167.4 902.5 283.5 907.9 352 838 b 365.6 833.7 380.8 846.2 385 888 l 457 888 b 463.7 827.4 427.0 763.4 352 757 m 234 581 l 129 581 l 227 721 l 367 721 l 465 581 l 360 581 l 297 659 l 234 581"},"ä":{"ha":594,"x_min":37,"x_max":581,"o":"m 225 -12 b -11.2 27.0 -36.4 200.4 213 300 l 386 334 b 382.4 447.6 254.7 475.2 197 362 l 46 369 b 138.2 606.4 418.8 630.5 536 324 l 536 141 b 534.0 118.5 543.9 102.6 566 103 l 581 103 l 581 0 b 563.0 -19.8 497.8 -27.3 412 77 l 410 82 b 399.4 39.3 329.8 -7.1 225 -12 m 261 91 b 316.7 83.5 379.0 127.7 386 214 l 386 240 l 264 214 b 182.4 198.6 162.0 117.4 261 91 m 261 602 l 118 602 l 118 722 l 261 722 l 261 602 m 476 602 l 333 602 l 333 722 l 476 722 l 476 602"},"ạ":{"ha":594,"x_min":37,"x_max":581,"o":"m 225 -12 b -11.2 27.0 -36.4 200.4 213 300 l 386 334 b 382.4 447.6 254.7 475.2 197 362 l 46 369 b 138.2 606.4 418.8 630.5 536 324 l 536 141 b 534.0 118.5 543.9 102.6 566 103 l 581 103 l 581 0 b 563.0 -19.8 497.8 -27.3 412 77 l 410 82 b 399.4 39.3 329.8 -7.1 225 -12 m 261 91 b 316.7 83.5 379.0 127.7 386 214 l 386 240 l 264 214 b 182.4 198.6 162.0 117.4 261 91 m 357 -156 l 228 -156 l 228 -47 l 357 -47 l 357 -156"},"à":{"ha":594,"x_min":37,"x_max":581,"o":"m 225 -12 b -11.2 27.0 -36.4 200.4 213 300 l 386 334 b 382.4 447.6 254.7 475.2 197 362 l 46 369 b 138.2 606.4 418.8 630.5 536 324 l 536 141 b 534.0 118.5 543.9 102.6 566 103 l 581 103 l 581 0 b 563.0 -19.8 497.8 -27.3 412 77 l 410 82 b 399.4 39.3 329.8 -7.1 225 -12 m 261 91 b 316.7 83.5 379.0 127.7 386 214 l 386 240 l 264 214 b 182.4 198.6 162.0 117.4 261 91 m 363 591 l 249 591 l 159 738 l 304 738 l 363 591"},"ả":{"ha":594,"x_min":37,"x_max":581,"o":"m 225 -12 b -11.2 27.0 -36.4 200.4 213 300 l 386 334 b 382.4 447.6 254.7 475.2 197 362 l 46 369 b 138.2 606.4 418.8 630.5 536 324 l 536 141 b 534.0 118.5 543.9 102.6 566 103 l 581 103 l 581 0 b 563.0 -19.8 497.8 -27.3 412 77 l 410 82 b 399.4 39.3 329.8 -7.1 225 -12 m 261 91 b 316.7 83.5 379.0 127.7 386 214 l 386 240 l 264 214 b 182.4 198.6 162.0 117.4 261 91 m 340 588 l 250 588 b 301.4 641.7 307.1 680.9 255 687 q 230 687 210 681 l 210 755 b 236.2 775.9 332.1 781.9 384 680 b 385.7 649.3 365.6 610.4 340 588"},"ā":{"ha":594,"x_min":37,"x_max":581,"o":"m 225 -12 b -11.2 27.0 -36.4 200.4 213 300 l 386 334 b 382.4 447.6 254.7 475.2 197 362 l 46 369 b 138.2 606.4 418.8 630.5 536 324 l 536 141 b 534.0 118.5 543.9 102.6 566 103 l 581 103 l 581 0 b 563.0 -19.8 497.8 -27.3 412 77 l 410 82 b 399.4 39.3 329.8 -7.1 225 -12 m 261 91 b 316.7 83.5 379.0 127.7 386 214 l 386 240 l 264 214 b 182.4 198.6 162.0 117.4 261 91 m 446 607 l 147 607 l 147 717 l 446 717 l 446 607"},"ą":{"ha":594,"x_min":37,"x_max":618,"o":"m 225 -12 b -11.2 27.0 -36.4 200.4 213 300 l 386 334 b 382.4 447.6 254.7 475.2 197 362 l 46 369 b 138.2 606.4 418.8 630.5 536 324 l 536 141 b 534.0 118.5 543.9 102.6 566 103 l 581 103 l 581 0 b 563.0 -19.8 497.8 -27.3 412 77 l 410 82 b 399.4 39.3 329.8 -7.1 225 -12 m 261 91 b 316.7 83.5 379.0 127.7 386 214 l 386 240 l 264 214 b 182.4 198.6 162.0 117.4 261 91 m 511 -217 b 377.0 -197.6 367.7 -107.6 448 -20 l 481 24 l 581 0 l 551 -40 b 511.1 -89.3 507.9 -122.0 545 -128 q 572 -128 590 -115 l 618 -191 b 608.1 -202.0 562.8 -215.3 511 -217"},"å":{"ha":594,"x_min":37,"x_max":581,"o":"m 225 -12 b -11.2 27.0 -36.4 200.4 213 300 l 386 334 b 382.4 447.6 254.7 475.2 197 362 l 46 369 b 138.2 606.4 418.8 630.5 536 324 l 536 141 b 534.0 118.5 543.9 102.6 566 103 l 581 103 l 581 0 b 563.0 -19.8 497.8 -27.3 412 77 l 410 82 b 399.4 39.3 329.8 -7.1 225 -12 m 261 91 b 316.7 83.5 379.0 127.7 386 214 l 386 240 l 264 214 b 182.4 198.6 162.0 117.4 261 91 m 297 575 b 167.4 608.7 153.6 721.2 297 778 b 425.1 744.2 438.9 631.4 297 575 m 297 639 b 343.6 651.0 348.6 693.3 297 714 b 248.9 701.9 243.9 659.3 297 639"},"ã":{"ha":594,"x_min":37,"x_max":581,"o":"m 225 -12 b -11.2 27.0 -36.4 200.4 213 300 l 386 334 b 382.4 447.6 254.7 475.2 197 362 l 46 369 b 138.2 606.4 418.8 630.5 536 324 l 536 141 b 534.0 118.5 543.9 102.6 566 103 l 581 103 l 581 0 b 563.0 -19.8 497.8 -27.3 412 77 l 410 82 b 399.4 39.3 329.8 -7.1 225 -12 m 261 91 b 316.7 83.5 379.0 127.7 386 214 l 386 240 l 264 214 b 182.4 198.6 162.0 117.4 261 91 m 353 600 b 298.2 607.8 259.5 641.3 238 648 b 223.3 652.4 205.0 638.5 200 595 l 125 595 b 156.2 760.3 280.1 766.4 355 689 b 370.6 684.4 388.5 699.0 393 744 l 467 744 b 473.2 678.4 433.7 607.5 353 600"},"æ":{"ha":959,"x_min":37,"x_max":922,"o":"m 226 -12 b -10.7 25.1 -35.1 207.6 213 300 l 386 330 b 360.6 466.4 251.4 475.5 197 362 l 46 369 b 52.1 511.2 201.4 595.4 479 486 b 568.3 577.3 728.4 589.5 889.5 413 q 922 348 922 258 l 922 228 l 545 228 b 540.6 121.7 614.4 61.6 763 167 l 914 158 b 803.5 -48.5 584.4 -65.7 440 93 b 420.4 41.5 339.6 -8.2 226 -12 m 545 320 l 769 320 b 731.2 471.0 612.1 484.1 545 320 m 272 90 b 322.8 82.8 379.6 123.4 386 212 l 386 236 l 264 214 b 168.0 186.0 159.0 116.7 272 90"},"b":{"ha":634,"x_min":66,"x_max":597,"o":"m 374 -12 b 321.6 -17.7 250.7 14.4 212 79 l 209 0 l 66 0 l 66 710 l 216 710 l 216 460 b 283.9 577.6 434.0 593.3 569.5 416 b 639.8 201.5 583.0 26.6 374 -12 m 332 103 b 472.6 150.8 486.9 347.9 333 433 b 183.4 385.2 169.3 189.1 332 103"},"c":{"ha":598,"x_min":37,"x_max":571,"o":"m 309 -12 b 88.8 0.3 -9.3 150.9 70.5 415 b 187.1 579.1 381.4 593.5 528 451 q 563 404 571 338 l 416 331 b 376.4 471.2 253.6 486.7 191 268 b 226.7 66.6 354.5 49.2 416 210 l 571 204 b 574.4 105.2 497.3 11.5 309 -12"},"ć":{"ha":598,"x_min":37,"x_max":571,"o":"m 309 -12 b 88.8 0.3 -9.3 150.9 70.5 415 b 187.1 579.1 381.4 593.5 528 451 q 563 404 571 338 l 416 331 b 376.4 471.2 253.6 486.7 191 268 b 226.7 66.6 354.5 49.2 416 210 l 571 204 b 574.4 105.2 497.3 11.5 309 -12 m 355 591 l 241 591 l 300 739 l 445 739 l 355 591"},"č":{"ha":598,"x_min":37,"x_max":571,"o":"m 309 -12 b 88.8 0.3 -9.3 150.9 70.5 415 b 187.1 579.1 381.4 593.5 528 451 q 563 404 571 338 l 416 331 b 376.4 471.2 253.6 486.7 191 268 b 226.7 66.6 354.5 49.2 416 210 l 571 204 b 574.4 105.2 497.3 11.5 309 -12 m 237 591 l 141 744 l 246 744 l 309 655 l 372 744 l 477 744 l 381 591 l 237 591"},"ç":{"ha":598,"x_min":37,"x_max":571,"o":"m 309 -12 b 88.8 0.3 -9.3 150.9 70.5 415 b 187.1 579.1 381.4 593.5 528 451 q 563 404 571 338 l 416 331 b 376.4 471.2 253.6 486.7 191 268 b 226.7 66.6 354.5 49.2 416 210 l 571 204 b 574.4 105.2 497.3 11.5 309 -12 m 303 -232 b 255.3 -236.8 198.1 -205.8 175 -149 l 241 -121 b 268.0 -169.7 324.5 -173.8 348 -123 b 353.8 -105.1 338.3 -86.0 283 -84 l 242 -45 l 275 10 l 361 10 l 334 -31 b 463.6 -66.6 474.1 -179.0 303 -232"},"ĉ":{"ha":598,"x_min":37,"x_max":571,"o":"m 309 -12 b 88.8 0.3 -9.3 150.9 70.5 415 b 187.1 579.1 381.4 593.5 528 451 q 563 404 571 338 l 416 331 b 376.4 471.2 253.6 486.7 191 268 b 226.7 66.6 354.5 49.2 416 210 l 571 204 b 574.4 105.2 497.3 11.5 309 -12 m 246 591 l 141 591 l 237 744 l 381 744 l 477 591 l 372 591 l 309 680 l 246 591"},"ċ":{"ha":598,"x_min":37,"x_max":571,"o":"m 309 -12 b 88.8 0.3 -9.3 150.9 70.5 415 b 187.1 579.1 381.4 593.5 528 451 q 563 404 571 338 l 416 331 b 376.4 471.2 253.6 486.7 191 268 b 226.7 66.6 354.5 49.2 416 210 l 571 204 b 574.4 105.2 497.3 11.5 309 -12 m 387 602 l 232 602 l 232 722 l 387 722 l 387 602"},"d":{"ha":634,"x_min":37,"x_max":568,"o":"m 257 -12 b 77.0 -2.1 -0.7 149.1 64 416.5 b 160.3 577.6 318.7 590.9 418 460 l 418 710 l 568 710 l 568 0 l 425 0 l 422 79 b 406.5 36.3 341.9 -7.8 257 -12 m 306 103 b 449.5 147.8 463.1 351.6 306 433 b 159.7 384.3 145.3 191.0 306 103"},"ď":{"ha":741,"x_min":37,"x_max":772,"o":"m 257 -12 b 77.0 -2.1 -0.7 149.1 64 416.5 b 160.3 577.6 318.7 590.9 418 460 l 418 710 l 568 710 l 568 0 l 425 0 l 422 79 b 406.5 36.3 341.9 -7.8 257 -12 m 306 103 b 449.5 147.8 463.1 351.6 306 433 b 159.7 384.3 145.3 191.0 306 103 m 718 424 l 614 424 l 643 710 l 772 710 l 718 424"},"đ":{"ha":634,"x_min":37,"x_max":635,"o":"m 257 -12 b 77.0 -2.1 -0.7 149.1 64 416.5 b 160.3 577.6 318.7 590.9 418 460 l 418 710 l 568 710 l 568 0 l 425 0 l 422 79 b 406.5 36.3 341.9 -7.8 257 -12 m 306 103 b 449.5 147.8 463.1 351.6 306 433 b 159.7 384.3 145.3 191.0 306 103 m 635 576 l 287 576 l 287 663 l 635 663 l 635 576"},"ð":{"ha":618,"x_min":37,"x_max":581,"o":"m 309 -12 b -39.9 61.2 -72.8 352.9 309 482 b 336.0 483.6 383.1 473.4 425 455 q 403 517 359 555 l 231 501 l 203 570 l 277 601 q 232 617 175 620 l 215 722 b 268.2 719.6 348.9 696.0 409 657 l 541 712 l 569 644 l 472 603 b 639.9 407.3 662.0 112.8 309 -12 m 309 101 b 459.8 141.5 474.4 300.1 309 369 b 158.2 327.9 143.6 171.4 309 101"},"e":{"ha":605,"x_min":37,"x_max":569,"o":"m 307 -12 b 88.7 0.3 -8.8 150.9 70 415 b 182.2 585.3 385.3 602.0 536.5 413 q 569 348 569 258 l 569 228 l 192 228 b 187.6 121.7 261.4 61.6 410 167 l 561 158 b 552.0 78.6 455.5 -4.1 307 -12 m 192 320 l 415 320 b 378.5 471.0 259.3 484.1 192 320"},"é":{"ha":605,"x_min":37,"x_max":569,"o":"m 307 -12 b 88.7 0.3 -8.8 150.9 70 415 b 182.2 585.3 385.3 602.0 536.5 413 q 569 348 569 258 l 569 228 l 192 228 b 187.6 121.7 261.4 61.6 410 167 l 561 158 b 552.0 78.6 455.5 -4.1 307 -12 m 192 320 l 415 320 b 378.5 471.0 259.3 484.1 192 320 m 355 589 l 241 589 l 300 737 l 445 737 l 355 589"},"ě":{"ha":605,"x_min":37,"x_max":569,"o":"m 307 -12 b 88.7 0.3 -8.8 150.9 70 415 b 182.2 585.3 385.3 602.0 536.5 413 q 569 348 569 258 l 569 228 l 192 228 b 187.6 121.7 261.4 61.6 410 167 l 561 158 b 552.0 78.6 455.5 -4.1 307 -12 m 192 320 l 415 320 b 378.5 471.0 259.3 484.1 192 320 m 237 589 l 141 742 l 246 742 l 309 653 l 372 742 l 477 742 l 381 589 l 237 589"},"ê":{"ha":605,"x_min":37,"x_max":569,"o":"m 307 -12 b 88.7 0.3 -8.8 150.9 70 415 b 182.2 585.3 385.3 602.0 536.5 413 q 569 348 569 258 l 569 228 l 192 228 b 187.6 121.7 261.4 61.6 410 167 l 561 158 b 552.0 78.6 455.5 -4.1 307 -12 m 192 320 l 415 320 b 378.5 471.0 259.3 484.1 192 320 m 246 589 l 141 589 l 237 742 l 381 742 l 477 589 l 372 589 l 309 678 l 246 589"},"ế":{"ha":605,"x_min":37,"x_max":604,"o":"m 307 -12 b 88.7 0.3 -8.8 150.9 70 415 b 182.2 585.3 385.3 602.0 536.5 413 q 569 348 569 258 l 569 228 l 192 228 b 187.6 121.7 261.4 61.6 410 167 l 561 158 b 552.0 78.6 455.5 -4.1 307 -12 m 192 320 l 415 320 b 378.5 471.0 259.3 484.1 192 320 m 523 686 l 420 686 l 473 833 l 604 833 l 523 686 m 249 579 l 144 579 l 240 722 l 379 722 l 475 579 l 371 579 l 310 657 l 249 579"},"ệ":{"ha":605,"x_min":37,"x_max":569,"o":"m 307 -12 b 88.7 0.3 -8.8 150.9 70 415 b 182.2 585.3 385.3 602.0 536.5 413 q 569 348 569 258 l 569 228 l 192 228 b 187.6 121.7 261.4 61.6 410 167 l 561 158 b 552.0 78.6 455.5 -4.1 307 -12 m 192 320 l 415 320 b 378.5 471.0 259.3 484.1 192 320 m 374 -156 l 245 -156 l 245 -47 l 374 -47 l 374 -156 m 246 589 l 141 589 l 237 742 l 381 742 l 477 589 l 372 589 l 309 678 l 246 589"},"ề":{"ha":605,"x_min":37,"x_max":574,"o":"m 307 -12 b 88.7 0.3 -8.8 150.9 70 415 b 182.2 585.3 385.3 602.0 536.5 413 q 569 348 569 258 l 569 228 l 192 228 b 187.6 121.7 261.4 61.6 410 167 l 561 158 b 552.0 78.6 455.5 -4.1 307 -12 m 192 320 l 415 320 b 378.5 471.0 259.3 484.1 192 320 m 574 686 l 471 686 l 390 833 l 521 833 l 574 686 m 249 579 l 144 579 l 240 722 l 379 722 l 475 579 l 371 579 l 310 657 l 249 579"},"ể":{"ha":605,"x_min":37,"x_max":569,"o":"m 307 -12 b 88.7 0.3 -8.8 150.9 70 415 b 182.2 585.3 385.3 602.0 536.5 413 q 569 348 569 258 l 569 228 l 192 228 b 187.6 121.7 261.4 61.6 410 167 l 561 158 b 552.0 78.6 455.5 -4.1 307 -12 m 192 320 l 415 320 b 378.5 471.0 259.3 484.1 192 320 m 502 683 l 420 683 b 476.1 790.2 419.9 796.3 379 771 l 379 842 b 406.1 860.5 494.9 866.2 542 773 b 543.4 743.1 524.6 704.4 502 683 m 249 579 l 144 579 l 240 722 l 379 722 l 475 579 l 371 579 l 310 657 l 249 579"},"ễ":{"ha":605,"x_min":37,"x_max":569,"o":"m 307 -12 b 88.7 0.3 -8.8 150.9 70 415 b 182.2 585.3 385.3 602.0 536.5 413 q 569 348 569 258 l 569 228 l 192 228 b 187.6 121.7 261.4 61.6 410 167 l 561 158 b 552.0 78.6 455.5 -4.1 307 -12 m 192 320 l 415 320 b 378.5 471.0 259.3 484.1 192 320 m 365 755 b 316.8 763.0 270.3 801.5 234.5 787.5 q 225 778 223 750 l 150 750 b 180.4 900.5 296.5 905.9 365 836 b 378.6 831.7 393.8 844.2 398 886 l 470 886 b 476.7 825.4 440.0 761.4 365 755 m 247 579 l 142 579 l 240 719 l 380 719 l 478 579 l 373 579 l 310 657 l 247 579"},"ë":{"ha":605,"x_min":37,"x_max":569,"o":"m 307 -12 b 88.7 0.3 -8.8 150.9 70 415 b 182.2 585.3 385.3 602.0 536.5 413 q 569 348 569 258 l 569 228 l 192 228 b 187.6 121.7 261.4 61.6 410 167 l 561 158 b 552.0 78.6 455.5 -4.1 307 -12 m 192 320 l 415 320 b 378.5 471.0 259.3 484.1 192 320 m 273 600 l 130 600 l 130 720 l 273 720 l 273 600 m 488 600 l 345 600 l 345 720 l 488 720 l 488 600"},"ė":{"ha":605,"x_min":37,"x_max":569,"o":"m 307 -12 b 88.7 0.3 -8.8 150.9 70 415 b 182.2 585.3 385.3 602.0 536.5 413 q 569 348 569 258 l 569 228 l 192 228 b 187.6 121.7 261.4 61.6 410 167 l 561 158 b 552.0 78.6 455.5 -4.1 307 -12 m 192 320 l 415 320 b 378.5 471.0 259.3 484.1 192 320 m 387 600 l 232 600 l 232 720 l 387 720 l 387 600"},"ẹ":{"ha":605,"x_min":37,"x_max":569,"o":"m 307 -12 b 88.7 0.3 -8.8 150.9 70 415 b 182.2 585.3 385.3 602.0 536.5 413 q 569 348 569 258 l 569 228 l 192 228 b 187.6 121.7 261.4 61.6 410 167 l 561 158 b 552.0 78.6 455.5 -4.1 307 -12 m 192 320 l 415 320 b 378.5 471.0 259.3 484.1 192 320 m 374 -156 l 245 -156 l 245 -47 l 374 -47 l 374 -156"},"è":{"ha":605,"x_min":37,"x_max":569,"o":"m 307 -12 b 88.7 0.3 -8.8 150.9 70 415 b 182.2 585.3 385.3 602.0 536.5 413 q 569 348 569 258 l 569 228 l 192 228 b 187.6 121.7 261.4 61.6 410 167 l 561 158 b 552.0 78.6 455.5 -4.1 307 -12 m 192 320 l 415 320 b 378.5 471.0 259.3 484.1 192 320 m 376 589 l 262 589 l 172 736 l 317 736 l 376 589"},"ẻ":{"ha":605,"x_min":37,"x_max":569,"o":"m 307 -12 b 88.7 0.3 -8.8 150.9 70 415 b 182.2 585.3 385.3 602.0 536.5 413 q 569 348 569 258 l 569 228 l 192 228 b 187.6 121.7 261.4 61.6 410 167 l 561 158 b 552.0 78.6 455.5 -4.1 307 -12 m 192 320 l 415 320 b 378.5 471.0 259.3 484.1 192 320 m 353 586 l 263 586 b 314.4 639.7 320.1 678.9 268 685 q 243 685 223 679 l 223 753 b 249.2 773.9 345.1 779.9 397 678 b 398.7 647.3 378.6 608.4 353 586"},"ē":{"ha":605,"x_min":37,"x_max":569,"o":"m 307 -12 b 88.7 0.3 -8.8 150.9 70 415 b 182.2 585.3 385.3 602.0 536.5 413 q 569 348 569 258 l 569 228 l 192 228 b 187.6 121.7 261.4 61.6 410 167 l 561 158 b 552.0 78.6 455.5 -4.1 307 -12 m 192 320 l 415 320 b 378.5 471.0 259.3 484.1 192 320 m 459 605 l 160 605 l 160 715 l 459 715 l 459 605"},"ę":{"ha":605,"x_min":37,"x_max":569,"o":"m 307 -12 b 88.7 0.3 -8.8 150.9 70 415 b 182.2 585.3 385.3 602.0 536.5 413 q 569 348 569 258 l 569 228 l 192 228 b 187.6 121.7 261.4 61.6 410 167 l 561 158 q 548 109 516 72 l 517 71 l 429 -34 b 377.1 -130.4 395.0 -146.4 467 -115 l 494 -191 b 442.8 -234.2 337.2 -242.0 278 -126 b 275.4 -97.6 291.5 -55.9 322 -21 l 330 -11 q 319 -12 307 -12 m 192 320 l 415 320 b 378.5 471.0 259.3 484.1 192 320"},"ẽ":{"ha":605,"x_min":37,"x_max":569,"o":"m 307 -12 b 88.7 0.3 -8.8 150.9 70 415 b 182.2 585.3 385.3 602.0 536.5 413 q 569 348 569 258 l 569 228 l 192 228 b 187.6 121.7 261.4 61.6 410 167 l 561 158 b 552.0 78.6 455.5 -4.1 307 -12 m 192 320 l 415 320 b 378.5 471.0 259.3 484.1 192 320 m 366 598 b 311.2 605.8 272.5 639.3 251 646 b 236.3 650.4 218.0 636.5 213 593 l 138 593 b 169.2 758.3 293.1 764.4 368 687 b 383.6 682.4 401.5 697.0 406 742 l 480 742 b 486.2 676.4 446.7 605.5 366 598"},"ə":{"ha":605,"x_min":37,"x_max":569,"o":"m 298 548 b 517.3 536.7 615.1 385.3 535.5 121 b 422.5 -49.3 220.8 -66.0 69.5 123 q 37 188 37 278 l 37 308 l 413 308 b 418.4 414.3 344.5 474.4 195 369 l 44 378 b 53.0 457.4 149.5 540.1 298 548 m 413 216 l 190 216 b 227.5 65.0 347.0 51.9 413 216"},"f":{"ha":447,"x_min":46,"x_max":415,"o":"m 274 0 l 124 0 l 124 424 l 46 424 l 46 536 l 124 536 l 124 543 b 111.7 621.4 168.2 702.4 300 710 l 415 710 l 415 598 l 333 598 b 302.4 602.2 275.4 581.7 274 536 l 407 536 l 407 424 l 274 424 l 274 0"},"g":{"ha":634,"x_min":37,"x_max":568,"o":"m 306 -162 b 195.0 -170.5 84.2 -113.8 53 -12 l 207 -1 b 236.9 -80.6 358.1 -91.9 417 50 l 417 107 b 349.9 -3.6 204.8 -17.3 65.5 148 b -6.0 346.4 53.6 508.6 260 548 b 315.5 553.6 385.7 518.6 421 453 l 421 536 l 568 536 l 568 53 b 582.5 -54.0 507.0 -144.8 306 -162 m 305 136 b 448.3 179.1 464.0 358.8 305 438 b 159.3 391.9 145.6 216.1 305 136"},"ğ":{"ha":634,"x_min":37,"x_max":568,"o":"m 306 -162 b 195.0 -170.5 84.2 -113.8 53 -12 l 207 -1 b 236.9 -80.6 358.1 -91.9 417 50 l 417 107 b 349.9 -3.6 204.8 -17.3 65.5 148 b -6.0 346.4 53.6 508.6 260 548 b 315.5 553.6 385.7 518.6 421 453 l 421 536 l 568 536 l 568 53 b 582.5 -54.0 507.0 -144.8 306 -162 m 305 136 b 448.3 179.1 464.0 358.8 305 438 b 159.3 391.9 145.6 216.1 305 136 m 310 592 b 240.9 582.7 164.9 634.0 153 739 l 240 739 b 264.7 654.2 340.6 647.1 379 739 l 466 739 b 472.1 669.6 414.9 598.5 310 592"},"ǧ":{"ha":634,"x_min":37,"x_max":568,"o":"m 306 -162 b 195.0 -170.5 84.2 -113.8 53 -12 l 207 -1 b 236.9 -80.6 358.1 -91.9 417 50 l 417 107 b 349.9 -3.6 204.8 -17.3 65.5 148 b -6.0 346.4 53.6 508.6 260 548 b 315.5 553.6 385.7 518.6 421 453 l 421 536 l 568 536 l 568 53 b 582.5 -54.0 507.0 -144.8 306 -162 m 305 136 b 448.3 179.1 464.0 358.8 305 438 b 159.3 391.9 145.6 216.1 305 136 m 237 591 l 141 744 l 246 744 l 309 655 l 372 744 l 477 744 l 381 591 l 237 591"},"ĝ":{"ha":634,"x_min":37,"x_max":568,"o":"m 306 -162 b 195.0 -170.5 84.2 -113.8 53 -12 l 207 -1 b 236.9 -80.6 358.1 -91.9 417 50 l 417 107 b 349.9 -3.6 204.8 -17.3 65.5 148 b -6.0 346.4 53.6 508.6 260 548 b 315.5 553.6 385.7 518.6 421 453 l 421 536 l 568 536 l 568 53 b 582.5 -54.0 507.0 -144.8 306 -162 m 305 136 b 448.3 179.1 464.0 358.8 305 438 b 159.3 391.9 145.6 216.1 305 136 m 246 591 l 141 591 l 237 744 l 381 744 l 477 591 l 372 591 l 309 680 l 246 591"},"ģ":{"ha":634,"x_min":37,"x_max":568,"o":"m 306 -162 b 195.0 -170.5 84.2 -113.8 53 -12 l 207 -1 b 236.9 -80.6 358.1 -91.9 417 50 l 417 107 b 349.9 -3.6 204.8 -17.3 65.5 148 b -6.0 346.4 53.6 508.6 260 548 b 315.5 553.6 385.7 518.6 421 453 l 421 536 l 568 536 l 568 53 b 582.5 -54.0 507.0 -144.8 306 -162 m 305 136 b 448.3 179.1 464.0 358.8 305 438 b 159.3 391.9 145.6 216.1 305 136 m 375 592 l 245 592 l 245 696 l 304 796 l 392 796 l 340 708 l 375 708 l 375 592"},"ġ":{"ha":634,"x_min":37,"x_max":568,"o":"m 306 -162 b 195.0 -170.5 84.2 -113.8 53 -12 l 207 -1 b 236.9 -80.6 358.1 -91.9 417 50 l 417 107 b 349.9 -3.6 204.8 -17.3 65.5 148 b -6.0 346.4 53.6 508.6 260 548 b 315.5 553.6 385.7 518.6 421 453 l 421 536 l 568 536 l 568 53 b 582.5 -54.0 507.0 -144.8 306 -162 m 305 136 b 448.3 179.1 464.0 358.8 305 438 b 159.3 391.9 145.6 216.1 305 136 m 387 602 l 232 602 l 232 722 l 387 722 l 387 602"},"ḡ":{"ha":634,"x_min":37,"x_max":568,"o":"m 306 -162 b 195.0 -170.5 84.2 -113.8 53 -12 l 207 -1 b 236.9 -80.6 358.1 -91.9 417 50 l 417 107 b 349.9 -3.6 204.8 -17.3 65.5 148 b -6.0 346.4 53.6 508.6 260 548 b 315.5 553.6 385.7 518.6 421 453 l 421 536 l 568 536 l 568 53 b 582.5 -54.0 507.0 -144.8 306 -162 m 305 136 b 448.3 179.1 464.0 358.8 305 438 b 159.3 391.9 145.6 216.1 305 136 m 459 607 l 160 607 l 160 717 l 459 717 l 459 607"},"ǥ":{"ha":658,"x_min":37,"x_max":633,"o":"m 306 -162 b 195.0 -170.5 84.2 -113.8 53 -12 l 207 -1 b 236.9 -80.6 358.1 -91.9 417 50 l 417 107 b 349.9 -3.6 204.8 -17.3 65.5 148 b -6.0 346.4 53.6 508.6 260 548 b 315.5 553.6 385.7 518.6 421 453 l 421 536 l 568 536 l 568 326 l 633 326 l 633 238 l 568 238 l 568 53 b 582.5 -54.0 507.0 -144.8 306 -162 m 305 136 b 344.2 129.6 393.0 163.5 413 235 l 413 238 l 279 238 l 279 326 l 416 326 b 372.6 475.4 250.3 491.2 191 287 b 184.2 218.4 225.9 143.9 305 136"},"h":{"ha":611,"x_min":66,"x_max":545,"o":"m 216 0 l 66 0 l 66 710 l 216 710 l 216 470 b 284.4 591.2 449.9 606.0 545 345 l 545 0 l 395 0 l 395 309 b 378.9 464.3 269.9 478.5 216 305 l 216 0"},"ħ":{"ha":611,"x_min":-2,"x_max":545,"o":"m 216 0 l 66 0 l 66 710 l 216 710 l 216 470 b 284.4 591.2 449.9 606.0 545 345 l 545 0 l 395 0 l 395 309 b 378.9 464.3 269.9 478.5 216 305 l 216 0 m 346 576 l -2 576 l -2 663 l 346 663 l 346 576"},"ĥ":{"ha":611,"x_min":-26,"x_max":545,"o":"m 216 0 l 66 0 l 66 710 l 216 710 l 216 470 b 284.4 591.2 449.9 606.0 545 345 l 545 0 l 395 0 l 395 309 b 378.9 464.3 269.9 478.5 216 305 l 216 0 m 79 745 l -26 745 l 70 898 l 214 898 l 310 745 l 205 745 l 142 834 l 79 745"},"i":{"ha":281,"x_min":63,"x_max":218,"o":"m 216 0 l 66 0 l 66 536 l 216 536 l 216 0 m 218 602 l 63 602 l 63 722 l 218 722 l 218 602"},"ı":{"ha":281,"x_min":66,"x_max":216,"o":"m 216 0 l 66 0 l 66 536 l 216 536 l 216 0"},"í":{"ha":281,"x_min":66,"x_max":277,"o":"m 216 0 l 66 0 l 66 536 l 216 536 l 216 0 m 187 591 l 73 591 l 132 739 l 277 739 l 187 591"},"î":{"ha":281,"x_min":-27,"x_max":309,"o":"m 216 0 l 66 0 l 66 536 l 216 536 l 216 0 m 78 591 l -27 591 l 69 744 l 213 744 l 309 591 l 204 591 l 141 680 l 78 591"},"ï":{"ha":281,"x_min":14,"x_max":268,"o":"m 216 0 l 66 0 l 66 536 l 216 536 l 216 0 m 123 602 l 14 602 l 14 722 l 123 722 l 123 602 m 268 602 l 159 602 l 159 722 l 268 722 l 268 602"},"ị":{"ha":281,"x_min":63,"x_max":218,"o":"m 216 0 l 66 0 l 66 536 l 216 536 l 216 0 m 218 602 l 63 602 l 63 722 l 218 722 l 218 602 m 205 -156 l 76 -156 l 76 -47 l 205 -47 l 205 -156"},"ì":{"ha":281,"x_min":3,"x_max":216,"o":"m 216 0 l 66 0 l 66 536 l 216 536 l 216 0 m 207 591 l 93 591 l 3 738 l 148 738 l 207 591"},"ỉ":{"ha":281,"x_min":54,"x_max":228,"o":"m 216 0 l 66 0 l 66 536 l 216 536 l 216 0 m 184 588 l 94 588 b 145.4 641.7 151.1 680.9 99 687 q 74 687 54 681 l 54 755 b 80.2 775.9 176.1 781.9 228 680 b 229.7 649.3 209.6 610.4 184 588"},"ī":{"ha":281,"x_min":-9,"x_max":290,"o":"m 216 0 l 66 0 l 66 536 l 216 536 l 216 0 m 290 607 l -9 607 l -9 717 l 290 717 l 290 607"},"į":{"ha":281,"x_min":33,"x_max":253,"o":"m 216 0 l 66 0 l 66 536 l 216 536 l 216 0 m 218 602 l 63 602 l 63 722 l 218 722 l 218 602 m 146 -217 b 12.0 -197.6 2.7 -107.6 83 -20 l 116 24 l 216 0 l 186 -40 b 146.1 -89.3 142.9 -122.0 180 -128 q 207 -128 225 -115 l 253 -191 b 243.1 -202.0 197.8 -215.3 146 -217"},"ĩ":{"ha":281,"x_min":-31,"x_max":311,"o":"m 216 0 l 66 0 l 66 536 l 216 536 l 216 0 m 197 600 b 142.2 607.8 103.5 641.3 82 648 b 67.3 652.4 49.0 638.5 44 595 l -31 595 b 0.2 760.3 124.1 766.4 199 689 b 214.6 684.4 232.5 699.0 237 744 l 311 744 b 317.2 678.4 277.7 607.5 197 600"},"ĳ":{"ha":585,"x_min":63,"x_max":522,"o":"m 216 0 l 66 0 l 66 536 l 216 536 l 216 0 m 218 602 l 63 602 l 63 722 l 218 722 l 218 602 m 340 -150 l 250 -150 l 250 -38 l 310 -38 b 338.7 -43.2 366.8 -28.2 369 22 l 369 536 l 519 536 l 519 18 b 532.8 -70.7 480.4 -146.8 340 -150 m 522 602 l 367 602 l 367 722 l 522 722 l 522 602"},"j":{"ha":331,"x_min":-3,"x_max":268,"o":"m 87 -150 l -3 -150 l -3 -38 l 57 -38 b 85.7 -43.2 113.8 -28.2 116 22 l 116 536 l 266 536 l 266 18 b 279.8 -70.7 227.4 -146.8 87 -150 m 268 602 l 113 602 l 113 722 l 268 722 l 268 602"},"ȷ":{"ha":331,"x_min":-3,"x_max":266,"o":"m 87 -150 l -3 -150 l -3 -38 l 57 -38 b 85.7 -43.2 113.8 -28.2 116 22 l 116 536 l 266 536 l 266 18 b 279.8 -70.7 227.4 -146.8 87 -150"},"ĵ":{"ha":331,"x_min":-3,"x_max":359,"o":"m 87 -150 l -3 -150 l -3 -38 l 57 -38 b 85.7 -43.2 113.8 -28.2 116 22 l 116 536 l 266 536 l 266 18 b 279.8 -70.7 227.4 -146.8 87 -150 m 128 591 l 23 591 l 119 744 l 263 744 l 359 591 l 254 591 l 191 680 l 128 591"},"k":{"ha":647,"x_min":66,"x_max":601,"o":"m 216 0 l 66 0 l 66 710 l 216 710 l 216 316 l 415 536 l 595 536 l 387 315 l 601 0 l 437 0 l 290 230 l 216 151 l 216 0"},"ǩ":{"ha":647,"x_min":-27,"x_max":601,"o":"m 216 0 l 66 0 l 66 710 l 216 710 l 216 316 l 415 536 l 595 536 l 387 315 l 601 0 l 437 0 l 290 230 l 216 151 l 216 0 m 69 743 l -27 896 l 78 896 l 141 807 l 204 896 l 309 896 l 213 743 l 69 743"},"ķ":{"ha":647,"x_min":66,"x_max":601,"o":"m 216 0 l 66 0 l 66 710 l 216 710 l 216 316 l 415 536 l 595 536 l 387 315 l 601 0 l 437 0 l 290 230 l 216 151 l 216 0 m 323 -253 l 235 -253 l 287 -165 l 252 -165 l 252 -49 l 382 -49 l 382 -154 l 323 -253"},"l":{"ha":313,"x_min":66,"x_max":295,"o":"m 295 0 l 206 0 b 140.5 -10.4 72.5 31.8 66 140 l 66 710 l 216 710 l 216 156 b 213.2 132.4 227.8 112.7 259 112 l 295 112 l 295 0"},"ĺ":{"ha":313,"x_min":66,"x_max":295,"o":"m 295 0 l 206 0 b 140.5 -10.4 72.5 31.8 66 140 l 66 710 l 216 710 l 216 156 b 213.2 132.4 227.8 112.7 259 112 l 295 112 l 295 0 m 187 743 l 73 743 l 132 891 l 277 891 l 187 743"},"ľ":{"ha":390,"x_min":66,"x_max":422,"o":"m 295 0 l 206 0 b 140.5 -10.4 72.5 31.8 66 140 l 66 710 l 216 710 l 216 156 b 213.2 132.4 227.8 112.7 259 112 l 295 112 l 295 0 m 368 424 l 264 424 l 293 710 l 422 710 l 368 424"},"ļ":{"ha":313,"x_min":66,"x_max":295,"o":"m 295 0 l 206 0 b 140.5 -10.4 72.5 31.8 66 140 l 66 710 l 216 710 l 216 156 b 213.2 132.4 227.8 112.7 259 112 l 295 112 l 295 0 m 190 -253 l 102 -253 l 154 -165 l 119 -165 l 119 -49 l 249 -49 l 249 -154 l 190 -253"},"ł":{"ha":313,"x_min":2,"x_max":306,"o":"m 295 0 l 206 0 b 140.5 -10.4 72.5 31.8 66 140 l 66 710 l 216 710 l 216 156 b 213.2 132.4 227.8 112.7 259 112 l 295 112 l 295 0 m 306 401 l 2 281 l 2 379 l 306 499 l 306 401"},"m":{"ha":900,"x_min":66,"x_max":834,"o":"m 216 0 l 66 0 l 66 536 l 201 536 l 204 449 b 273.3 577.2 406.2 589.7 503 439 b 568.1 594.1 733.1 613.4 834 345 l 834 0 l 684 0 l 684 303 b 642.7 480.5 539.9 464.4 517 301 l 517 0 l 382 0 l 382 301 b 365.9 465.2 261.1 480.3 216 301 l 216 0"},"n":{"ha":611,"x_min":66,"x_max":545,"o":"m 216 0 l 66 0 l 66 536 l 201 536 l 204 447 b 277.4 595.6 447.9 610.9 545 345 l 545 0 l 395 0 l 395 295 b 381.8 466.5 267.6 482.9 216 295 l 216 0"},"ń":{"ha":611,"x_min":66,"x_max":545,"o":"m 216 0 l 66 0 l 66 536 l 201 536 l 204 447 b 277.4 595.6 447.9 610.9 545 345 l 545 0 l 395 0 l 395 295 b 381.8 466.5 267.6 482.9 216 295 l 216 0 m 351 591 l 237 591 l 296 739 l 441 739 l 351 591"},"ň":{"ha":611,"x_min":66,"x_max":545,"o":"m 216 0 l 66 0 l 66 536 l 201 536 l 204 447 b 277.4 595.6 447.9 610.9 545 345 l 545 0 l 395 0 l 395 295 b 381.8 466.5 267.6 482.9 216 295 l 216 0 m 233 591 l 137 744 l 242 744 l 305 655 l 368 744 l 473 744 l 377 591 l 233 591"},"ņ":{"ha":611,"x_min":66,"x_max":545,"o":"m 216 0 l 66 0 l 66 536 l 201 536 l 204 447 b 277.4 595.6 447.9 610.9 545 345 l 545 0 l 395 0 l 395 295 b 381.8 466.5 267.6 482.9 216 295 l 216 0 m 311 -253 l 223 -253 l 275 -165 l 240 -165 l 240 -49 l 370 -49 l 370 -154 l 311 -253"},"ñ":{"ha":611,"x_min":66,"x_max":545,"o":"m 216 0 l 66 0 l 66 536 l 201 536 l 204 447 b 277.4 595.6 447.9 610.9 545 345 l 545 0 l 395 0 l 395 295 b 381.8 466.5 267.6 482.9 216 295 l 216 0 m 362 600 b 307.2 607.8 268.5 641.3 247 648 b 232.3 652.4 214.0 638.5 209 595 l 134 595 b 165.2 760.3 289.1 766.4 364 689 b 379.6 684.4 397.5 699.0 402 744 l 476 744 b 482.2 678.4 442.7 607.5 362 600"},"ŋ":{"ha":611,"x_min":66,"x_max":545,"o":"m 216 0 l 66 0 l 66 536 l 201 536 l 204 447 b 277.4 595.6 447.9 610.9 545 345 l 545 -3 b 555.3 -65.9 495.0 -140.5 377 -150 l 276 -150 l 276 -48 l 336 -48 b 363.8 -51.4 392.3 -30.6 395 9 l 395 295 b 381.8 466.5 267.6 482.9 216 295 l 216 0"},"o":{"ha":618,"x_min":37,"x_max":581,"o":"m 309 -12 b 89.8 -0.8 -9.3 150.5 71 415.5 b 184.2 584.7 389.2 601.1 547.5 415.5 b 633.2 201.7 563.9 26.7 309 -12 m 309 103 b 459.8 150.8 474.4 347.9 309 433 b 158.2 385.2 143.6 188.1 309 103"},"ó":{"ha":618,"x_min":37,"x_max":581,"o":"m 309 -12 b 89.8 -0.8 -9.3 150.5 71 415.5 b 184.2 584.7 389.2 601.1 547.5 415.5 b 633.2 201.7 563.9 26.7 309 -12 m 309 103 b 459.8 150.8 474.4 347.9 309 433 b 158.2 385.2 143.6 188.1 309 103 m 355 591 l 241 591 l 300 739 l 445 739 l 355 591"},"ô":{"ha":618,"x_min":37,"x_max":581,"o":"m 309 -12 b 89.8 -0.8 -9.3 150.5 71 415.5 b 184.2 584.7 389.2 601.1 547.5 415.5 b 633.2 201.7 563.9 26.7 309 -12 m 309 103 b 459.8 150.8 474.4 347.9 309 433 b 158.2 385.2 143.6 188.1 309 103 m 246 591 l 141 591 l 237 744 l 381 744 l 477 591 l 372 591 l 309 680 l 246 591"},"ố":{"ha":618,"x_min":37,"x_max":604,"o":"m 309 -12 b 89.8 -0.8 -9.3 150.5 71 415.5 b 184.2 584.7 389.2 601.1 547.5 415.5 b 633.2 201.7 563.9 26.7 309 -12 m 309 103 b 459.8 150.8 474.4 347.9 309 433 b 158.2 385.2 143.6 188.1 309 103 m 523 688 l 420 688 l 473 835 l 604 835 l 523 688 m 249 581 l 144 581 l 240 724 l 379 724 l 475 581 l 371 581 l 310 659 l 249 581"},"ộ":{"ha":618,"x_min":37,"x_max":581,"o":"m 309 -12 b 89.8 -0.8 -9.3 150.5 71 415.5 b 184.2 584.7 389.2 601.1 547.5 415.5 b 633.2 201.7 563.9 26.7 309 -12 m 309 103 b 459.8 150.8 474.4 347.9 309 433 b 158.2 385.2 143.6 188.1 309 103 m 374 -156 l 245 -156 l 245 -47 l 374 -47 l 374 -156 m 246 591 l 141 591 l 237 744 l 381 744 l 477 591 l 372 591 l 309 680 l 246 591"},"ồ":{"ha":618,"x_min":37,"x_max":581,"o":"m 309 -12 b 89.8 -0.8 -9.3 150.5 71 415.5 b 184.2 584.7 389.2 601.1 547.5 415.5 b 633.2 201.7 563.9 26.7 309 -12 m 309 103 b 459.8 150.8 474.4 347.9 309 433 b 158.2 385.2 143.6 188.1 309 103 m 574 688 l 471 688 l 390 835 l 521 835 l 574 688 m 249 581 l 144 581 l 240 724 l 379 724 l 475 581 l 371 581 l 310 659 l 249 581"},"ổ":{"ha":618,"x_min":37,"x_max":581,"o":"m 309 -12 b 89.8 -0.8 -9.3 150.5 71 415.5 b 184.2 584.7 389.2 601.1 547.5 415.5 b 633.2 201.7 563.9 26.7 309 -12 m 309 103 b 459.8 150.8 474.4 347.9 309 433 b 158.2 385.2 143.6 188.1 309 103 m 502 685 l 420 685 b 476.1 792.2 419.9 798.3 379 773 l 379 844 b 406.1 862.5 494.9 868.2 542 775 b 543.4 745.1 524.6 706.4 502 685 m 249 581 l 144 581 l 240 724 l 379 724 l 475 581 l 371 581 l 310 659 l 249 581"},"ỗ":{"ha":618,"x_min":37,"x_max":581,"o":"m 309 -12 b 89.8 -0.8 -9.3 150.5 71 415.5 b 184.2 584.7 389.2 601.1 547.5 415.5 b 633.2 201.7 563.9 26.7 309 -12 m 309 103 b 459.8 150.8 474.4 347.9 309 433 b 158.2 385.2 143.6 188.1 309 103 m 365 757 b 316.8 765.0 270.3 803.5 234.5 789.5 q 225 780 223 752 l 150 752 b 180.4 902.5 296.5 907.9 365 838 b 378.6 833.7 393.8 846.2 398 888 l 470 888 b 476.7 827.4 440.0 763.4 365 757 m 247 581 l 142 581 l 240 721 l 380 721 l 478 581 l 373 581 l 310 659 l 247 581"},"ö":{"ha":618,"x_min":37,"x_max":581,"o":"m 309 -12 b 89.8 -0.8 -9.3 150.5 71 415.5 b 184.2 584.7 389.2 601.1 547.5 415.5 b 633.2 201.7 563.9 26.7 309 -12 m 309 103 b 459.8 150.8 474.4 347.9 309 433 b 158.2 385.2 143.6 188.1 309 103 m 273 602 l 130 602 l 130 722 l 273 722 l 273 602 m 488 602 l 345 602 l 345 722 l 488 722 l 488 602"},"ọ":{"ha":618,"x_min":37,"x_max":581,"o":"m 309 -12 b 89.8 -0.8 -9.3 150.5 71 415.5 b 184.2 584.7 389.2 601.1 547.5 415.5 b 633.2 201.7 563.9 26.7 309 -12 m 309 103 b 459.8 150.8 474.4 347.9 309 433 b 158.2 385.2 143.6 188.1 309 103 m 374 -156 l 245 -156 l 245 -47 l 374 -47 l 374 -156"},"ò":{"ha":618,"x_min":37,"x_max":581,"o":"m 309 -12 b 89.8 -0.8 -9.3 150.5 71 415.5 b 184.2 584.7 389.2 601.1 547.5 415.5 b 633.2 201.7 563.9 26.7 309 -12 m 309 103 b 459.8 150.8 474.4 347.9 309 433 b 158.2 385.2 143.6 188.1 309 103 m 376 591 l 262 591 l 172 738 l 317 738 l 376 591"},"ỏ":{"ha":618,"x_min":37,"x_max":581,"o":"m 309 -12 b 89.8 -0.8 -9.3 150.5 71 415.5 b 184.2 584.7 389.2 601.1 547.5 415.5 b 633.2 201.7 563.9 26.7 309 -12 m 309 103 b 459.8 150.8 474.4 347.9 309 433 b 158.2 385.2 143.6 188.1 309 103 m 353 588 l 263 588 b 314.4 641.7 320.1 680.9 268 687 q 243 687 223 681 l 223 755 b 249.2 775.9 345.1 781.9 397 680 b 398.7 649.3 378.6 610.4 353 588"},"ơ":{"ha":618,"x_min":37,"x_max":599,"o":"m 309 -12 b 89.8 -0.8 -9.3 150.5 71 415.5 b 184.2 584.7 389.2 601.1 547.5 415.5 b 633.2 201.7 563.9 26.7 309 -12 m 309 103 b 459.8 150.8 474.4 347.9 309 433 b 158.2 385.2 143.6 188.1 309 103 m 443 469 l 381 469 l 374 536 l 426 536 b 491.9 541.3 495.9 605.5 469 687 l 585 687 b 625.2 638.2 637.5 531.0 443 469"},"ớ":{"ha":618,"x_min":37,"x_max":599,"o":"m 309 -12 b 89.8 -0.8 -9.3 150.5 71 415.5 b 184.2 584.7 389.2 601.1 547.5 415.5 b 633.2 201.7 563.9 26.7 309 -12 m 309 103 b 459.8 150.8 474.4 347.9 309 433 b 158.2 385.2 143.6 188.1 309 103 m 443 469 l 381 469 l 374 536 l 426 536 b 491.9 541.3 495.9 605.5 469 687 l 585 687 b 625.2 638.2 637.5 531.0 443 469 m 339 591 l 225 591 l 284 739 l 429 739 l 339 591"},"ợ":{"ha":618,"x_min":37,"x_max":599,"o":"m 309 -12 b 89.8 -0.8 -9.3 150.5 71 415.5 b 184.2 584.7 389.2 601.1 547.5 415.5 b 633.2 201.7 563.9 26.7 309 -12 m 309 103 b 459.8 150.8 474.4 347.9 309 433 b 158.2 385.2 143.6 188.1 309 103 m 443 469 l 381 469 l 374 536 l 426 536 b 491.9 541.3 495.9 605.5 469 687 l 585 687 b 625.2 638.2 637.5 531.0 443 469 m 374 -156 l 245 -156 l 245 -47 l 374 -47 l 374 -156"},"ờ":{"ha":618,"x_min":37,"x_max":599,"o":"m 309 -12 b 89.8 -0.8 -9.3 150.5 71 415.5 b 184.2 584.7 389.2 601.1 547.5 415.5 b 633.2 201.7 563.9 26.7 309 -12 m 309 103 b 459.8 150.8 474.4 347.9 309 433 b 158.2 385.2 143.6 188.1 309 103 m 443 469 l 381 469 l 374 536 l 426 536 b 491.9 541.3 495.9 605.5 469 687 l 585 687 b 625.2 638.2 637.5 531.0 443 469 m 360 591 l 246 591 l 156 738 l 301 738 l 360 591"},"ở":{"ha":618,"x_min":37,"x_max":599,"o":"m 309 -12 b 89.8 -0.8 -9.3 150.5 71 415.5 b 184.2 584.7 389.2 601.1 547.5 415.5 b 633.2 201.7 563.9 26.7 309 -12 m 309 103 b 459.8 150.8 474.4 347.9 309 433 b 158.2 385.2 143.6 188.1 309 103 m 443 469 l 381 469 l 374 536 l 426 536 b 491.9 541.3 495.9 605.5 469 687 l 585 687 b 625.2 638.2 637.5 531.0 443 469 m 337 588 l 247 588 b 298.4 641.7 304.1 680.9 252 687 q 227 687 207 681 l 207 755 b 233.2 775.9 329.1 781.9 381 680 b 382.7 649.3 362.6 610.4 337 588"},"ỡ":{"ha":618,"x_min":37,"x_max":599,"o":"m 309 -12 b 89.8 -0.8 -9.3 150.5 71 415.5 b 184.2 584.7 389.2 601.1 547.5 415.5 b 633.2 201.7 563.9 26.7 309 -12 m 309 103 b 459.8 150.8 474.4 347.9 309 433 b 158.2 385.2 143.6 188.1 309 103 m 443 469 l 381 469 l 374 536 l 426 536 b 491.9 541.3 495.9 605.5 469 687 l 585 687 b 625.2 638.2 637.5 531.0 443 469 m 350 600 b 295.2 607.8 256.5 641.3 235 648 b 220.3 652.4 202.0 638.5 197 595 l 122 595 b 153.2 760.3 277.1 766.4 352 689 b 367.6 684.4 385.5 699.0 390 744 l 464 744 b 470.2 678.4 430.7 607.5 350 600"},"ő":{"ha":618,"x_min":37,"x_max":581,"o":"m 309 -12 b 89.8 -0.8 -9.3 150.5 71 415.5 b 184.2 584.7 389.2 601.1 547.5 415.5 b 633.2 201.7 563.9 26.7 309 -12 m 309 103 b 459.8 150.8 474.4 347.9 309 433 b 158.2 385.2 143.6 188.1 309 103 m 277 591 l 163 591 l 222 739 l 367 739 l 277 591 m 455 591 l 341 591 l 400 739 l 545 739 l 455 591"},"ō":{"ha":618,"x_min":37,"x_max":581,"o":"m 309 -12 b 89.8 -0.8 -9.3 150.5 71 415.5 b 184.2 584.7 389.2 601.1 547.5 415.5 b 633.2 201.7 563.9 26.7 309 -12 m 309 103 b 459.8 150.8 474.4 347.9 309 433 b 158.2 385.2 143.6 188.1 309 103 m 459 607 l 160 607 l 160 717 l 459 717 l 459 607"},"ø":{"ha":618,"x_min":37,"x_max":581,"o":"m 309 -12 b 89.8 -0.8 -9.3 150.5 71 415.5 b 184.2 584.7 389.2 601.1 547.5 415.5 b 633.2 201.7 563.9 26.7 309 -12 m 309 103 b 459.8 150.8 474.4 347.9 309 433 b 158.2 385.2 143.6 188.1 309 103 m 157 -14 l 62 -14 l 461 550 l 556 550 l 157 -14"},"õ":{"ha":618,"x_min":37,"x_max":581,"o":"m 309 -12 b 89.8 -0.8 -9.3 150.5 71 415.5 b 184.2 584.7 389.2 601.1 547.5 415.5 b 633.2 201.7 563.9 26.7 309 -12 m 309 103 b 459.8 150.8 474.4 347.9 309 433 b 158.2 385.2 143.6 188.1 309 103 m 366 600 b 311.2 607.8 272.5 641.3 251 648 b 236.3 652.4 218.0 638.5 213 595 l 138 595 b 169.2 760.3 293.1 766.4 368 689 b 383.6 684.4 401.5 699.0 406 744 l 480 744 b 486.2 678.4 446.7 607.5 366 600"},"œ":{"ha":998,"x_min":37,"x_max":961,"o":"m 309 -12 b 89.8 -0.8 -9.3 150.5 71 415.5 b 184.2 584.7 389.2 601.1 547.5 415.5 b 633.2 201.7 563.9 26.7 309 -12 m 309 103 b 459.8 150.8 474.4 347.9 309 433 b 158.2 385.2 143.6 188.1 309 103 m 699 -12 b 480.7 0.3 383.2 150.9 462 415 b 574.2 585.3 777.3 602.0 928.5 413 q 961 348 961 258 l 961 228 l 584 228 b 579.6 121.7 653.4 61.6 802 167 l 953 158 b 944.0 78.6 847.5 -4.1 699 -12 m 584 320 l 807 320 b 770.5 471.0 651.3 484.1 584 320"},"p":{"ha":634,"x_min":66,"x_max":597,"o":"m 216 -150 l 66 -150 l 66 536 l 210 536 l 212 456 b 283.2 581.5 437.4 594.8 572 410.5 b 639.8 207.3 588.9 34.3 370 -12 b 323.3 -17.4 254.3 13.3 216 75 l 216 -150 m 329 103 b 474.3 151.7 488.6 346.9 329 433 b 184.8 388.2 170.6 185.3 329 103"},"þ":{"ha":624,"x_min":66,"x_max":587,"o":"m 218 -150 l 66 -150 l 66 710 l 218 710 l 218 490 b 266.9 576.8 413.2 588.8 560 410.5 b 631.8 207.3 577.5 34.3 351 -12 b 311.4 -15.6 254.1 5.2 218 46 l 218 -150 m 320 114 b 417.2 125.0 451.2 210.4 420.5 346.5 b 378.1 446.3 282.5 456.3 220 345.5 b 187.0 236.5 210.5 142.7 320 114"},"q":{"ha":634,"x_min":37,"x_max":568,"o":"m 568 536 l 568 -150 l 418 -150 l 418 75 b 349.4 -44.3 198.6 -58.0 62.5 125.5 b -5.8 328.7 44.0 501.7 263 548 b 312.3 554.1 381.7 522.9 422 456 l 424 536 l 568 536 m 305 103 b 449.6 147.8 463.3 350.7 305 433 b 159.7 384.3 145.4 189.1 305 103"},"r":{"ha":425,"x_min":66,"x_max":388,"o":"m 216 0 l 66 0 l 66 536 l 208 536 l 212 429 b 221.1 484.3 266.4 533.4 339 536 l 388 536 l 388 412 l 339 412 b 276.8 420.4 219.6 387.3 216 301 l 216 0"},"ŕ":{"ha":425,"x_min":66,"x_max":388,"o":"m 216 0 l 66 0 l 66 536 l 208 536 l 212 429 b 221.1 484.3 266.4 533.4 339 536 l 388 536 l 388 412 l 339 412 b 276.8 420.4 219.6 387.3 216 301 l 216 0 m 277 591 l 163 591 l 222 739 l 367 739 l 277 591"},"ř":{"ha":425,"x_min":63,"x_max":399,"o":"m 216 0 l 66 0 l 66 536 l 208 536 l 212 429 b 221.1 484.3 266.4 533.4 339 536 l 388 536 l 388 412 l 339 412 b 276.8 420.4 219.6 387.3 216 301 l 216 0 m 159 591 l 63 744 l 168 744 l 231 655 l 294 744 l 399 744 l 303 591 l 159 591"},"ŗ":{"ha":425,"x_min":59,"x_max":388,"o":"m 216 0 l 66 0 l 66 536 l 208 536 l 212 429 b 221.1 484.3 266.4 533.4 339 536 l 388 536 l 388 412 l 339 412 b 276.8 420.4 219.6 387.3 216 301 l 216 0 m 147 -253 l 59 -253 l 111 -165 l 76 -165 l 76 -49 l 206 -49 l 206 -154 l 147 -253"},"s":{"ha":570,"x_min":37,"x_max":533,"o":"m 295 -12 b 167.6 -22.1 51.3 46.9 37 169 l 189 174 b 226.8 71.4 382.9 73.6 370 176 b 352.3 191.7 205.4 213.5 72.5 298.5 b -8.0 433.3 131.7 582.0 424 524 b 474.8 507.1 524.3 444.3 533 364 l 383 358 b 355.5 460.3 247.2 470.1 208 382 b 208.5 331.2 368.6 310.0 510.5 229 b 575.6 183.3 558.4 43.3 295 -12"},"ś":{"ha":570,"x_min":37,"x_max":533,"o":"m 295 -12 b 167.6 -22.1 51.3 46.9 37 169 l 189 174 b 226.8 71.4 382.9 73.6 370 176 b 352.3 191.7 205.4 213.5 72.5 298.5 b -8.0 433.3 131.7 582.0 424 524 b 474.8 507.1 524.3 444.3 533 364 l 383 358 b 355.5 460.3 247.2 470.1 208 382 b 208.5 331.2 368.6 310.0 510.5 229 b 575.6 183.3 558.4 43.3 295 -12 m 333 591 l 219 591 l 278 739 l 423 739 l 333 591"},"š":{"ha":570,"x_min":37,"x_max":533,"o":"m 295 -12 b 167.6 -22.1 51.3 46.9 37 169 l 189 174 b 226.8 71.4 382.9 73.6 370 176 b 352.3 191.7 205.4 213.5 72.5 298.5 b -8.0 433.3 131.7 582.0 424 524 b 474.8 507.1 524.3 444.3 533 364 l 383 358 b 355.5 460.3 247.2 470.1 208 382 b 208.5 331.2 368.6 310.0 510.5 229 b 575.6 183.3 558.4 43.3 295 -12 m 215 591 l 119 744 l 224 744 l 287 655 l 350 744 l 455 744 l 359 591 l 215 591"},"ş":{"ha":570,"x_min":37,"x_max":533,"o":"m 295 -12 b 167.6 -22.1 51.3 46.9 37 169 l 189 174 b 226.8 71.4 382.9 73.6 370 176 b 352.3 191.7 205.4 213.5 72.5 298.5 b -8.0 433.3 131.7 582.0 424 524 b 474.8 507.1 524.3 444.3 533 364 l 383 358 b 355.5 460.3 247.2 470.1 208 382 b 208.5 331.2 368.6 310.0 510.5 229 b 575.6 183.3 558.4 43.3 295 -12 m 286 -232 b 238.3 -236.8 181.1 -205.8 158 -149 l 224 -121 b 251.0 -169.7 307.5 -173.8 331 -123 b 336.8 -105.1 321.3 -86.0 266 -84 l 225 -45 l 258 10 l 344 10 l 317 -31 b 446.6 -66.6 457.1 -179.0 286 -232"},"ŝ":{"ha":570,"x_min":37,"x_max":533,"o":"m 295 -12 b 167.6 -22.1 51.3 46.9 37 169 l 189 174 b 226.8 71.4 382.9 73.6 370 176 b 352.3 191.7 205.4 213.5 72.5 298.5 b -8.0 433.3 131.7 582.0 424 524 b 474.8 507.1 524.3 444.3 533 364 l 383 358 b 355.5 460.3 247.2 470.1 208 382 b 208.5 331.2 368.6 310.0 510.5 229 b 575.6 183.3 558.4 43.3 295 -12 m 224 591 l 119 591 l 215 744 l 359 744 l 455 591 l 350 591 l 287 680 l 224 591"},"ș":{"ha":570,"x_min":37,"x_max":533,"o":"m 295 -12 b 167.6 -22.1 51.3 46.9 37 169 l 189 174 b 226.8 71.4 382.9 73.6 370 176 b 352.3 191.7 205.4 213.5 72.5 298.5 b -8.0 433.3 131.7 582.0 424 524 b 474.8 507.1 524.3 444.3 533 364 l 383 358 b 355.5 460.3 247.2 470.1 208 382 b 208.5 331.2 368.6 310.0 510.5 229 b 575.6 183.3 558.4 43.3 295 -12 m 298 -253 l 210 -253 l 262 -165 l 227 -165 l 227 -49 l 357 -49 l 357 -154 l 298 -253"},"ß":{"ha":656,"x_min":66,"x_max":624,"o":"m 216 0 l 66 0 l 66 463 b 146.8 781.5 457.6 808.2 580 528 b 587.5 473.6 543.3 405.0 457 376 b 687.6 304.0 716.5 104.9 345 0 l 279 0 l 279 126 l 343 126 b 487.0 130.2 523.2 262.9 336 309 l 288 309 l 288 431 l 329 431 b 455.4 455.7 468.4 551.5 334 594 b 279.4 602.1 221.7 555.2 216 463 l 216 0"},"t":{"ha":445,"x_min":41,"x_max":418,"o":"m 418 0 l 288 0 b 206.0 -11.6 131.5 38.8 127 161 l 127 424 l 41 424 l 41 536 l 127 536 l 127 662 l 277 662 l 277 536 l 418 536 l 418 424 l 277 424 l 277 179 b 272.5 140.7 294.3 112.0 343 112 l 418 112 l 418 0"},"ŧ":{"ha":445,"x_min":41,"x_max":418,"o":"m 127 239 l 46 239 l 46 326 l 127 326 l 127 424 l 41 424 l 41 536 l 127 536 l 127 662 l 277 662 l 277 536 l 418 536 l 418 424 l 277 424 l 277 326 l 402 326 l 402 239 l 277 239 l 277 179 b 272.5 140.7 294.3 112.0 343 112 l 418 112 l 418 0 l 288 0 b 206.0 -11.6 131.5 38.8 127 161 l 127 239"},"ť":{"ha":450,"x_min":41,"x_max":472,"o":"m 418 558 l 323 558 l 352 794 l 472 794 l 418 558 m 418 0 l 288 0 b 206.0 -11.6 131.5 38.8 127 161 l 127 424 l 41 424 l 41 536 l 127 536 l 127 662 l 277 662 l 277 536 l 418 536 l 418 424 l 277 424 l 277 179 b 272.5 140.7 294.3 112.0 343 112 l 418 112 l 418 0"},"ţ":{"ha":445,"x_min":41,"x_max":418,"o":"m 418 0 l 288 0 b 206.0 -11.6 131.5 38.8 127 161 l 127 424 l 41 424 l 41 536 l 127 536 l 127 662 l 277 662 l 277 536 l 418 536 l 418 424 l 277 424 l 277 179 b 272.5 140.7 294.3 112.0 343 112 l 418 112 l 418 0 m 256 -232 b 208.3 -236.8 151.1 -205.8 128 -149 l 194 -121 b 221.0 -169.7 277.5 -173.8 301 -123 b 306.8 -105.1 291.3 -86.0 236 -84 l 195 -45 l 228 10 l 314 10 l 287 -31 b 416.6 -66.6 427.1 -179.0 256 -232"},"ț":{"ha":445,"x_min":41,"x_max":418,"o":"m 418 0 l 288 0 b 206.0 -11.6 131.5 38.8 127 161 l 127 424 l 41 424 l 41 536 l 127 536 l 127 662 l 277 662 l 277 536 l 418 536 l 418 424 l 277 424 l 277 179 b 272.5 140.7 294.3 112.0 343 112 l 418 112 l 418 0 m 268 -253 l 180 -253 l 232 -165 l 197 -165 l 197 -49 l 327 -49 l 327 -154 l 268 -253"},"u":{"ha":607,"x_min":66,"x_max":542,"o":"m 242 -12 b 159.6 -24.8 74.1 46.7 66 191 l 66 536 l 216 536 l 216 226 b 232.4 70.4 338.9 57.0 392 233 l 392 536 l 542 536 l 542 0 l 405 0 l 403 87 q 362 -12 242 -12"},"ú":{"ha":607,"x_min":66,"x_max":542,"o":"m 242 -12 b 159.6 -24.8 74.1 46.7 66 191 l 66 536 l 216 536 l 216 226 b 232.4 70.4 338.9 57.0 392 233 l 392 536 l 542 536 l 542 0 l 405 0 l 403 87 q 362 -12 242 -12 m 347 591 l 233 591 l 292 739 l 437 739 l 347 591"},"ŭ":{"ha":607,"x_min":66,"x_max":542,"o":"m 242 -12 b 159.6 -24.8 74.1 46.7 66 191 l 66 536 l 216 536 l 216 226 b 232.4 70.4 338.9 57.0 392 233 l 392 536 l 542 536 l 542 0 l 405 0 l 403 87 q 362 -12 242 -12 m 302 592 b 232.9 582.7 156.9 634.0 145 739 l 232 739 b 256.7 654.2 332.6 647.1 371 739 l 458 739 b 464.1 669.6 406.9 598.5 302 592"},"û":{"ha":607,"x_min":66,"x_max":542,"o":"m 242 -12 b 159.6 -24.8 74.1 46.7 66 191 l 66 536 l 216 536 l 216 226 b 232.4 70.4 338.9 57.0 392 233 l 392 536 l 542 536 l 542 0 l 405 0 l 403 87 q 362 -12 242 -12 m 238 591 l 133 591 l 229 744 l 373 744 l 469 591 l 364 591 l 301 680 l 238 591"},"ü":{"ha":607,"x_min":66,"x_max":542,"o":"m 242 -12 b 159.6 -24.8 74.1 46.7 66 191 l 66 536 l 216 536 l 216 226 b 232.4 70.4 338.9 57.0 392 233 l 392 536 l 542 536 l 542 0 l 405 0 l 403 87 q 362 -12 242 -12 m 266 602 l 123 602 l 123 722 l 266 722 l 266 602 m 481 602 l 338 602 l 338 722 l 481 722 l 481 602"},"ụ":{"ha":607,"x_min":66,"x_max":542,"o":"m 242 -12 b 159.6 -24.8 74.1 46.7 66 191 l 66 536 l 216 536 l 216 226 b 232.4 70.4 338.9 57.0 392 233 l 392 536 l 542 536 l 542 0 l 405 0 l 403 87 q 362 -12 242 -12 m 366 -156 l 237 -156 l 237 -47 l 366 -47 l 366 -156"},"ù":{"ha":607,"x_min":66,"x_max":542,"o":"m 242 -12 b 159.6 -24.8 74.1 46.7 66 191 l 66 536 l 216 536 l 216 226 b 232.4 70.4 338.9 57.0 392 233 l 392 536 l 542 536 l 542 0 l 405 0 l 403 87 q 362 -12 242 -12 m 368 591 l 254 591 l 164 738 l 309 738 l 368 591"},"ủ":{"ha":607,"x_min":66,"x_max":542,"o":"m 242 -12 b 159.6 -24.8 74.1 46.7 66 191 l 66 536 l 216 536 l 216 226 b 232.4 70.4 338.9 57.0 392 233 l 392 536 l 542 536 l 542 0 l 405 0 l 403 87 q 362 -12 242 -12 m 345 588 l 255 588 b 306.4 641.7 312.1 680.9 260 687 q 235 687 215 681 l 215 755 b 241.2 775.9 337.1 781.9 389 680 b 390.7 649.3 370.6 610.4 345 588"},"ư":{"ha":618,"x_min":66,"x_max":628,"o":"m 242 -12 b 159.6 -24.8 74.1 46.7 66 191 l 66 536 l 216 536 l 216 226 b 232.4 70.4 338.9 57.0 392 233 l 392 536 l 542 536 l 542 0 l 405 0 l 403 87 q 362 -12 242 -12 m 472 469 l 410 469 l 403 536 l 455 536 b 520.9 541.3 524.9 605.5 498 687 l 614 687 b 654.2 638.2 666.5 531.0 472 469"},"ứ":{"ha":618,"x_min":66,"x_max":628,"o":"m 242 -12 b 159.6 -24.8 74.1 46.7 66 191 l 66 536 l 216 536 l 216 226 b 232.4 70.4 338.9 57.0 392 233 l 392 536 l 542 536 l 542 0 l 405 0 l 403 87 q 362 -12 242 -12 m 472 469 l 410 469 l 403 536 l 455 536 b 520.9 541.3 524.9 605.5 498 687 l 614 687 b 654.2 638.2 666.5 531.0 472 469 m 341 591 l 227 591 l 286 739 l 431 739 l 341 591"},"ự":{"ha":618,"x_min":66,"x_max":628,"o":"m 242 -12 b 159.6 -24.8 74.1 46.7 66 191 l 66 536 l 216 536 l 216 226 b 232.4 70.4 338.9 57.0 392 233 l 392 536 l 542 536 l 542 0 l 405 0 l 403 87 q 362 -12 242 -12 m 472 469 l 410 469 l 403 536 l 455 536 b 520.9 541.3 524.9 605.5 498 687 l 614 687 b 654.2 638.2 666.5 531.0 472 469 m 366 -156 l 237 -156 l 237 -47 l 366 -47 l 366 -156"},"ừ":{"ha":618,"x_min":66,"x_max":628,"o":"m 242 -12 b 159.6 -24.8 74.1 46.7 66 191 l 66 536 l 216 536 l 216 226 b 232.4 70.4 338.9 57.0 392 233 l 392 536 l 542 536 l 542 0 l 405 0 l 403 87 q 362 -12 242 -12 m 472 469 l 410 469 l 403 536 l 455 536 b 520.9 541.3 524.9 605.5 498 687 l 614 687 b 654.2 638.2 666.5 531.0 472 469 m 362 591 l 248 591 l 158 738 l 303 738 l 362 591"},"ử":{"ha":618,"x_min":66,"x_max":628,"o":"m 242 -12 b 159.6 -24.8 74.1 46.7 66 191 l 66 536 l 216 536 l 216 226 b 232.4 70.4 338.9 57.0 392 233 l 392 536 l 542 536 l 542 0 l 405 0 l 403 87 q 362 -12 242 -12 m 472 469 l 410 469 l 403 536 l 455 536 b 520.9 541.3 524.9 605.5 498 687 l 614 687 b 654.2 638.2 666.5 531.0 472 469 m 339 588 l 249 588 b 300.4 641.7 306.1 680.9 254 687 q 229 687 209 681 l 209 755 b 235.2 775.9 331.1 781.9 383 680 b 384.7 649.3 364.6 610.4 339 588"},"ữ":{"ha":618,"x_min":66,"x_max":628,"o":"m 242 -12 b 159.6 -24.8 74.1 46.7 66 191 l 66 536 l 216 536 l 216 226 b 232.4 70.4 338.9 57.0 392 233 l 392 536 l 542 536 l 542 0 l 405 0 l 403 87 q 362 -12 242 -12 m 472 469 l 410 469 l 403 536 l 455 536 b 520.9 541.3 524.9 605.5 498 687 l 614 687 b 654.2 638.2 666.5 531.0 472 469 m 352 600 b 297.2 607.8 258.5 641.3 237 648 b 222.3 652.4 204.0 638.5 199 595 l 124 595 b 155.2 760.3 279.1 766.4 354 689 b 369.6 684.4 387.5 699.0 392 744 l 466 744 b 472.2 678.4 432.7 607.5 352 600"},"ű":{"ha":607,"x_min":66,"x_max":542,"o":"m 242 -12 b 159.6 -24.8 74.1 46.7 66 191 l 66 536 l 216 536 l 216 226 b 232.4 70.4 338.9 57.0 392 233 l 392 536 l 542 536 l 542 0 l 405 0 l 403 87 q 362 -12 242 -12 m 270 591 l 156 591 l 215 739 l 360 739 l 270 591 m 447 591 l 333 591 l 392 739 l 537 739 l 447 591"},"ū":{"ha":607,"x_min":66,"x_max":542,"o":"m 242 -12 b 159.6 -24.8 74.1 46.7 66 191 l 66 536 l 216 536 l 216 226 b 232.4 70.4 338.9 57.0 392 233 l 392 536 l 542 536 l 542 0 l 405 0 l 403 87 q 362 -12 242 -12 m 451 607 l 152 607 l 152 717 l 451 717 l 451 607"},"ų":{"ha":607,"x_min":66,"x_max":579,"o":"m 242 -12 b 159.6 -24.8 74.1 46.7 66 191 l 66 536 l 216 536 l 216 226 b 232.4 70.4 338.9 57.0 392 233 l 392 536 l 542 536 l 542 0 l 405 0 l 403 87 q 362 -12 242 -12 m 472 -217 b 338.0 -197.6 328.7 -107.6 409 -20 l 442 24 l 542 0 l 512 -40 b 472.1 -89.3 468.9 -122.0 506 -128 q 533 -128 551 -115 l 579 -191 b 569.1 -202.0 523.8 -215.3 472 -217"},"ů":{"ha":607,"x_min":66,"x_max":542,"o":"m 242 -12 b 159.6 -24.8 74.1 46.7 66 191 l 66 536 l 216 536 l 216 226 b 232.4 70.4 338.9 57.0 392 233 l 392 536 l 542 536 l 542 0 l 405 0 l 403 87 q 362 -12 242 -12 m 302 575 b 172.4 608.7 158.6 721.2 302 778 b 430.1 744.2 443.9 631.4 302 575 m 302 639 b 348.6 651.0 353.6 693.3 302 714 b 253.9 701.9 248.9 659.3 302 639"},"ũ":{"ha":608,"x_min":66,"x_max":542,"o":"m 242 -12 b 159.6 -24.8 74.1 46.7 66 191 l 66 536 l 216 536 l 216 226 b 232.4 70.4 338.9 57.0 392 233 l 392 536 l 542 536 l 542 0 l 405 0 l 403 87 q 362 -12 242 -12 m 352 600 b 297.2 607.8 258.5 641.3 237 648 b 222.3 652.4 204.0 638.5 199 595 l 124 595 b 155.2 760.3 279.1 766.4 354 689 b 369.6 684.4 387.5 699.0 392 744 l 466 744 b 472.2 678.4 432.7 607.5 352 600"},"v":{"ha":609,"x_min":21,"x_max":588,"o":"m 391 0 l 217 0 l 21 536 l 178 536 l 305 151 l 431 536 l 588 536 l 391 0"},"w":{"ha":849,"x_min":21,"x_max":828,"o":"m 325 0 l 180 0 l 21 536 l 172 536 l 264 173 l 363 536 l 485 536 l 584 173 l 677 536 l 828 536 l 669 0 l 523 0 l 424 335 l 325 0"},"ẃ":{"ha":849,"x_min":21,"x_max":828,"o":"m 325 0 l 180 0 l 21 536 l 172 536 l 264 173 l 363 536 l 485 536 l 584 173 l 677 536 l 828 536 l 669 0 l 523 0 l 424 335 l 325 0 m 471 591 l 357 591 l 416 739 l 561 739 l 471 591"},"ŵ":{"ha":849,"x_min":21,"x_max":828,"o":"m 325 0 l 180 0 l 21 536 l 172 536 l 264 173 l 363 536 l 485 536 l 584 173 l 677 536 l 828 536 l 669 0 l 523 0 l 424 335 l 325 0 m 362 591 l 257 591 l 353 744 l 497 744 l 593 591 l 488 591 l 425 680 l 362 591"},"ẅ":{"ha":849,"x_min":21,"x_max":828,"o":"m 325 0 l 180 0 l 21 536 l 172 536 l 264 173 l 363 536 l 485 536 l 584 173 l 677 536 l 828 536 l 669 0 l 523 0 l 424 335 l 325 0 m 389 602 l 246 602 l 246 722 l 389 722 l 389 602 m 604 602 l 461 602 l 461 722 l 604 722 l 604 602"},"ẁ":{"ha":849,"x_min":21,"x_max":828,"o":"m 325 0 l 180 0 l 21 536 l 172 536 l 264 173 l 363 536 l 485 536 l 584 173 l 677 536 l 828 536 l 669 0 l 523 0 l 424 335 l 325 0 m 491 591 l 377 591 l 287 738 l 432 738 l 491 591"},"x":{"ha":650,"x_min":46,"x_max":604,"o":"m 208 0 l 46 0 l 237 272 l 51 536 l 210 536 l 325 364 l 436 536 l 599 536 l 414 271 l 604 0 l 445 0 l 327 182 l 208 0"},"y":{"ha":586,"x_min":21,"x_max":565,"o":"m 212 -150 l 110 -150 l 110 -38 l 181 -38 b 205.4 -40.7 227.9 -31.0 239 -4 l 250 27 l 209 27 l 21 536 l 174 536 l 297 167 l 412 536 l 565 536 l 359 -51 b 349.8 -103.2 300.5 -148.1 212 -150"},"ý":{"ha":586,"x_min":21,"x_max":565,"o":"m 212 -150 l 110 -150 l 110 -38 l 181 -38 b 205.4 -40.7 227.9 -31.0 239 -4 l 250 27 l 209 27 l 21 536 l 174 536 l 297 167 l 412 536 l 565 536 l 359 -51 b 349.8 -103.2 300.5 -148.1 212 -150 m 340 591 l 226 591 l 285 739 l 430 739 l 340 591"},"ŷ":{"ha":586,"x_min":21,"x_max":565,"o":"m 212 -150 l 110 -150 l 110 -38 l 181 -38 b 205.4 -40.7 227.9 -31.0 239 -4 l 250 27 l 209 27 l 21 536 l 174 536 l 297 167 l 412 536 l 565 536 l 359 -51 b 349.8 -103.2 300.5 -148.1 212 -150 m 231 591 l 126 591 l 222 744 l 366 744 l 462 591 l 357 591 l 294 680 l 231 591"},"ÿ":{"ha":586,"x_min":21,"x_max":565,"o":"m 212 -150 l 110 -150 l 110 -38 l 181 -38 b 205.4 -40.7 227.9 -31.0 239 -4 l 250 27 l 209 27 l 21 536 l 174 536 l 297 167 l 412 536 l 565 536 l 359 -51 b 349.8 -103.2 300.5 -148.1 212 -150 m 258 602 l 115 602 l 115 722 l 258 722 l 258 602 m 473 602 l 330 602 l 330 722 l 473 722 l 473 602"},"ỵ":{"ha":586,"x_min":21,"x_max":565,"o":"m 212 -150 l 110 -150 l 110 -38 l 181 -38 b 205.4 -40.7 227.9 -31.0 239 -4 l 250 27 l 209 27 l 21 536 l 174 536 l 297 167 l 412 536 l 565 536 l 359 -51 b 349.8 -103.2 300.5 -148.1 212 -150 m 525 -150 l 396 -150 l 396 -41 l 525 -41 l 525 -150"},"ỳ":{"ha":586,"x_min":21,"x_max":565,"o":"m 212 -150 l 110 -150 l 110 -38 l 181 -38 b 205.4 -40.7 227.9 -31.0 239 -4 l 250 27 l 209 27 l 21 536 l 174 536 l 297 167 l 412 536 l 565 536 l 359 -51 b 349.8 -103.2 300.5 -148.1 212 -150 m 361 591 l 247 591 l 157 738 l 302 738 l 361 591"},"ỷ":{"ha":586,"x_min":21,"x_max":565,"o":"m 212 -150 l 110 -150 l 110 -38 l 181 -38 b 205.4 -40.7 227.9 -31.0 239 -4 l 250 27 l 209 27 l 21 536 l 174 536 l 297 167 l 412 536 l 565 536 l 359 -51 b 349.8 -103.2 300.5 -148.1 212 -150 m 338 588 l 248 588 b 299.4 641.7 305.1 680.9 253 687 q 228 687 208 681 l 208 755 b 234.2 775.9 330.1 781.9 382 680 b 383.7 649.3 363.6 610.4 338 588"},"ỹ":{"ha":586,"x_min":21,"x_max":565,"o":"m 212 -150 l 110 -150 l 110 -38 l 181 -38 b 205.4 -40.7 227.9 -31.0 239 -4 l 250 27 l 209 27 l 21 536 l 174 536 l 297 167 l 412 536 l 565 536 l 359 -51 b 349.8 -103.2 300.5 -148.1 212 -150 m 351 600 b 296.2 607.8 257.5 641.3 236 648 b 221.3 652.4 203.0 638.5 198 595 l 123 595 b 154.2 760.3 278.1 766.4 353 689 b 368.6 684.4 386.5 699.0 391 744 l 465 744 b 471.2 678.4 431.7 607.5 351 600"},"z":{"ha":583,"x_min":50,"x_max":533,"o":"m 533 0 l 50 0 l 50 118 l 345 424 l 62 424 l 62 536 l 525 536 l 525 418 l 225 112 l 533 112 l 533 0"},"ź":{"ha":583,"x_min":50,"x_max":533,"o":"m 533 0 l 50 0 l 50 118 l 345 424 l 62 424 l 62 536 l 525 536 l 525 418 l 225 112 l 533 112 l 533 0 m 341 591 l 227 591 l 286 739 l 431 739 l 341 591"},"ž":{"ha":583,"x_min":50,"x_max":533,"o":"m 533 0 l 50 0 l 50 118 l 345 424 l 62 424 l 62 536 l 525 536 l 525 418 l 225 112 l 533 112 l 533 0 m 223 591 l 127 744 l 232 744 l 295 655 l 358 744 l 463 744 l 367 591 l 223 591"},"ż":{"ha":583,"x_min":50,"x_max":533,"o":"m 533 0 l 50 0 l 50 118 l 345 424 l 62 424 l 62 536 l 525 536 l 525 418 l 225 112 l 533 112 l 533 0 m 372 602 l 217 602 l 217 722 l 372 722 l 372 602"},"ꞌ":{"ha":266,"x_min":66,"x_max":200,"o":"m 187 350 l 79 350 l 66 610 l 66 710 l 200 710 l 200 610 l 187 350"},"ﬁ":{"ha":702,"x_min":46,"x_max":639,"o":"m 274 0 l 124 0 l 124 424 l 46 424 l 46 536 l 124 536 l 124 543 b 111.7 621.4 168.2 702.4 300 710 l 415 710 l 415 598 l 333 598 b 302.4 602.2 275.4 581.7 274 536 l 407 536 l 407 424 l 274 424 l 274 0 m 637 0 l 487 0 l 487 536 l 637 536 l 637 0 m 639 602 l 484 602 l 484 722 l 639 722 l 639 602"},"ﬂ":{"ha":744,"x_min":46,"x_max":726,"o":"m 274 0 l 124 0 l 124 424 l 46 424 l 46 536 l 124 536 l 124 543 b 111.7 621.4 168.2 702.4 300 710 l 415 710 l 415 598 l 333 598 b 302.4 602.2 275.4 581.7 274 536 l 407 536 l 407 424 l 274 424 l 274 0 m 726 0 l 637 0 b 571.5 -10.4 503.5 31.8 497 140 l 497 710 l 647 710 l 647 156 b 644.2 132.4 658.8 112.7 690 112 l 726 112 l 726 0"},"ª":{"ha":432,"x_min":40,"x_max":402,"o":"m 165 376 b 7.3 399.1 -9.0 509.7 158 572 l 262 593 b 267.7 644.0 238.1 675.2 159 608 l 46 612 b 144.4 776.7 339.2 761.4 375 585 l 375 477 b 373.8 462.3 380.5 451.8 394 452 l 402 452 l 402 380 b 377.0 366.5 322.5 367.0 282 429 l 281 435 b 275.2 408.2 232.7 379.1 165 376 m 192 445 b 221.9 440.6 257.5 464.6 262 514 l 262 530 l 197 515 b 151.7 504.6 140.5 459.6 192 445"},"º":{"ha":446,"x_min":40,"x_max":406,"o":"m 223 376 b -10.2 429.3 -33.1 632.2 223 726 b 456.2 671.7 479.1 468.9 223 376 m 223 456 b 330.0 604.3 282.7 678.5 173 621 b 145.8 602.7 137.6 507.0 223 456"},"А":{"ha":730,"x_min":19,"x_max":711,"o":"m 176 0 l 19 0 l 275 710 l 455 710 l 711 0 l 553 0 l 501 151 l 228 151 l 176 0 m 365 550 l 271 276 l 459 276 l 365 550"},"Б":{"ha":678,"x_min":74,"x_max":627,"o":"m 358 0 l 74 0 l 74 710 l 553 710 l 553 582 l 226 582 l 226 451 l 358 451 b 702.0 384.6 735.1 117.2 358 0 m 226 324 l 226 128 l 349 128 b 505.8 153.6 520.4 274.6 349 324 l 226 324"},"В":{"ha":703,"x_min":74,"x_max":652,"o":"m 384 0 l 74 0 l 74 710 l 350 710 b 678.7 655.8 703.3 444.6 475 367 b 716.8 311.9 743.9 99.6 384 0 m 226 586 l 226 416 l 346 416 b 502.2 438.8 518.3 545.7 346 586 l 226 586 m 226 306 l 226 124 l 377 124 b 531.3 146.3 547.4 259.6 377 306 l 226 306"},"Г":{"ha":557,"x_min":74,"x_max":546,"o":"m 226 0 l 74 0 l 74 710 l 546 710 l 546 582 l 226 582 l 226 0"},"Ѓ":{"ha":557,"x_min":74,"x_max":546,"o":"m 226 0 l 74 0 l 74 710 l 546 710 l 546 582 l 226 582 l 226 0 m 352 765 l 238 765 l 297 913 l 442 913 l 352 765"},"Ґ":{"ha":557,"x_min":74,"x_max":546,"o":"m 226 0 l 74 0 l 74 710 l 394 710 l 394 865 l 546 865 l 546 582 l 226 582 l 226 0"},"Ғ":{"ha":617,"x_min":34,"x_max":606,"o":"m 286 0 l 134 0 l 134 280 l 34 280 l 34 396 l 134 396 l 134 710 l 606 710 l 606 582 l 286 582 l 286 396 l 474 396 l 474 280 l 286 280 l 286 0"},"Д":{"ha":822,"x_min":34,"x_max":778,"o":"m 187 -150 l 34 -150 l 34 128 l 122 128 b 140.1 140.9 164.1 189.1 175 263 l 227 710 l 696 710 l 696 128 l 778 128 l 778 -150 l 625 -150 l 625 0 l 187 0 l 187 -150 m 274 128 l 543 128 l 543 582 l 354 582 l 314 252 b 310.9 210.0 295.5 157.1 274 128"},"Е":{"ha":622,"x_min":74,"x_max":576,"o":"m 576 0 l 74 0 l 74 710 l 568 710 l 568 582 l 226 582 l 226 419 l 556 419 l 556 293 l 226 293 l 226 128 l 576 128 l 576 0"},"Ѐ":{"ha":622,"x_min":74,"x_max":576,"o":"m 576 0 l 74 0 l 74 710 l 568 710 l 568 582 l 226 582 l 226 419 l 556 419 l 556 293 l 226 293 l 226 128 l 576 128 l 576 0 m 395 765 l 281 765 l 191 912 l 336 912 l 395 765"},"Ё":{"ha":622,"x_min":74,"x_max":576,"o":"m 576 0 l 74 0 l 74 710 l 568 710 l 568 582 l 226 582 l 226 419 l 556 419 l 556 293 l 226 293 l 226 128 l 576 128 l 576 0 m 286 776 l 143 776 l 143 896 l 286 896 l 286 776 m 501 776 l 358 776 l 358 896 l 501 896 l 501 776"},"Ж":{"ha":1013,"x_min":12,"x_max":1001,"o":"m 189 0 l 12 0 l 288 355 l 22 710 l 199 710 l 430 384 l 430 710 l 583 710 l 583 384 l 814 710 l 991 710 l 725 355 l 1001 0 l 824 0 l 583 327 l 583 0 l 430 0 l 430 327 l 189 0"},"З":{"ha":657,"x_min":34,"x_max":613,"o":"m 328 -16 b 196.0 -28.6 71.3 35.6 34 208 l 189 214 b 235.8 72.1 466.4 75.7 426 283.5 q 395 306 340 306 l 236 306 l 236 418 l 340 418 b 490.9 433.3 506.1 543.6 325 598 b 255.8 604.0 195.8 569.8 187 502 l 34 509 b 50.7 681.1 201.6 762.7 483 698.5 b 649.0 605.7 664.4 454.5 474 364 b 649.7 307.8 667.1 146.3 483.5 12.5 q 420 -16 328 -16"},"И":{"ha":750,"x_min":74,"x_max":676,"o":"m 676 710 l 676 0 l 524 0 l 524 473 l 244 0 l 74 0 l 74 710 l 226 710 l 226 220 l 509 710 l 676 710"},"Й":{"ha":750,"x_min":74,"x_max":676,"o":"m 676 710 l 676 0 l 524 0 l 524 473 l 244 0 l 74 0 l 74 710 l 226 710 l 226 220 l 509 710 l 676 710 m 367 766 b 294.6 755.7 212.3 803.1 193 913 l 307 913 b 327.4 817.8 394.0 809.9 427 913 l 541 913 b 541.9 838.9 478.7 770.4 367 766"},"Ѝ":{"ha":748,"x_min":72,"x_max":674,"o":"m 434 765 l 319 765 l 229 912 l 375 912 l 434 765 m 674 710 l 674 0 l 522 0 l 522 473 l 242 0 l 72 0 l 72 710 l 224 710 l 224 220 l 507 710 l 674 710"},"К":{"ha":689,"x_min":74,"x_max":677,"o":"m 226 0 l 74 0 l 74 710 l 226 710 l 226 381 l 486 710 l 667 710 l 373 355 l 677 0 l 496 0 l 226 330 l 226 0"},"Ќ":{"ha":689,"x_min":74,"x_max":677,"o":"m 226 0 l 74 0 l 74 710 l 226 710 l 226 381 l 486 710 l 667 710 l 373 355 l 677 0 l 496 0 l 226 330 l 226 0 m 401 765 l 287 765 l 346 913 l 491 913 l 401 765"},"Л":{"ha":739,"x_min":49,"x_max":665,"o":"m 106 0 l 49 0 l 49 132 l 75 132 b 98.2 126.0 124.2 142.2 132 199 l 184 710 l 665 710 l 665 0 l 513 0 l 513 582 l 311 582 l 273 196 b 274.0 84.5 235.4 6.1 106 0"},"М":{"ha":915,"x_min":74,"x_max":841,"o":"m 226 0 l 74 0 l 74 710 l 277 710 l 458 193 l 638 710 l 841 710 l 841 0 l 689 0 l 689 460 l 522 2 l 392 2 l 226 460 l 226 0"},"Н":{"ha":721,"x_min":74,"x_max":647,"o":"m 226 0 l 74 0 l 74 710 l 226 710 l 226 421 l 495 421 l 495 710 l 647 710 l 647 0 l 495 0 l 495 293 l 226 293 l 226 0"},"О":{"ha":776,"x_min":42,"x_max":734,"o":"m 388 -16 b 104.2 -2.9 -17.0 196.1 83.5 551.5 b 224.5 774.9 493.9 796.2 692.5 551.5 b 800.1 264.4 715.2 33.0 388 -16 m 388 112 b 629.3 181.1 652.8 471.4 388 598 b 146.7 526.7 123.3 236.0 388 112"},"П":{"ha":721,"x_min":74,"x_max":647,"o":"m 226 0 l 74 0 l 74 710 l 647 710 l 647 0 l 495 0 l 495 582 l 226 582 l 226 0"},"Р":{"ha":672,"x_min":74,"x_max":631,"o":"m 226 0 l 74 0 l 74 710 l 358 710 b 706.3 641.4 740.3 367.4 358 245 l 226 245 l 226 0 m 226 582 l 226 373 l 349 373 b 510.2 401.2 525.6 531.2 349 582 l 226 582"},"С":{"ha":734,"x_min":42,"x_max":697,"o":"m 375 -16 b 110.9 -4.9 -14.1 194.2 83.5 550.5 b 219.4 789.2 513.1 816.7 694 462 l 536 456 b 480.0 653.8 294.7 677.0 199 354 b 255.4 60.2 451.3 35.0 538 265 l 697 259 b 694.1 130.0 581.5 -3.4 375 -16"},"Т":{"ha":621,"x_min":0,"x_max":578,"o":"m 365 0 l 212 0 l 212 582 l 0 582 l 0 710 l 578 710 l 578 582 l 365 582 l 365 0"},"У":{"ha":683,"x_min":19,"x_max":664,"o":"m 259 0 l 120 0 l 120 128 l 221 128 b 243.4 125.2 267.6 134.7 281 163 l 301 212 l 248 212 l 19 710 l 176 710 l 348 324 l 508 710 l 664 710 l 404 100 b 391.4 48.7 342.8 2.6 259 0"},"Ў":{"ha":683,"x_min":19,"x_max":664,"o":"m 259 0 l 120 0 l 120 128 l 221 128 b 243.4 125.2 267.6 134.7 281 163 l 301 212 l 248 212 l 19 710 l 176 710 l 348 324 l 508 710 l 664 710 l 404 100 b 391.4 48.7 342.8 2.6 259 0 m 340 766 b 267.6 755.7 185.3 803.1 166 913 l 280 913 b 300.4 817.8 367.0 809.9 400 913 l 514 913 b 514.9 838.9 451.7 770.4 340 766"},"Ф":{"ha":898,"x_min":42,"x_max":856,"o":"m 521 -16 l 378 -16 l 378 73 b 85.4 89.8 -15.6 243.2 76.5 499.5 b 94.3 562.6 201.5 630.1 378 637 l 378 726 l 521 726 l 521 637 b 813.2 620.2 913.6 466.8 821.5 210.5 b 803.5 147.4 696.3 79.9 521 73 l 521 -16 m 199 355 b 183.6 285.7 220.5 218.0 378 201 l 378 509 b 277.0 517.9 205.5 474.0 199 355 m 521 509 l 521 201 b 682.4 207.3 730.8 291.1 683.5 436 b 676.6 470.7 620.8 505.9 521 509"},"Х":{"ha":688,"x_min":12,"x_max":676,"o":"m 189 0 l 12 0 l 253 356 l 14 710 l 190 710 l 345 471 l 496 710 l 673 710 l 434 358 l 676 0 l 499 0 l 343 243 l 189 0"},"Ц":{"ha":780,"x_min":74,"x_max":736,"o":"m 736 -150 l 584 -150 l 584 0 l 74 0 l 74 710 l 226 710 l 226 128 l 495 128 l 495 710 l 647 710 l 647 128 l 736 128 l 736 -150"},"Ч":{"ha":712,"x_min":51,"x_max":638,"o":"m 638 0 l 486 0 l 486 275 b 404.9 192.2 189.2 172.5 51 440 l 51 710 l 203 710 l 203 466 b 224.4 335.7 369.1 329.8 486 414 l 486 710 l 638 710 l 638 0"},"Ш":{"ha":990,"x_min":74,"x_max":916,"o":"m 916 0 l 74 0 l 74 710 l 226 710 l 226 128 l 419 128 l 419 710 l 571 710 l 571 128 l 764 128 l 764 710 l 916 710 l 916 0"},"Щ":{"ha":1049,"x_min":74,"x_max":1005,"o":"m 852 0 l 74 0 l 74 710 l 226 710 l 226 128 l 419 128 l 419 710 l 571 710 l 571 128 l 764 128 l 764 710 l 916 710 l 916 128 l 1005 128 l 1005 -150 l 852 -150 l 852 0"},"Џ":{"ha":721,"x_min":74,"x_max":647,"o":"m 291 0 l 74 0 l 74 710 l 226 710 l 226 128 l 495 128 l 495 710 l 647 710 l 647 0 l 431 0 l 431 -150 l 291 -150 l 291 0"},"Ь":{"ha":682,"x_min":74,"x_max":631,"o":"m 74 0 l 74 710 l 226 710 l 226 485 l 358 485 b 706.3 414.6 740.3 123.2 358 0 l 74 0 m 349 357 l 226 357 l 226 128 l 349 128 b 510.2 155.8 525.6 301.8 349 357"},"Ы":{"ha":920,"x_min":74,"x_max":846,"o":"m 74 0 l 74 710 l 226 710 l 226 485 l 358 485 b 706.3 414.6 740.3 123.2 358 0 l 74 0 m 349 357 l 226 357 l 226 128 l 349 128 b 510.2 155.8 525.6 301.8 349 357 m 846 0 l 694 0 l 694 710 l 846 710 l 846 0"},"Ъ":{"ha":806,"x_min":34,"x_max":765,"o":"m 492 0 l 208 0 l 208 582 l 34 582 l 34 710 l 360 710 l 360 485 l 492 485 b 840.3 414.6 874.3 123.2 492 0 m 360 357 l 360 128 l 483 128 b 644.2 155.8 659.6 301.8 483 357 l 360 357"},"Љ":{"ha":1128,"x_min":49,"x_max":1077,"o":"m 106 0 l 49 0 l 49 132 l 75 132 b 98.2 126.0 124.2 142.2 132 199 l 184 710 l 665 710 l 665 485 l 804 485 b 1152.3 414.6 1186.3 123.2 804 0 l 513 0 l 513 582 l 311 582 l 273 196 b 274.0 84.5 235.4 6.1 106 0 m 795 357 l 665 357 l 665 128 l 795 128 b 956.2 155.8 971.6 301.8 795 357"},"Њ":{"ha":1103,"x_min":74,"x_max":1052,"o":"m 226 0 l 74 0 l 74 710 l 226 710 l 226 421 l 495 421 l 495 710 l 647 710 l 647 452 l 790 452 b 1030.5 475.7 1176.9 335.3 790 0 l 495 0 l 495 293 l 226 293 l 226 0 m 781 324 l 647 324 l 647 128 l 781 128 b 931.1 145.8 943.4 279.3 781 324"},"Ѕ":{"ha":681,"x_min":52,"x_max":629,"o":"m 355 -16 b 219.3 -30.9 76.0 60.5 52 234 l 205 241 b 260.9 81.1 420.2 68.0 476 192 b 496.2 245.8 424.5 281.2 171.5 347 b 31.5 419.9 19.4 569.7 189 699 b 397.6 771.0 569.7 706.7 618 486 l 466 478 b 416.8 626.4 272.3 639.8 219 517 b 200.9 463.2 265.5 435.2 523 367.5 b 665.0 283.9 676.7 137.9 500.5 10 q 439 -16 355 -16"},"Є":{"ha":749,"x_min":42,"x_max":713,"o":"m 381 -16 b 106.7 0.5 -15.7 201.1 84 550.5 b 219.3 790.1 514.4 817.5 710 457 l 551 451 b 486.4 645.3 310.2 664.8 202 415 l 472 415 l 472 295 l 202 295 b 272.3 65.3 452.5 43.6 554 266 l 713 259 b 708.0 128.1 589.1 -4.3 381 -16"},"Э":{"ha":749,"x_min":36,"x_max":707,"o":"m 367 -16 b 233.6 -33.6 82.6 61.6 36 259 l 195 266 b 260.2 61.1 438.9 43.4 547 295 l 276 295 l 276 415 l 546 415 b 475.2 642.3 297.9 663.6 197 451 l 39 457 b 165.1 785.9 474.1 813.0 665 550.5 b 772.2 268.2 685.6 37.3 367 -16"},"І":{"ha":300,"x_min":74,"x_max":226,"o":"m 226 0 l 74 0 l 74 710 l 226 710 l 226 0"},"Ї":{"ha":300,"x_min":23,"x_max":277,"o":"m 226 0 l 74 0 l 74 710 l 226 710 l 226 0 m 132 776 l 23 776 l 23 896 l 132 896 l 132 776 m 277 776 l 168 776 l 168 896 l 277 896 l 277 776"},"Ј":{"ha":627,"x_min":49,"x_max":568,"o":"m 309 -16 b 185.8 -30.0 75.7 49.8 49 253 l 202 260 b 234.0 69.2 361.2 52.7 416 255 l 416 710 l 568 710 l 568 255 b 582.4 131.0 508.4 14.0 309 -16"},"Ћ":{"ha":842,"x_min":11,"x_max":791,"o":"m 355 0 l 203 0 l 203 582 l 11 582 l 11 710 l 589 710 l 589 582 l 355 582 l 355 416 b 438.3 499.7 654.1 519.5 791 252 l 791 0 l 639 0 l 639 228 b 618.7 356.1 473.2 361.6 355 278 l 355 0"},"Ю":{"ha":1008,"x_min":74,"x_max":966,"o":"m 226 0 l 74 0 l 74 710 l 226 710 l 226 421 l 319 421 b 437.6 788.6 747.9 819.2 927.5 551.5 b 1028.1 264.4 950.0 33.0 640 -16 b 504.2 -34.9 353.1 75.0 318 291 l 318 293 l 226 293 l 226 0 m 640 112 b 857.9 181.1 878.5 471.4 640 598 b 423.6 526.7 403.0 236.0 640 112"},"Я":{"ha":689,"x_min":51,"x_max":615,"o":"m 215 0 l 51 0 l 202 266 b -9.4 351.2 -35.2 592.7 333 710 l 615 710 l 615 0 l 463 0 l 463 247 l 350 247 l 215 0 m 334 375 l 463 375 l 463 582 l 334 582 b 173.7 555.6 157.8 425.2 334 375"},"Ђ":{"ha":842,"x_min":11,"x_max":791,"o":"m 521 -16 b 500.3 -16.1 467.7 -14.7 451 -13 l 451 115 b 557.6 82.3 666.3 136.0 608.5 303.5 b 557.1 348.5 444.3 340.9 355 273 l 355 0 l 203 0 l 203 582 l 11 582 l 11 710 l 589 710 l 589 582 l 355 582 l 355 413 b 439.7 503.6 650.7 522.3 791 225 b 809.7 115.6 722.1 -3.3 521 -16"},"Ѣ":{"ha":790,"x_min":34,"x_max":739,"o":"m 472 0 l 182 0 l 182 548 l 34 548 l 34 658 l 182 658 l 182 726 l 334 726 l 334 658 l 542 658 l 542 548 l 334 548 l 334 461 l 472 461 b 813.9 399.7 846.4 111.7 472 0 m 334 333 l 334 128 l 462 128 b 598.1 133.1 632.2 282.3 462 333 l 334 333"},"Ѫ":{"ha":786,"x_min":12,"x_max":774,"o":"m 161 0 l 12 0 l 112 290 b 124.6 344.3 169.3 392.5 236 395 l 245 395 l 80 582 l 80 710 l 708 710 l 708 582 l 542 395 l 550 395 q 638 395 674 290 l 774 0 l 626 0 l 553 222 b 547.9 247.6 531.0 270.0 495 271 l 466 271 l 466 0 l 321 0 l 321 271 l 292 271 b 266.9 274.8 244.9 260.6 233 222 l 161 0 m 232 582 l 394 400 l 555 582 l 232 582"},"Ѳ":{"ha":776,"x_min":42,"x_max":734,"o":"m 388 -16 b 104.2 -2.9 -17.0 196.1 83.5 551.5 b 224.5 774.9 493.9 796.2 692.5 551.5 b 800.1 264.4 715.2 33.0 388 -16 m 263 448 b 375.0 421.9 470.4 380.1 575 401 b 506.3 646.3 317.0 667.7 208 443 l 207 440 b 217.8 444.0 240.0 447.7 263 448 m 388 112 b 456.2 101.7 538.8 157.0 569 272 b 499.1 253.0 395.3 288.2 262 324 q 233 324 201 311 b 199.1 216.8 266.2 120.7 388 112"},"Ѵ":{"ha":758,"x_min":19,"x_max":749,"o":"m 454 0 l 276 0 l 19 710 l 176 710 l 365 172 l 508 579 b 522.8 655.0 585.1 722.4 696 726 l 749 726 l 749 598 l 716 598 b 693.1 602.4 665.9 584.2 648 538 l 454 0"},"Җ":{"ha":1039,"x_min":12,"x_max":1032,"o":"m 189 0 l 12 0 l 288 355 l 22 710 l 199 710 l 430 384 l 430 710 l 583 710 l 583 384 l 814 710 l 991 710 l 725 355 l 901 128 l 1032 128 l 1032 -150 l 880 -150 l 880 0 l 824 0 l 583 327 l 583 0 l 430 0 l 430 327 l 189 0"},"Қ":{"ha":719,"x_min":74,"x_max":707,"o":"m 226 0 l 74 0 l 74 710 l 226 710 l 226 381 l 486 710 l 667 710 l 373 355 l 568 128 l 707 128 l 707 -150 l 554 -150 l 554 0 l 496 0 l 226 330 l 226 0"},"Ң":{"ha":793,"x_min":74,"x_max":739,"o":"m 226 0 l 74 0 l 74 710 l 226 710 l 226 421 l 495 421 l 495 710 l 647 710 l 647 128 l 739 128 l 739 -150 l 586 -150 l 586 0 l 495 0 l 495 293 l 226 293 l 226 0"},"Ү":{"ha":631,"x_min":-7,"x_max":638,"o":"m 392 0 l 240 0 l 240 276 l -7 710 l 161 710 l 316 424 l 470 710 l 638 710 l 392 276 l 392 0"},"Ұ":{"ha":631,"x_min":-7,"x_max":638,"o":"m 240 189 l 78 189 l 78 309 l 221 309 l -7 710 l 161 710 l 316 424 l 470 710 l 638 710 l 411 309 l 554 309 l 554 189 l 392 189 l 392 0 l 240 0 l 240 189"},"Ҳ":{"ha":722,"x_min":12,"x_max":710,"o":"m 189 0 l 12 0 l 253 356 l 14 710 l 190 710 l 345 471 l 496 710 l 673 710 l 434 358 l 589 128 l 710 128 l 710 -150 l 558 -150 l 558 0 l 499 0 l 343 243 l 189 0"},"Ҷ":{"ha":778,"x_min":51,"x_max":734,"o":"m 581 0 l 486 0 l 486 275 b 404.9 192.2 189.2 172.5 51 440 l 51 710 l 203 710 l 203 466 b 224.4 335.7 369.1 329.8 486 414 l 486 710 l 638 710 l 638 128 l 734 128 l 734 -150 l 581 -150 l 581 0"},"Һ":{"ha":712,"x_min":74,"x_max":661,"o":"m 74 710 l 226 710 l 226 435 b 307.1 517.8 522.8 537.5 661 270 l 661 0 l 509 0 l 509 244 b 487.6 374.3 344.0 380.2 226 296 l 226 0 l 74 0 l 74 710"},"Ӏ":{"ha":300,"x_min":74,"x_max":226,"o":"m 226 0 l 74 0 l 74 710 l 226 710 l 226 0"},"Ә":{"ha":757,"x_min":42,"x_max":715,"o":"m 715 355 b 683.2 46.4 487.0 -73.2 246.5 7 b 157.1 22.6 67.3 121.3 42 348 l 42 404 l 557 404 b 480.2 638.2 318.4 656.4 222 492 l 62 501 b 198.4 778.6 472.6 804.4 671.5 556 q 715 473 715 355 m 555 283 l 556 285 l 205 285 b 269.6 60.8 446.4 42.5 555 283"},"Ӣ":{"ha":750,"x_min":74,"x_max":676,"o":"m 676 710 l 676 0 l 524 0 l 524 473 l 244 0 l 74 0 l 74 710 l 226 710 l 226 220 l 509 710 l 676 710 m 519 781 l 220 781 l 220 891 l 519 891 l 519 781"},"Ө":{"ha":776,"x_min":42,"x_max":734,"o":"m 388 -16 b 104.2 -2.9 -17.0 196.1 83.5 551.5 b 224.5 774.9 493.9 796.2 692.5 551.5 b 800.1 264.4 715.2 33.0 388 -16 m 203 420 l 203 416 l 573 416 b 502.7 648.3 311.8 670.3 203 420 m 388 112 b 461.8 100.4 547.9 163.7 573 294 l 203 294 b 204.6 207.7 271.9 119.9 388 112"},"Ӯ":{"ha":683,"x_min":19,"x_max":664,"o":"m 259 0 l 120 0 l 120 128 l 221 128 b 243.4 125.2 267.6 134.7 281 163 l 301 212 l 248 212 l 19 710 l 176 710 l 348 324 l 508 710 l 664 710 l 404 100 b 391.4 48.7 342.8 2.6 259 0 m 492 781 l 193 781 l 193 891 l 492 891 l 492 781"},"а":{"ha":594,"x_min":37,"x_max":581,"o":"m 225 -12 b -11.2 27.0 -36.4 200.4 213 300 l 386 334 b 382.4 447.6 254.7 475.2 197 362 l 46 369 b 138.2 606.4 418.8 630.5 536 324 l 536 141 b 534.0 118.5 543.9 102.6 566 103 l 581 103 l 581 0 b 563.0 -19.8 497.8 -27.3 412 77 l 410 82 b 399.4 39.3 329.8 -7.1 225 -12 m 261 91 b 316.7 83.5 379.0 127.7 386 214 l 386 240 l 264 214 b 182.4 198.6 162.0 117.4 261 91"},"б":{"ha":618,"x_min":42,"x_max":576,"o":"m 310 -12 b -3.7 71.7 -21.9 405.1 113.5 571.5 b 250.1 658.4 402.1 680.5 398 710 l 543 710 b 549.6 596.9 461.7 552.9 261.5 528.5 b 224.2 519.4 190.7 474.2 184 398 l 184 395 b 252.1 505.2 401.3 518.2 546 366 b 626.3 283.1 607.8 73.0 310 -12 m 311 103 b 452.0 135.1 466.1 298.9 312 363 b 168.2 326.8 152.6 164.5 311 103"},"в":{"ha":619,"x_min":66,"x_max":563,"o":"m 364 0 l 66 0 l 66 536 l 342 536 b 587.1 490.7 599.9 342.4 435 277 b 611.9 226.4 632.0 72.9 364 0 m 216 428 l 216 317 l 317 317 b 407.0 333.8 414.7 399.8 321 428 l 216 428 m 216 227 l 216 108 l 341 108 b 438.7 136.9 430.2 209.7 337 227 l 216 227"},"г":{"ha":472,"x_min":66,"x_max":465,"o":"m 216 0 l 66 0 l 66 536 l 465 536 l 465 422 l 216 422 l 216 0"},"ѓ":{"ha":472,"x_min":66,"x_max":465,"o":"m 216 0 l 66 0 l 66 536 l 465 536 l 465 422 l 216 422 l 216 0 m 315 591 l 201 591 l 260 739 l 405 739 l 315 591"},"ґ":{"ha":472,"x_min":66,"x_max":465,"o":"m 216 0 l 66 0 l 66 536 l 314 536 l 314 640 l 465 640 l 465 422 l 216 422 l 216 0"},"ғ":{"ha":550,"x_min":26,"x_max":513,"o":"m 264 0 l 114 0 l 114 189 l 26 189 l 26 302 l 114 302 l 114 536 l 513 536 l 513 422 l 264 422 l 264 302 l 416 302 l 416 189 l 264 189 l 264 0"},"д":{"ha":666,"x_min":24,"x_max":642,"o":"m 172 -104 l 24 -104 l 24 114 l 94 114 b 111.0 122.7 137.0 174.6 150 269 l 177 536 l 570 536 l 570 114 l 642 114 l 642 -104 l 494 -104 l 494 0 l 172 0 l 172 -104 m 302 422 l 284 257 b 281.0 209.6 262.7 149.2 239 114 l 423 114 l 423 422 l 302 422"},"е":{"ha":605,"x_min":37,"x_max":569,"o":"m 307 -12 b 88.7 0.3 -8.8 150.9 70 415 b 182.2 585.3 385.3 602.0 536.5 413 q 569 348 569 258 l 569 228 l 192 228 b 187.6 121.7 261.4 61.6 410 167 l 561 158 b 552.0 78.6 455.5 -4.1 307 -12 m 192 320 l 415 320 b 378.5 471.0 259.3 484.1 192 320"},"ѐ":{"ha":605,"x_min":37,"x_max":569,"o":"m 307 -12 b 88.7 0.3 -8.8 150.9 70 415 b 182.2 585.3 385.3 602.0 536.5 413 q 569 348 569 258 l 569 228 l 192 228 b 187.6 121.7 261.4 61.6 410 167 l 561 158 b 552.0 78.6 455.5 -4.1 307 -12 m 192 320 l 415 320 b 378.5 471.0 259.3 484.1 192 320 m 376 589 l 262 589 l 172 736 l 317 736 l 376 589"},"ё":{"ha":605,"x_min":37,"x_max":569,"o":"m 307 -12 b 88.7 0.3 -8.8 150.9 70 415 b 182.2 585.3 385.3 602.0 536.5 413 q 569 348 569 258 l 569 228 l 192 228 b 187.6 121.7 261.4 61.6 410 167 l 561 158 b 552.0 78.6 455.5 -4.1 307 -12 m 192 320 l 415 320 b 378.5 471.0 259.3 484.1 192 320 m 273 600 l 130 600 l 130 720 l 273 720 l 273 600 m 488 600 l 345 600 l 345 720 l 488 720 l 488 600"},"ж":{"ha":993,"x_min":46,"x_max":947,"o":"m 421 246 l 219 0 l 46 0 l 276 264 l 52 536 l 225 536 l 421 284 l 421 536 l 571 536 l 571 284 l 768 536 l 941 536 l 717 264 l 947 0 l 774 0 l 571 246 l 571 0 l 421 0 l 421 246"},"з":{"ha":559,"x_min":34,"x_max":525,"o":"m 278 -12 b 171.4 -23.3 57.7 40.2 34 168 l 186 172 b 212.6 73.5 375.9 75.7 351.5 210 q 332 227 292 227 l 208 227 l 208 320 l 293 320 b 410.9 406.5 355.1 454.9 210.5 422.5 q 191 409 188 385 l 36 390 b 111.1 591.4 404.8 610.0 518 391 b 525.6 344.2 487.8 295.9 405 278 b 579.0 232.3 601.7 78.0 278 -12"},"и":{"ha":604,"x_min":66,"x_max":538,"o":"m 207 0 l 66 0 l 66 536 l 216 536 l 216 230 l 397 536 l 538 536 l 538 0 l 388 0 l 388 306 l 207 0"},"й":{"ha":604,"x_min":66,"x_max":538,"o":"m 207 0 l 66 0 l 66 536 l 216 536 l 216 230 l 397 536 l 538 536 l 538 0 l 388 0 l 388 306 l 207 0 m 300 592 b 227.6 581.7 145.3 629.1 126 739 l 240 739 b 260.4 643.8 327.0 635.9 360 739 l 474 739 b 474.9 664.9 411.7 596.4 300 592"},"ѝ":{"ha":604,"x_min":66,"x_max":538,"o":"m 207 0 l 66 0 l 66 536 l 216 536 l 216 230 l 397 536 l 538 536 l 538 0 l 388 0 l 388 306 l 207 0 m 368 591 l 254 591 l 164 738 l 309 738 l 368 591"},"к":{"ha":650,"x_min":66,"x_max":604,"o":"m 216 0 l 66 0 l 66 536 l 216 536 l 216 283 l 421 536 l 598 536 l 366 265 l 604 0 l 427 0 l 216 247 l 216 0"},"ќ":{"ha":650,"x_min":66,"x_max":604,"o":"m 216 0 l 66 0 l 66 536 l 216 536 l 216 283 l 421 536 l 598 536 l 366 265 l 604 0 l 427 0 l 216 247 l 216 0 m 362 591 l 248 591 l 307 739 l 452 739 l 362 591"},"л":{"ha":642,"x_min":46,"x_max":576,"o":"m 112 -4 l 46 -4 l 46 112 l 68 112 b 87.3 108.1 105.9 119.4 111 157 l 151 536 l 576 536 l 576 0 l 426 0 l 426 422 l 272 422 l 242 128 b 243.7 61.8 206.5 0.1 112 -4"},"м":{"ha":736,"x_min":66,"x_max":670,"o":"m 213 0 l 66 0 l 66 536 l 234 536 l 368 178 l 502 536 l 670 536 l 670 0 l 523 0 l 523 291 l 418 0 l 318 0 l 213 291 l 213 0"},"н":{"ha":614,"x_min":66,"x_max":548,"o":"m 216 0 l 66 0 l 66 537 l 216 537 l 216 342 l 398 342 l 398 536 l 548 536 l 548 0 l 398 0 l 398 228 l 216 228 l 216 0"},"о":{"ha":618,"x_min":37,"x_max":581,"o":"m 309 -12 b 89.8 -0.8 -9.3 150.5 71 415.5 b 184.2 584.7 389.2 601.1 547.5 415.5 b 633.2 201.7 563.9 26.7 309 -12 m 309 103 b 459.8 150.8 474.4 347.9 309 433 b 158.2 385.2 143.6 188.1 309 103"},"п":{"ha":614,"x_min":66,"x_max":548,"o":"m 216 0 l 66 0 l 66 536 l 548 536 l 548 0 l 398 0 l 398 422 l 216 422 l 216 0"},"р":{"ha":634,"x_min":66,"x_max":597,"o":"m 216 -150 l 66 -150 l 66 536 l 210 536 l 212 456 b 283.2 581.5 437.4 594.8 572 410.5 b 639.8 207.3 588.9 34.3 370 -12 b 323.3 -17.4 254.3 13.3 216 75 l 216 -150 m 329 103 b 474.3 151.7 488.6 346.9 329 433 b 184.8 388.2 170.6 185.3 329 103"},"с":{"ha":598,"x_min":37,"x_max":571,"o":"m 309 -12 b 88.8 0.3 -9.3 150.9 70.5 415 b 187.1 579.1 381.4 593.5 528 451 q 563 404 571 338 l 416 331 b 376.4 471.2 253.6 486.7 191 268 b 226.7 66.6 354.5 49.2 416 210 l 571 204 b 574.4 105.2 497.3 11.5 309 -12"},"т":{"ha":580,"x_min":37,"x_max":543,"o":"m 365 0 l 215 0 l 215 422 l 37 422 l 37 536 l 543 536 l 543 422 l 365 422 l 365 0"},"у":{"ha":586,"x_min":21,"x_max":565,"o":"m 212 -150 l 110 -150 l 110 -38 l 181 -38 b 205.4 -40.7 227.9 -31.0 239 -4 l 250 27 l 209 27 l 21 536 l 174 536 l 297 167 l 412 536 l 565 536 l 359 -51 b 349.8 -103.2 300.5 -148.1 212 -150"},"ў":{"ha":586,"x_min":21,"x_max":565,"o":"m 212 -150 l 110 -150 l 110 -38 l 181 -38 b 205.4 -40.7 227.9 -31.0 239 -4 l 250 27 l 209 27 l 21 536 l 174 536 l 297 167 l 412 536 l 565 536 l 359 -51 b 349.8 -103.2 300.5 -148.1 212 -150 m 291 592 b 218.6 581.7 136.3 629.1 117 739 l 231 739 b 251.4 643.8 318.0 635.9 351 739 l 465 739 b 465.9 664.9 402.7 596.4 291 592"},"ф":{"ha":827,"x_min":37,"x_max":790,"o":"m 481 -150 l 346 -150 l 346 0 b -48.3 66.6 -86.8 408.1 346 536 l 346 710 l 481 710 l 481 536 b 876.2 468.8 914.1 128.4 481 0 l 481 -150 m 346 118 l 346 418 b 147.5 381.8 129.4 190.4 346 118 m 481 418 l 481 118 b 679.5 155.6 697.6 348.0 481 418"},"х":{"ha":650,"x_min":46,"x_max":604,"o":"m 208 0 l 46 0 l 237 272 l 51 536 l 210 536 l 325 364 l 436 536 l 599 536 l 414 271 l 604 0 l 445 0 l 327 182 l 208 0"},"ц":{"ha":650,"x_min":66,"x_max":626,"o":"m 626 -104 l 476 -104 l 476 0 l 66 0 l 66 536 l 216 536 l 216 114 l 398 114 l 398 536 l 548 536 l 548 114 l 626 114 l 626 -104"},"ч":{"ha":636,"x_min":66,"x_max":571,"o":"m 571 0 l 421 0 l 421 184 b 347.4 118.9 175.2 103.3 66 334 l 66 536 l 216 536 l 216 356 b 236.4 251.4 336.3 248.3 421 308 l 421 536 l 571 536 l 571 0"},"ш":{"ha":876,"x_min":66,"x_max":810,"o":"m 810 0 l 66 0 l 66 536 l 216 536 l 216 114 l 363 114 l 363 536 l 513 536 l 513 114 l 660 114 l 660 536 l 810 536 l 810 0"},"щ":{"ha":912,"x_min":66,"x_max":888,"o":"m 738 0 l 66 0 l 66 536 l 216 536 l 216 114 l 363 114 l 363 536 l 513 536 l 513 114 l 660 114 l 660 536 l 810 536 l 810 114 l 888 114 l 888 -104 l 738 -104 l 738 0"},"џ":{"ha":614,"x_min":66,"x_max":548,"o":"m 232 0 l 66 0 l 66 536 l 216 536 l 216 114 l 398 114 l 398 536 l 548 536 l 548 0 l 382 0 l 382 -104 l 232 -104 l 232 0"},"ь":{"ha":574,"x_min":66,"x_max":537,"o":"m 324 0 l 66 0 l 66 536 l 216 536 l 216 353 l 324 353 b 601.3 297.0 624.8 94.6 324 0 m 216 239 l 216 114 l 314 114 b 398.4 117.0 419.5 207.9 314 239 l 216 239"},"ы":{"ha":808,"x_min":66,"x_max":743,"o":"m 324 0 l 66 0 l 66 536 l 216 536 l 216 353 l 324 353 b 601.3 297.0 624.8 94.6 324 0 m 216 239 l 216 114 l 314 114 b 398.4 117.0 419.5 207.9 314 239 l 216 239 m 743 0 l 593 0 l 593 536 l 743 536 l 743 0"},"ъ":{"ha":640,"x_min":46,"x_max":603,"o":"m 384 0 l 154 0 l 154 424 l 46 424 l 46 536 l 304 536 l 304 353 l 384 353 b 667.8 296.1 692.6 95.9 384 0 m 304 240 l 304 114 l 381 114 b 464.3 117.3 485.1 209.1 381 240 l 304 240"},"љ":{"ha":934,"x_min":46,"x_max":897,"o":"m 684 0 l 426 0 l 426 422 l 272 422 l 242 128 b 243.7 61.8 206.5 0.1 112 -4 l 46 -4 l 46 112 l 68 112 b 87.3 108.1 105.9 119.4 111 157 l 151 536 l 576 536 l 576 353 l 684 353 b 961.3 297.0 984.8 94.6 684 0 m 576 239 l 576 114 l 675 114 b 758.3 117.0 779.1 207.9 675 239 l 576 239"},"њ":{"ha":906,"x_min":66,"x_max":869,"o":"m 216 0 l 66 0 l 66 536 l 216 536 l 216 342 l 398 342 l 398 536 l 548 536 l 548 353 l 656 353 b 933.3 297.0 956.8 94.6 656 0 l 398 0 l 398 228 l 216 228 l 216 0 m 548 239 l 548 114 l 647 114 b 730.3 117.0 751.1 207.9 647 239 l 548 239"},"ѕ":{"ha":570,"x_min":37,"x_max":533,"o":"m 295 -12 b 167.6 -22.1 51.3 46.9 37 169 l 189 174 b 226.8 71.4 382.9 73.6 370 176 b 352.3 191.7 205.4 213.5 72.5 298.5 b -8.0 433.3 131.7 582.0 424 524 b 474.8 507.1 524.3 444.3 533 364 l 383 358 b 355.5 460.3 247.2 470.1 208 382 b 208.5 331.2 368.6 310.0 510.5 229 b 575.6 183.3 558.4 43.3 295 -12"},"є":{"ha":608,"x_min":37,"x_max":571,"o":"m 309 -12 b 88.8 0.3 -9.3 150.9 70.5 415 b 187.1 578.6 381.4 592.5 528 454.5 q 563 410 571 349 l 417 342 b 375.7 460.1 263.8 472.9 196 321 l 195 318 l 369 318 l 369 220 l 195 220 b 239.5 73.5 353.7 60.2 417 200 l 571 194 b 574.4 101.3 497.3 12.0 309 -12"},"э":{"ha":608,"x_min":37,"x_max":571,"o":"m 298 -12 b 191.3 -23.4 81.1 35.8 37 194 l 191 200 b 230.8 73.3 342.7 60.8 412 214 l 413 220 l 238 220 l 238 318 l 412 318 b 367.7 459.8 254.3 472.2 191 342 l 37 349 b 64.2 512.2 196.7 585.3 442 513 b 606.8 396.0 622.8 184.9 442 23 q 381 -12 298 -12"},"і":{"ha":281,"x_min":63,"x_max":218,"o":"m 216 0 l 66 0 l 66 536 l 216 536 l 216 0 m 218 602 l 63 602 l 63 722 l 218 722 l 218 602"},"ї":{"ha":281,"x_min":14,"x_max":268,"o":"m 216 0 l 66 0 l 66 536 l 216 536 l 216 0 m 123 602 l 14 602 l 14 722 l 123 722 l 123 602 m 268 602 l 159 602 l 159 722 l 268 722 l 268 602"},"ј":{"ha":331,"x_min":-3,"x_max":268,"o":"m 87 -150 l -3 -150 l -3 -38 l 57 -38 b 85.7 -43.2 113.8 -28.2 116 22 l 116 536 l 266 536 l 266 18 b 279.8 -70.7 227.4 -146.8 87 -150 m 268 602 l 113 602 l 113 722 l 268 722 l 268 602"},"ћ":{"ha":611,"x_min":4,"x_max":545,"o":"m 216 0 l 66 0 l 66 710 l 216 710 l 216 470 b 284.4 591.2 449.9 606.0 545 345 l 545 0 l 395 0 l 395 309 b 378.9 464.3 269.9 478.5 216 305 l 216 0 m 352 576 l 4 576 l 4 663 l 352 663 l 352 576"},"ю":{"ha":861,"x_min":66,"x_max":824,"o":"m 216 0 l 66 0 l 66 536 l 216 536 l 216 325 l 284 325 b 391.9 593.8 637.5 617.1 790.5 415.5 b 876.2 201.7 806.9 26.7 552 -12 b 446.9 -25.4 320.7 54.4 285 209 l 284 211 l 216 211 l 216 0 m 552 103 b 703.3 150.8 717.6 347.9 552 433 b 402.2 385.2 387.9 188.1 552 103"},"я":{"ha":618,"x_min":66,"x_max":552,"o":"m 220 0 l 66 0 l 179 183 b 17.6 255.9 -3.6 438.1 300 536 l 552 536 l 552 0 l 402 0 l 402 164 l 316 164 l 220 0 m 304 277 l 402 277 l 402 424 l 304 424 b 201.3 402.4 191.7 315.0 304 277"},"ђ":{"ha":611,"x_min":4,"x_max":545,"o":"m 216 0 l 66 0 l 66 576 l 4 576 l 4 663 l 66 663 l 66 710 l 216 710 l 216 663 l 352 663 l 352 576 l 216 576 l 216 469 b 284.0 591.1 449.9 606.2 545 345 l 545 18 b 558.8 -70.7 507.1 -146.8 367 -150 l 313 -150 l 313 -38 l 337 -38 b 365.7 -43.2 393.0 -28.2 395 22 l 395 309 b 378.9 464.3 269.9 478.5 216 305 l 216 0"},"ѣ":{"ha":608,"x_min":16,"x_max":572,"o":"m 353 0 l 102 0 l 102 425 l 16 425 l 16 536 l 102 536 l 102 660 l 252 660 l 252 536 l 407 536 l 407 425 l 252 425 l 252 337 l 353 337 b 636.8 284.1 661.6 90.7 353 0 m 252 226 l 252 111 l 343 111 b 427.4 113.8 448.5 197.4 343 226 l 252 226"},"ѫ":{"ha":767,"x_min":46,"x_max":721,"o":"m 192 0 l 46 0 l 130 209 b 139.9 248.7 176.9 290.8 238 295 l 242 295 l 81 428 l 81 536 l 687 536 l 687 428 l 527 295 l 529 295 b 568.2 300.3 612.5 269.5 637 209 l 721 0 l 575 0 l 514 158 b 508.0 182.6 490.6 201.8 462 202 l 453 202 l 453 0 l 315 0 l 315 202 l 305 202 b 286.6 205.6 266.2 193.4 253 158 l 192 0 m 540 428 l 228 428 l 384 296 l 540 428"},"ѳ":{"ha":618,"x_min":37,"x_max":581,"o":"m 309 -12 b 89.8 -0.8 -9.3 150.5 71 415.5 b 184.2 584.7 389.2 601.1 547.5 415.5 b 633.2 201.7 563.9 26.7 309 -12 m 223 343 b 302.8 323.0 375.0 290.7 425 300 b 382.8 462.9 268.1 476.6 201 344 l 200 341 q 212 343 223 343 m 309 103 q 389 103 415 187 b 404.5 179.1 331.2 205.3 226 233 q 210 233 194 227 b 194.5 168.5 236.5 108.5 309 103"},"ѵ":{"ha":607,"x_min":21,"x_max":586,"o":"m 391 0 l 217 0 l 21 536 l 178 536 l 305 151 l 396 426 b 408.1 489.8 453.2 536.4 531 536 l 586 536 l 586 422 l 572 422 b 558.4 424.9 541.8 413.2 530 383 l 391 0"},"җ":{"ha":985,"x_min":46,"x_max":981,"o":"m 421 246 l 219 0 l 46 0 l 276 264 l 52 536 l 225 536 l 421 284 l 421 536 l 571 536 l 571 284 l 768 536 l 941 536 l 717 264 l 848 114 l 981 114 l 981 -104 l 831 -104 l 831 0 l 774 0 l 571 246 l 571 0 l 421 0 l 421 246"},"қ":{"ha":639,"x_min":66,"x_max":635,"o":"m 216 0 l 66 0 l 66 536 l 216 536 l 216 283 l 421 536 l 598 536 l 366 265 l 502 114 l 635 114 l 635 -104 l 485 -104 l 485 0 l 427 0 l 216 247 l 216 0"},"ң":{"ha":656,"x_min":66,"x_max":632,"o":"m 216 0 l 66 0 l 66 537 l 216 537 l 216 342 l 398 342 l 398 536 l 548 536 l 548 114 l 632 114 l 632 -104 l 482 -104 l 482 0 l 398 0 l 398 228 l 216 228 l 216 0"},"ү":{"ha":614,"x_min":21,"x_max":593,"o":"m 231 -150 l 231 0 l 21 536 l 176 536 l 307 171 l 438 536 l 593 536 l 381 0 l 381 -150 l 231 -150"},"ұ":{"ha":614,"x_min":21,"x_max":593,"o":"m 231 0 l 57 0 l 57 114 l 187 114 l 21 536 l 176 536 l 307 171 l 438 536 l 593 536 l 426 114 l 557 114 l 557 0 l 381 0 l 381 -150 l 231 -150 l 231 0"},"ҳ":{"ha":657,"x_min":46,"x_max":653,"o":"m 208 0 l 46 0 l 237 272 l 51 536 l 210 536 l 325 364 l 436 536 l 599 536 l 414 271 l 524 114 l 653 114 l 653 -104 l 503 -104 l 503 0 l 445 0 l 327 182 l 208 0"},"ҷ":{"ha":678,"x_min":66,"x_max":654,"o":"m 504 0 l 421 0 l 421 184 b 347.4 118.9 175.2 103.3 66 334 l 66 536 l 216 536 l 216 356 b 236.4 251.4 336.3 248.3 421 308 l 421 536 l 571 536 l 571 114 l 654 114 l 654 -104 l 504 -104 l 504 0"},"һ":{"ha":611,"x_min":66,"x_max":545,"o":"m 216 0 l 66 0 l 66 710 l 216 710 l 216 470 b 284.4 591.2 449.9 606.0 545 345 l 545 0 l 395 0 l 395 309 b 378.9 464.3 269.9 478.5 216 305 l 216 0"},"ӏ":{"ha":298,"x_min":74,"x_max":224,"o":"m 224 0 l 74 0 l 74 710 l 224 710 l 224 0"},"ә":{"ha":605,"x_min":37,"x_max":569,"o":"m 298 548 b 517.3 536.7 615.1 385.3 535.5 121 b 422.5 -49.3 220.8 -66.0 69.5 123 q 37 188 37 278 l 37 308 l 413 308 b 418.4 414.3 344.5 474.4 195 369 l 44 378 b 53.0 457.4 149.5 540.1 298 548 m 413 216 l 190 216 b 227.5 65.0 347.0 51.9 413 216"},"ӣ":{"ha":604,"x_min":66,"x_max":538,"o":"m 207 0 l 66 0 l 66 536 l 216 536 l 216 230 l 397 536 l 538 536 l 538 0 l 388 0 l 388 306 l 207 0 m 452 607 l 153 607 l 153 717 l 452 717 l 452 607"},"ө":{"ha":618,"x_min":37,"x_max":581,"o":"m 309 -12 b 89.8 -0.8 -9.3 150.5 71 415.5 b 184.2 584.7 389.2 601.1 547.5 415.5 b 633.2 201.7 563.9 26.7 309 -12 m 197 327 l 196 324 l 422 324 b 376.6 463.0 264.9 476.2 197 327 m 309 103 b 352.2 96.3 402.7 133.0 421 208 l 422 212 l 196 212 b 199.9 160.4 241.2 107.8 309 103"},"ӯ":{"ha":586,"x_min":21,"x_max":565,"o":"m 212 -150 l 110 -150 l 110 -38 l 181 -38 b 205.4 -40.7 227.9 -31.0 239 -4 l 250 27 l 209 27 l 21 536 l 174 536 l 297 167 l 412 536 l 565 536 l 359 -51 b 349.8 -103.2 300.5 -148.1 212 -150 m 442 607 l 143 607 l 143 717 l 442 717 l 442 607"},"Λ":{"ha":721,"x_min":19,"x_max":702,"o":"m 172 0 l 19 0 l 275 710 l 446 710 l 702 0 l 549 0 l 360 550 l 172 0"},"Ω":{"ha":768,"x_min":42,"x_max":726,"o":"m 343 0 l 43 0 l 43 128 l 190 125 b 1.0 242.2 -20.3 481.9 202.5 682.5 b 466.2 790.5 679.5 698.9 726 393 b 734.6 301.3 679.3 182.3 578 125 l 725 128 l 725 0 l 425 0 l 425 128 b 543.9 139.2 605.5 258.5 521.5 535 b 302.2 670.2 151.9 516.7 216.5 247 b 230.4 194.6 279.8 136.8 343 128 l 343 0"},"λ":{"ha":639,"x_min":19,"x_max":620,"o":"m 173 0 l 19 0 l 236 498 l 222 533 b 212.7 566.6 192.0 597.2 151 599 l 100 599 l 100 710 l 195 710 b 254.8 719.6 319.2 672.7 361 568 l 519 176 b 528.6 143.4 547.2 113.0 585 111 l 620 111 l 620 0 l 543 -1 b 484.4 -11.2 422.5 34.1 380 142 l 309 317 l 173 0"},"µ":{"ha":607,"x_min":66,"x_max":542,"o":"m 216 -150 l 66 -150 l 66 536 l 216 536 l 216 226 b 232.4 70.4 338.9 57.0 392 233 l 392 536 l 542 536 l 542 0 l 405 0 l 403 87 b 342.1 -8.5 212.2 -29.7 216 -11 l 216 -150"},"π":{"ha":669,"x_min":41,"x_max":643,"o":"m 268 0 l 143 0 l 143 424 l 41 424 l 41 536 l 643 536 l 643 424 l 544 424 l 544 177 b 540.1 147.2 561.5 115.3 605 112 l 641 112 l 641 0 l 599 0 b 507.2 -11.6 423.9 48.9 419 177 l 419 424 l 268 424 l 268 0"},"⓿":{"ha":812,"x_min":37,"x_max":775,"o":"m 406 -12 b 202.0 -5.6 65.7 112.9 37 358 b 43.6 560.7 162.0 697.1 406 726 b 609.6 719.3 746.3 600.7 775 358 b 768.4 153.1 649.8 16.6 406 -12 m 408 152 b 628.3 211.1 650.3 451.4 408 555 b 185.8 497.0 164.4 256.9 408 152 m 444 468 l 340 294 b 314.4 400.7 357.7 502.5 444 468 m 408 229 q 387 229 372 240 l 476 414 b 494.9 402.7 501.5 301.8 408 229"},"❶":{"ha":812,"x_min":37,"x_max":775,"o":"m 406 -12 b 202.0 -5.6 65.7 112.9 37 358 b 43.6 560.7 162.0 697.1 406 726 b 609.6 719.3 746.3 600.7 775 358 b 768.4 153.1 649.8 16.6 406 -12 m 381 383 l 381 160 l 479 160 l 479 547 l 398 547 b 404.2 505.3 373.1 460.6 305 456 l 277 456 l 277 382 l 381 383"},"❷":{"ha":812,"x_min":37,"x_max":775,"o":"m 406 -12 b 202.0 -5.6 65.7 112.9 37 358 b 43.6 560.7 162.0 697.1 406 726 b 609.6 719.3 746.3 600.7 775 358 b 768.4 153.1 649.8 16.6 406 -12 m 269 160 l 556 160 l 556 243 l 371 243 b 367.2 252.1 379.9 271.1 418 291 l 463 313 b 589.1 371.6 603.9 491.6 414 555 b 350.5 563.3 281.0 519.4 265 427 l 355 422 b 377.0 494.4 441.3 498.6 465 435 b 468.6 415.2 456.4 395.3 421 379 l 374 355 b 311.1 335.9 269.9 284.4 269 160"},"❸":{"ha":812,"x_min":37,"x_max":775,"o":"m 406 -12 b 202.0 -5.6 65.7 112.9 37 358 b 43.6 560.7 162.0 697.1 406 726 b 609.6 719.3 746.3 600.7 775 358 b 768.4 153.1 649.8 16.6 406 -12 m 411 152 b 604.9 193.9 619.0 311.2 481 363 b 617.0 501.6 529.8 587.6 297 525.5 q 261 496 255 441 l 352 436 b 437.6 504.7 476.8 470.5 444 403 q 430 392 407 392 l 376 392 l 376 324 l 407 324 b 490.4 309.4 497.0 252.5 411 228 b 381.6 225.5 353.5 241.0 349 270 l 251 266 b 243.1 209.6 286.3 155.9 411 152"},"❹":{"ha":812,"x_min":37,"x_max":775,"o":"m 406 -12 b 202.0 -5.6 65.7 112.9 37 358 b 43.6 560.7 162.0 697.1 406 726 b 609.6 719.3 746.3 600.7 775 358 b 768.4 153.1 649.8 16.6 406 -12 m 410 236 l 410 160 l 508 160 l 508 236 l 557 236 l 557 313 l 508 313 l 508 547 l 401 547 l 227 307 l 227 236 l 410 236 m 410 313 l 320 313 l 410 429 l 410 313"},"❺":{"ha":812,"x_min":37,"x_max":775,"o":"m 406 -12 b 202.0 -5.6 65.7 112.9 37 358 b 43.6 560.7 162.0 697.1 406 726 b 609.6 719.3 746.3 600.7 775 358 b 768.4 153.1 649.8 16.6 406 -12 m 409 152 b 606.0 195.9 623.8 351.5 436 417 b 412.8 418.5 381.9 410.5 364 394 l 374 470 l 542 470 l 542 547 l 291 547 l 262 319 l 354 319 b 378.9 364.1 440.3 370.2 468 290 b 474.5 241.1 437.2 206.4 352 266 l 255 261 b 248.5 210.4 298.1 157.2 409 152"},"❻":{"ha":812,"x_min":37,"x_max":775,"o":"m 406 -12 b 202.0 -5.6 65.7 112.9 37 358 b 43.6 560.7 162.0 697.1 406 726 b 609.6 719.3 746.3 600.7 775 358 b 768.4 153.1 649.8 16.6 406 -12 m 411 152 b 610.0 192.9 629.6 356.9 428 423 b 398.9 424.7 363.1 411.1 345 389 b 358.6 483.3 453.0 505.3 481 446 l 570 457 b 336.6 640.2 194.7 493.9 292 198 q 335 152 411 152 m 413 228 b 330.8 248.1 324.7 322.1 413 354 b 497.2 337.0 505.3 261.2 413 228"},"❼":{"ha":812,"x_min":37,"x_max":775,"o":"m 406 -12 b 202.0 -5.6 65.7 112.9 37 358 b 43.6 560.7 162.0 697.1 406 726 b 609.6 719.3 746.3 600.7 775 358 b 768.4 153.1 649.8 16.6 406 -12 m 340 160 l 438 160 b 430.0 246.9 466.2 369.4 551 474 l 551 548 l 275 548 l 275 465 l 450 465 b 399.3 411.6 345.5 288.1 340 160"},"❽":{"ha":812,"x_min":37,"x_max":775,"o":"m 406 -12 b 202.0 -5.6 65.7 112.9 37 358 b 43.6 560.7 162.0 697.1 406 726 b 609.6 719.3 746.3 600.7 775 358 b 768.4 153.1 649.8 16.6 406 -12 m 411 152 b 553.6 142.2 628.3 212.1 484 369 b 589.3 400.5 604.4 502.0 411 555 b 232.5 524.6 222.7 417.5 338 369 b 199.6 299.5 211.5 183.1 411 152 m 411 397 b 338.1 413.8 337.1 491.4 462 439 b 465.0 417.3 446.1 398.0 411 397 m 411 228 b 307.2 305.2 353.1 350.7 459.5 317 b 485.9 304.8 493.8 254.5 411 228"},"❾":{"ha":812,"x_min":37,"x_max":775,"o":"m 406 -12 b 202.0 -5.6 65.7 112.9 37 358 b 43.6 560.7 162.0 697.1 406 726 b 609.6 719.3 746.3 600.7 775 358 b 768.4 153.1 649.8 16.6 406 -12 m 413 555 b 212.6 514.1 193.3 350.1 395 284 b 424.3 282.4 460.9 296.9 478 318 b 464.4 223.7 370.0 201.7 342 261 l 254 250 b 486.0 66.7 628.1 213.0 531 509.5 q 488 555 413 555 m 410 479 b 492.2 458.9 499.3 384.9 410 353 b 325.8 370.0 317.8 445.8 410 479"},"⓪":{"ha":841,"x_min":37,"x_max":804,"o":"m 420 -26 b 208.6 -19.5 66.6 103.5 37 358 b 43.6 569.5 165.7 710.4 420 740 b 632.7 733.2 774.5 611.1 804 358 b 797.5 145.3 674.5 3.5 420 -26 m 420 58 b 586.0 64.0 696.1 159.6 719 358 b 713.9 523.1 618.6 632.9 420 656 b 254.9 650.7 145.1 555.5 122 358 b 127.3 192.1 222.5 82.1 420 58 m 422 152 b 201.7 211.1 179.8 451.4 422 555 b 644.2 497.0 665.6 256.9 422 152 m 354 295 l 354 293 l 459 468 b 393.8 508.2 331.9 436.2 354 295 m 422 229 b 495.2 245.6 511.6 382.1 491 416 l 387 240 q 402 229 422 229"},"①":{"ha":841,"x_min":37,"x_max":804,"o":"m 420 -26 b 208.6 -19.5 66.6 103.5 37 358 b 43.6 569.5 165.7 710.4 420 740 b 632.7 733.2 774.5 611.1 804 358 b 797.5 145.3 674.5 3.5 420 -26 m 420 58 b 586.0 64.0 696.1 159.6 719 358 b 713.9 523.1 618.6 632.9 420 656 b 254.9 650.7 145.1 555.5 122 358 b 127.3 192.1 222.5 82.1 420 58 m 491 160 l 392 160 l 392 383 l 289 382 l 289 456 l 317 456 b 361.6 450.5 406.2 483.3 410 547 l 491 547 l 491 160"},"②":{"ha":841,"x_min":37,"x_max":804,"o":"m 420 -26 b 208.6 -19.5 66.6 103.5 37 358 b 43.6 569.5 165.7 710.4 420 740 b 632.7 733.2 774.5 611.1 804 358 b 797.5 145.3 674.5 3.5 420 -26 m 420 58 b 586.0 64.0 696.1 159.6 719 358 b 713.9 523.1 618.6 632.9 420 656 b 254.9 650.7 145.1 555.5 122 358 b 127.3 192.1 222.5 82.1 420 58 m 566 160 l 279 160 b 268.8 233.9 287.7 300.8 384 355 l 431 379 b 490.0 406.6 494.1 456.7 425 479 b 398.9 483.3 372.3 466.5 365 422 l 275 427 b 327.7 589.5 498.7 603.4 565 437 b 571.1 394.8 539.9 345.7 473 313 l 428 291 b 401.5 279.6 381.1 260.1 381 243 l 566 243 l 566 160"},"③":{"ha":841,"x_min":37,"x_max":804,"o":"m 420 -26 b 208.6 -19.5 66.6 103.5 37 358 b 43.6 569.5 165.7 710.4 420 740 b 632.7 733.2 774.5 611.1 804 358 b 797.5 145.3 674.5 3.5 420 -26 m 420 58 b 586.0 64.0 696.1 159.6 719 358 b 713.9 523.1 618.6 632.9 420 656 b 254.9 650.7 145.1 555.5 122 358 b 127.3 192.1 222.5 82.1 420 58 m 423 152 b 336.2 144.3 268.6 181.9 263 266 l 361 270 b 377.9 215.7 451.9 209.7 484 276 b 488.5 297.9 467.4 321.5 419 324 l 388 324 l 388 392 l 419 392 b 482.8 403.4 490.0 453.7 418 479 q 368 479 364 436 l 267 441 b 312.1 585.5 498.6 597.9 566 451 q 566 381 493 363 b 620.1 329.5 634.3 220.8 423 152"},"④":{"ha":841,"x_min":37,"x_max":804,"o":"m 420 -26 b 208.6 -19.5 66.6 103.5 37 358 b 43.6 569.5 165.7 710.4 420 740 b 632.7 733.2 774.5 611.1 804 358 b 797.5 145.3 674.5 3.5 420 -26 m 420 58 b 586.0 64.0 696.1 159.6 719 358 b 713.9 523.1 618.6 632.9 420 656 b 254.9 650.7 145.1 555.5 122 358 b 127.3 192.1 222.5 82.1 420 58 m 519 160 l 420 160 l 420 236 l 238 236 l 238 307 l 411 547 l 519 547 l 519 313 l 568 313 l 568 236 l 519 236 l 519 160 m 420 429 l 331 313 l 420 313 l 420 429"},"⑤":{"ha":841,"x_min":37,"x_max":804,"o":"m 420 -26 b 208.6 -19.5 66.6 103.5 37 358 b 43.6 569.5 165.7 710.4 420 740 b 632.7 733.2 774.5 611.1 804 358 b 797.5 145.3 674.5 3.5 420 -26 m 420 58 b 586.0 64.0 696.1 159.6 719 358 b 713.9 523.1 618.6 632.9 420 656 b 254.9 650.7 145.1 555.5 122 358 b 127.3 192.1 222.5 82.1 420 58 m 421 152 b 347.6 145.3 278.0 184.1 267 261 l 365 266 b 454.4 199.6 499.8 242.9 465.5 334.5 b 439.3 360.2 392.2 356.7 366 319 l 274 319 l 304 547 l 554 547 l 554 470 l 386 470 l 377 394 b 401.2 440.3 505.1 449.2 578 290 b 588.2 227.4 534.3 159.3 421 152"},"⑥":{"ha":841,"x_min":37,"x_max":804,"o":"m 420 -26 b 208.6 -19.5 66.6 103.5 37 358 b 43.6 569.5 165.7 710.4 420 740 b 632.7 733.2 774.5 611.1 804 358 b 797.5 145.3 674.5 3.5 420 -26 m 420 58 b 586.0 64.0 696.1 159.6 719 358 b 713.9 523.1 618.6 632.9 420 656 b 254.9 650.7 145.1 555.5 122 358 b 127.3 192.1 222.5 82.1 420 58 m 422 152 b 214.0 194.8 191.3 432.3 439 555 q 562 555 581 457 l 493 446 b 488.4 494.6 404.1 508.3 357 389 b 384.2 447.7 496.3 459.6 582 289 b 591.6 225.5 533.1 158.6 422 152 m 425 228 b 508.8 247.0 517.4 322.6 425 354 b 344.2 336.1 334.6 262.6 425 228"},"⑦":{"ha":841,"x_min":37,"x_max":804,"o":"m 420 -26 b 208.6 -19.5 66.6 103.5 37 358 b 43.6 569.5 165.7 710.4 420 740 b 632.7 733.2 774.5 611.1 804 358 b 797.5 145.3 674.5 3.5 420 -26 m 420 58 b 586.0 64.0 696.1 159.6 719 358 b 713.9 523.1 618.6 632.9 420 656 b 254.9 650.7 145.1 555.5 122 358 b 127.3 192.1 222.5 82.1 420 58 m 450 160 l 352 160 b 345.3 232.6 384.8 360.8 462 465 l 287 465 l 287 548 l 563 548 l 563 474 b 505.7 418.6 453.2 303.9 450 160"},"⑧":{"ha":841,"x_min":37,"x_max":804,"o":"m 420 -26 b 208.6 -19.5 66.6 103.5 37 358 b 43.6 569.5 165.7 710.4 420 740 b 632.7 733.2 774.5 611.1 804 358 b 797.5 145.3 674.5 3.5 420 -26 m 420 58 b 586.0 64.0 696.1 159.6 719 358 b 713.9 523.1 618.6 632.9 420 656 b 254.9 650.7 145.1 555.5 122 358 b 127.3 192.1 222.5 82.1 420 58 m 423 152 b 280.4 142.2 205.7 212.1 350 369 b 244.7 400.5 229.6 502.0 423 555 b 601.5 524.6 611.3 417.5 496 369 b 634.4 298.3 622.5 183.1 423 152 m 423 397 b 495.9 413.8 496.9 491.4 372 439 b 369.0 417.3 387.9 398.0 423 397 m 423 228 b 526.8 305.2 480.9 350.7 374.5 317 b 348.1 304.8 340.2 254.5 423 228"},"⑨":{"ha":841,"x_min":37,"x_max":804,"o":"m 420 -26 b 208.6 -19.5 66.6 103.5 37 358 b 43.6 569.5 165.7 710.4 420 740 b 632.7 733.2 774.5 611.1 804 358 b 797.5 145.3 674.5 3.5 420 -26 m 420 58 b 586.0 64.0 696.1 159.6 719 358 b 713.9 523.1 618.6 632.9 420 656 b 254.9 650.7 145.1 555.5 122 358 b 127.3 192.1 222.5 82.1 420 58 m 427 555 b 636.3 513.1 658.9 274.7 411 152 q 288 152 268 250 l 357 261 b 361.6 212.4 445.9 198.7 493 318 b 465.8 259.7 353.7 247.4 268 418 b 258.6 481.5 317.1 548.4 427 555 m 425 479 b 341.2 460.0 332.6 384.4 425 353 b 504.8 370.9 515.4 444.4 425 479"},"⁄":{"ha":164,"x_min":-200,"x_max":364,"o":"m -108 0 l -200 0 l 272 710 l 364 710 l -108 0"},"½":{"ha":846,"x_min":20,"x_max":805,"o":"m 222 323 l 123 323 l 123 546 l 20 545 l 20 619 l 48 619 b 92.6 613.5 137.2 646.3 141 710 l 222 710 l 222 323 m 202 0 l 110 0 l 582 710 l 674 710 l 202 0 m 805 0 l 518 0 b 507.8 73.9 526.7 140.8 623 195 l 670 219 b 729.0 246.6 733.1 296.7 664 319 b 637.9 323.3 611.3 306.5 604 262 l 514 267 b 566.7 429.5 737.7 443.4 804 277 b 810.1 234.8 778.9 185.7 712 153 l 667 131 b 640.5 119.6 620.1 100.1 620 83 l 805 83 l 805 0"},"⅓":{"ha":843,"x_min":20,"x_max":813,"o":"m 222 323 l 123 323 l 123 546 l 20 545 l 20 619 l 48 619 b 92.6 613.5 137.2 646.3 141 710 l 222 710 l 222 323 m 202 0 l 110 0 l 582 710 l 674 710 l 202 0 m 654 -8 b 567.2 -15.7 499.6 21.9 494 106 l 592 110 b 608.9 55.7 682.9 49.7 715 116 b 719.5 137.9 698.4 161.5 650 164 l 619 164 l 619 232 l 650 232 b 713.8 243.4 721.0 293.7 649 319 q 599 319 595 276 l 498 281 b 543.1 425.5 729.6 437.9 797 291 q 797 221 724 203 b 851.1 169.5 865.3 60.8 654 -8"},"⅔":{"ha":905,"x_min":40,"x_max":875,"o":"m 331 323 l 44 323 b 33.8 396.9 52.7 463.8 149 518 l 196 542 b 255.0 569.6 259.1 619.7 190 642 b 163.9 646.3 137.3 629.5 130 585 l 40 590 b 92.7 752.5 263.7 766.4 330 600 b 336.1 557.8 304.9 508.7 238 476 l 193 454 b 166.5 442.6 146.1 423.1 146 406 l 331 406 l 331 323 m 264 0 l 172 0 l 644 710 l 736 710 l 264 0 m 716 -8 b 629.2 -15.7 561.6 21.9 556 106 l 654 110 b 670.9 55.7 744.9 49.7 777 116 b 781.5 137.9 760.4 161.5 712 164 l 681 164 l 681 232 l 712 232 b 775.8 243.4 783.0 293.7 711 319 q 661 319 657 276 l 560 281 b 605.1 425.5 791.6 437.9 859 291 q 859 221 786 203 b 913.1 169.5 927.3 60.8 716 -8"},"¼":{"ha":790,"x_min":20,"x_max":770,"o":"m 222 323 l 123 323 l 123 546 l 20 545 l 20 619 l 48 619 b 92.6 613.5 137.2 646.3 141 710 l 222 710 l 222 323 m 202 0 l 110 0 l 582 710 l 674 710 l 202 0 m 721 0 l 622 0 l 622 76 l 440 76 l 440 147 l 613 387 l 721 387 l 721 153 l 770 153 l 770 76 l 721 76 l 721 0 m 622 269 l 533 153 l 622 153 l 622 269"},"¾":{"ha":849,"x_min":20,"x_max":829,"o":"m 180 315 b 93.2 307.3 25.6 344.9 20 429 l 118 433 b 134.9 378.7 208.9 372.7 241 439 b 245.5 460.9 224.4 484.5 176 487 l 145 487 l 145 555 l 176 555 b 239.8 566.4 247.0 616.7 175 642 q 125 642 121 599 l 24 604 b 69.1 748.5 255.6 760.9 323 614 q 323 544 250 526 b 377.1 492.5 391.3 383.8 180 315 m 261 0 l 169 0 l 641 710 l 733 710 l 261 0 m 780 0 l 681 0 l 681 76 l 499 76 l 499 147 l 672 387 l 780 387 l 780 153 l 829 153 l 829 76 l 780 76 l 780 0 m 681 269 l 592 153 l 681 153 l 681 269"},"⅕":{"ha":855,"x_min":20,"x_max":825,"o":"m 222 323 l 123 323 l 123 546 l 20 545 l 20 619 l 48 619 b 92.6 613.5 137.2 646.3 141 710 l 222 710 l 222 323 m 202 0 l 110 0 l 582 710 l 674 710 l 202 0 m 668 -8 b 594.6 -14.7 525.0 24.1 514 101 l 612 106 b 701.4 39.6 746.8 82.9 712.5 174.5 b 686.3 200.2 639.2 196.7 613 159 l 521 159 l 551 387 l 801 387 l 801 310 l 633 310 l 624 234 b 648.2 280.3 752.1 289.2 825 130 b 835.2 67.4 781.3 -0.7 668 -8"},"⅛":{"ha":860,"x_min":20,"x_max":830,"o":"m 222 323 l 123 323 l 123 546 l 20 545 l 20 619 l 48 619 b 92.6 613.5 137.2 646.3 141 710 l 222 710 l 222 323 m 202 0 l 110 0 l 582 710 l 674 710 l 202 0 m 667 -8 b 524.4 -17.8 449.7 52.1 594 209 b 488.7 240.5 473.6 342.0 667 395 b 845.5 364.6 855.3 257.5 740 209 b 878.4 138.3 866.5 23.1 667 -8 m 667 237 b 739.9 253.8 740.9 331.4 616 279 b 613.0 257.3 631.9 238.0 667 237 m 667 68 b 770.8 145.2 724.9 190.7 618.5 157 b 592.1 144.8 584.2 94.5 667 68"},"⅜":{"ha":919,"x_min":20,"x_max":889,"o":"m 180 315 b 93.2 307.3 25.6 344.9 20 429 l 118 433 b 134.9 378.7 208.9 372.7 241 439 b 245.5 460.9 224.4 484.5 176 487 l 145 487 l 145 555 l 176 555 b 239.8 566.4 247.0 616.7 175 642 q 125 642 121 599 l 24 604 b 69.1 748.5 255.6 760.9 323 614 q 323 544 250 526 b 377.1 492.5 391.3 383.8 180 315 m 261 0 l 169 0 l 641 710 l 733 710 l 261 0 m 726 -8 b 583.4 -17.8 508.7 52.1 653 209 b 547.7 240.5 532.6 342.0 726 395 b 904.5 364.6 914.3 257.5 799 209 b 937.4 138.3 925.5 23.1 726 -8 m 726 237 b 798.9 253.8 799.9 331.4 675 279 b 672.0 257.3 690.9 238.0 726 237 m 726 68 b 829.8 145.2 783.9 190.7 677.5 157 b 651.1 144.8 643.2 94.5 726 68"},"⅝":{"ha":931,"x_min":40,"x_max":901,"o":"m 194 315 b 120.6 308.3 51.0 347.1 40 424 l 138 429 b 227.4 362.6 272.8 405.9 238.5 497.5 b 212.3 523.2 165.2 519.7 139 482 l 47 482 l 77 710 l 327 710 l 327 633 l 159 633 l 150 557 b 174.2 603.3 278.1 612.2 351 453 b 361.2 390.4 307.3 322.3 194 315 m 273 0 l 181 0 l 653 710 l 745 710 l 273 0 m 738 -8 b 595.4 -17.8 520.7 52.1 665 209 b 559.7 240.5 544.6 342.0 738 395 b 916.5 364.6 926.3 257.5 811 209 b 949.4 138.3 937.5 23.1 738 -8 m 738 237 b 810.9 253.8 811.9 331.4 687 279 b 684.0 257.3 702.9 238.0 738 237 m 738 68 b 841.8 145.2 795.9 190.7 689.5 157 b 663.1 144.8 655.2 94.5 738 68"},"⅞":{"ha":836,"x_min":20,"x_max":806,"o":"m 183 322 l 85 322 b 78.3 394.6 117.8 522.8 195 627 l 20 627 l 20 710 l 296 710 l 296 636 b 238.7 580.6 186.2 465.9 183 322 m 178 0 l 86 0 l 558 710 l 650 710 l 178 0 m 643 -8 b 500.4 -17.8 425.7 52.1 570 209 b 464.7 240.5 449.6 342.0 643 395 b 821.5 364.6 831.3 257.5 716 209 b 854.4 138.3 842.5 23.1 643 -8 m 643 237 b 715.9 253.8 716.9 331.4 592 279 b 589.0 257.3 607.9 238.0 643 237 m 643 68 b 746.8 145.2 700.9 190.7 594.5 157 b 568.1 144.8 560.2 94.5 643 68"},"₀":{"ha":427,"x_min":40,"x_max":387,"o":"m 213 -108 b -7.3 -48.9 -29.3 191.4 213 295 b 435.2 237.0 456.6 -3.1 213 -108 m 145 35 l 145 33 l 250 208 b 184.8 248.2 122.9 176.2 145 35 m 213 -31 b 286.2 -14.4 302.6 122.1 282 156 l 178 -20 q 193 -31 213 -31"},"₁":{"ha":282,"x_min":20,"x_max":222,"o":"m 222 -100 l 123 -100 l 123 123 l 20 122 l 20 196 l 48 196 b 92.6 190.5 137.2 223.3 141 287 l 222 287 l 222 -100"},"₂":{"ha":372,"x_min":40,"x_max":331,"o":"m 331 -100 l 44 -100 b 33.8 -26.1 52.7 40.8 149 95 l 196 119 b 255.0 146.6 259.1 196.7 190 219 b 163.9 223.3 137.3 206.5 130 162 l 40 167 b 92.7 329.5 263.7 343.4 330 177 b 336.1 134.8 304.9 85.7 238 53 l 193 31 b 166.5 19.6 146.1 0.1 146 -17 l 331 -17 l 331 -100"},"₃":{"ha":369,"x_min":20,"x_max":339,"o":"m 180 -108 b 93.2 -115.7 25.6 -78.1 20 6 l 118 10 b 134.9 -44.3 208.9 -50.3 241 16 b 245.5 37.9 224.4 61.5 176 64 l 145 64 l 145 132 l 176 132 b 239.8 143.4 247.0 193.7 175 219 q 125 219 121 176 l 24 181 b 69.1 325.5 255.6 337.9 323 191 q 323 121 250 103 b 377.1 69.5 391.3 -39.2 180 -108"},"₄":{"ha":360,"x_min":10,"x_max":340,"o":"m 291 -100 l 192 -100 l 192 -24 l 10 -24 l 10 47 l 183 287 l 291 287 l 291 53 l 340 53 l 340 -24 l 291 -24 l 291 -100 m 192 169 l 103 53 l 192 53 l 192 169"},"₅":{"ha":381,"x_min":40,"x_max":351,"o":"m 194 -108 b 120.6 -114.7 51.0 -75.9 40 1 l 138 6 b 227.4 -60.4 272.8 -17.1 238.5 74.5 b 212.3 100.2 165.2 96.7 139 59 l 47 59 l 77 287 l 327 287 l 327 210 l 159 210 l 150 134 b 174.2 180.3 278.1 189.2 351 30 b 361.2 -32.6 307.3 -100.7 194 -108"},"₆":{"ha":402,"x_min":40,"x_max":361,"o":"m 201 -108 b -7.0 -65.2 -29.7 172.3 218 295 q 341 295 360 197 l 272 186 b 267.4 234.6 183.1 248.3 136 129 b 163.2 187.7 275.3 199.6 361 29 b 370.6 -34.5 312.1 -101.4 201 -108 m 204 -32 b 287.8 -13.0 296.4 62.6 204 94 b 123.2 76.1 113.6 2.6 204 -32"},"₇":{"ha":316,"x_min":20,"x_max":296,"o":"m 183 -100 l 85 -100 b 78.3 -27.4 117.8 100.8 195 205 l 20 205 l 20 288 l 296 288 l 296 214 b 238.7 158.6 186.2 43.9 183 -100"},"₈":{"ha":386,"x_min":30,"x_max":356,"o":"m 193 -108 b 50.4 -117.8 -24.3 -47.9 120 109 b 14.7 140.5 -0.4 242.0 193 295 b 371.5 264.6 381.3 157.5 266 109 b 404.4 38.3 392.5 -76.9 193 -108 m 193 137 b 265.9 153.8 266.9 231.4 142 179 b 139.0 157.3 157.9 138.0 193 137 m 193 -32 b 296.8 45.2 250.9 90.7 144.5 57 b 118.1 44.8 110.2 -5.5 193 -32"},"₉":{"ha":402,"x_min":42,"x_max":362,"o":"m 201 295 b 409.4 253.1 431.9 14.7 184 -108 q 62 -108 42 -10 l 130 1 b 135.4 -47.6 218.9 -61.3 266 58 b 240.0 -0.3 126.6 -12.6 42 158 b 32.6 221.5 91.1 288.4 201 295 m 199 219 b 114.9 200.0 106.9 124.4 198 93 b 278.7 110.9 289.6 184.4 199 219"},"⁰":{"ha":427,"x_min":40,"x_max":387,"o":"m 213 315 b -7.3 374.1 -29.3 614.4 213 718 b 435.2 660.0 456.6 419.9 213 315 m 145 458 l 145 456 l 250 631 b 184.8 671.2 122.9 599.2 145 458 m 213 392 b 286.2 408.6 302.6 545.1 282 579 l 178 403 q 193 392 213 392"},"¹":{"ha":282,"x_min":20,"x_max":222,"o":"m 222 323 l 123 323 l 123 546 l 20 545 l 20 619 l 48 619 b 92.6 613.5 137.2 646.3 141 710 l 222 710 l 222 323"},"²":{"ha":372,"x_min":40,"x_max":331,"o":"m 331 323 l 44 323 b 33.8 396.9 52.7 463.8 149 518 l 196 542 b 255.0 569.6 259.1 619.7 190 642 b 163.9 646.3 137.3 629.5 130 585 l 40 590 b 92.7 752.5 263.7 766.4 330 600 b 336.1 557.8 304.9 508.7 238 476 l 193 454 b 166.5 442.6 146.1 423.1 146 406 l 331 406 l 331 323"},"³":{"ha":369,"x_min":20,"x_max":339,"o":"m 180 315 b 93.2 307.3 25.6 344.9 20 429 l 118 433 b 134.9 378.7 208.9 372.7 241 439 b 245.5 460.9 224.4 484.5 176 487 l 145 487 l 145 555 l 176 555 b 239.8 566.4 247.0 616.7 175 642 q 125 642 121 599 l 24 604 b 69.1 748.5 255.6 760.9 323 614 q 323 544 250 526 b 377.1 492.5 391.3 383.8 180 315"},"⁴":{"ha":360,"x_min":10,"x_max":340,"o":"m 291 323 l 192 323 l 192 399 l 10 399 l 10 470 l 183 710 l 291 710 l 291 476 l 340 476 l 340 399 l 291 399 l 291 323 m 192 592 l 103 476 l 192 476 l 192 592"},"⁵":{"ha":381,"x_min":40,"x_max":351,"o":"m 194 315 b 120.6 308.3 51.0 347.1 40 424 l 138 429 b 227.4 362.6 272.8 405.9 238.5 497.5 b 212.3 523.2 165.2 519.7 139 482 l 47 482 l 77 710 l 327 710 l 327 633 l 159 633 l 150 557 b 174.2 603.3 278.1 612.2 351 453 b 361.2 390.4 307.3 322.3 194 315"},"⁶":{"ha":402,"x_min":40,"x_max":361,"o":"m 201 315 b -7.0 357.8 -29.7 595.3 218 718 q 341 718 360 620 l 272 609 b 267.4 657.6 183.1 671.3 136 552 b 163.2 610.7 275.3 622.6 361 452 b 370.6 388.5 312.1 321.6 201 315 m 204 391 b 287.8 410.0 296.4 485.6 204 517 b 123.2 499.1 113.6 425.6 204 391"},"⁷":{"ha":316,"x_min":20,"x_max":296,"o":"m 183 322 l 85 322 b 78.3 394.6 117.8 522.8 195 627 l 20 627 l 20 710 l 296 710 l 296 636 b 238.7 580.6 186.2 465.9 183 322"},"⁸":{"ha":386,"x_min":30,"x_max":356,"o":"m 193 315 b 50.4 305.2 -24.3 375.1 120 532 b 14.7 563.5 -0.4 665.0 193 718 b 371.5 687.6 381.3 580.5 266 532 b 404.4 461.3 392.5 346.1 193 315 m 193 560 b 265.9 576.8 266.9 654.4 142 602 b 139.0 580.3 157.9 561.0 193 560 m 193 391 b 296.8 468.2 250.9 513.7 144.5 480 b 118.1 467.8 110.2 417.5 193 391"},"⁹":{"ha":402,"x_min":42,"x_max":362,"o":"m 201 718 b 409.4 676.1 431.9 437.7 184 315 q 62 315 42 413 l 130 424 b 135.4 375.4 218.9 361.7 266 481 b 240.0 422.7 126.6 410.4 42 581 b 32.6 644.5 91.1 711.4 201 718 m 199 642 b 114.9 623.0 106.9 547.4 198 516 b 278.7 533.9 289.6 607.4 199 642"}," ":{"ha":228,"x_min":0,"x_max":0,"o":""}," ":{"ha":228,"x_min":0,"x_max":0,"o":""},".":{"ha":236,"x_min":37,"x_max":200,"o":"m 200 0 l 37 0 l 37 153 l 200 153 l 200 0"},",":{"ha":236,"x_min":37,"x_max":200,"o":"m 130 -158 l 48 -158 l 102 0 l 37 0 l 37 153 l 200 153 l 200 16 l 130 -158"},":":{"ha":311,"x_min":74,"x_max":237,"o":"m 237 0 l 74 0 l 74 153 l 237 153 l 237 0 m 237 356 l 74 356 l 74 509 l 237 509 l 237 356"},";":{"ha":311,"x_min":74,"x_max":237,"o":"m 237 356 l 74 356 l 74 509 l 237 509 l 237 356 m 167 -158 l 85 -158 l 139 0 l 74 0 l 74 153 l 237 153 l 237 16 l 167 -158"},"…":{"ha":695,"x_min":37,"x_max":659,"o":"m 200 0 l 37 0 l 37 153 l 200 153 l 200 0 m 429 0 l 266 0 l 266 153 l 429 153 l 429 0 m 659 0 l 496 0 l 496 153 l 659 153 l 659 0"},"!":{"ha":257,"x_min":47,"x_max":210,"o":"m 182 227 l 80 227 b 72.4 271.8 60.8 372.3 55 496 l 55 710 l 206 710 l 206 496 b 206.5 441.5 197.5 338.6 182 227 m 210 0 l 47 0 l 47 153 l 210 153 l 210 0"},"¡":{"ha":257,"x_min":47,"x_max":210,"o":"m 47 395 l 47 548 l 210 548 l 210 395 l 47 395 m 206 -162 l 55 -162 l 55 52 b 54.8 106.5 64.6 209.4 80 321 l 182 321 b 189.8 276.2 201.1 175.7 206 52 l 206 -162"},"?":{"ha":591,"x_min":37,"x_max":555,"o":"m 366 224 l 217 224 b 241.7 398.2 355.0 456.0 395 480 b 434.4 561.4 388.1 650.0 193 493 l 37 501 b 57.0 679.2 196.7 763.6 443 699 b 577.3 601.3 586.9 467.5 503 391 b 449.2 363.2 375.5 320.3 366 224 m 371 0 l 208 0 l 208 153 l 371 153 l 371 0"},"¿":{"ha":591,"x_min":37,"x_max":555,"o":"m 220 564 l 383 564 l 383 411 l 220 411 l 220 564 m 284 -162 b 79.7 -144.8 -0.0 -26.0 49 119 b 101.8 182.4 205.3 236.0 226 340 l 374 340 b 350.2 166.2 236.0 108.0 196.5 84 b 156.3 2.6 202.5 -86.0 399 71 l 555 63 b 562.5 -35.1 488.4 -134.4 284 -162"},"·":{"ha":236,"x_min":37,"x_max":200,"o":"m 200 225 l 37 225 l 37 378 l 200 378 l 200 225"},"•":{"ha":362,"x_min":36,"x_max":327,"o":"m 182 161 b -2.8 208.1 -21.8 366.9 182 445 b 365.3 398.9 384.3 240.0 182 161"},"*":{"ha":422,"x_min":37,"x_max":385,"o":"m 211 454 l 160 363 l 82 408 l 139 495 l 37 493 l 37 593 l 139 592 l 82 679 l 160 723 l 211 633 l 263 723 l 341 679 l 283 592 l 385 593 l 385 493 l 283 495 l 341 408 l 263 363 l 211 454"},"〃":{"ha":414,"x_min":37,"x_max":377,"o":"m 287 281 l 195 281 l 256 481 l 377 481 l 287 281 m 129 281 l 37 281 l 98 481 l 219 481 l 129 281"},"#":{"ha":589,"x_min":3,"x_max":583,"o":"m 187 0 l 50 0 l 76 163 l 3 163 l 20 283 l 94 283 l 115 421 l 41 421 l 58 540 l 133 540 l 160 710 l 297 710 l 271 540 l 373 540 l 399 710 l 536 710 l 510 540 l 583 540 l 566 421 l 492 421 l 470 283 l 546 283 l 529 163 l 452 163 l 427 0 l 290 0 l 315 163 l 212 163 l 187 0 m 252 421 l 231 283 l 333 283 l 355 421 l 252 421"},"/":{"ha":522,"x_min":32,"x_max":476,"o":"m 180 -110 l 32 -110 l 328 750 l 476 750 l 180 -110"},"\\":{"ha":501,"x_min":28,"x_max":473,"o":"m 176 750 l 473 -110 l 324 -110 l 28 750 l 176 750"},"-":{"ha":417,"x_min":37,"x_max":380,"o":"m 380 230 l 37 230 l 37 353 l 380 353 l 380 230"},"–":{"ha":595,"x_min":37,"x_max":558,"o":"m 558 231 l 37 231 l 37 353 l 558 353 l 558 231"},"—":{"ha":911,"x_min":37,"x_max":874,"o":"m 874 231 l 37 231 l 37 353 l 874 353 l 874 231"},"_":{"ha":561,"x_min":37,"x_max":524,"o":"m 524 -121 l 37 -121 l 37 0 l 524 0 l 524 -121"},"〜":{"ha":865,"x_min":37,"x_max":828,"o":"m 596 183 b 522.2 184.4 455.4 217.0 342 275.5 b 302.1 303.7 219.8 298.3 105 201 l 37 298 b 139.9 400.6 229.9 433.6 355.5 399.5 b 476.8 341.4 538.0 310.3 596 309 b 627.9 302.1 675.5 319.5 759 391 l 828 294 b 777.2 239.6 683.1 187.0 596 183"},"(":{"ha":323,"x_min":42,"x_max":311,"o":"m 311 -110 l 177 -110 b 25.1 71.2 -12.8 419.9 177 750 l 311 750 b 174.9 566.5 140.8 222.9 311 -110"},")":{"ha":323,"x_min":12,"x_max":281,"o":"m 145 -110 l 12 -110 b 148.1 75.0 182.2 418.2 12 750 l 145 750 b 298.0 568.8 336.3 220.1 145 -110"},"{":{"ha":408,"x_min":42,"x_max":396,"o":"m 396 -125 l 333 -125 b 237.8 -135.7 140.8 -64.0 132 64 l 132 147 b 138.5 208.0 110.3 256.9 42 258 l 42 376 b 88.4 366.1 129.8 397.3 132 487 l 132 570 b 119.2 652.7 189.2 746.9 333 758 l 396 758 l 396 629 b 333.8 638.1 278.1 611.9 275 546 l 275 477 b 280.7 407.5 233.5 334.5 160 320 l 160 314 b 207.0 317.6 266.6 262.9 275 157 l 275 87 b 266.3 41.3 304.3 -0.0 396 0 l 396 -125"},"}":{"ha":408,"x_min":12,"x_max":366,"o":"m 75 -125 l 12 -125 l 12 0 b 73.2 -8.3 128.7 19.5 132 87 l 132 157 b 126.2 226.5 173.3 299.5 248 314 l 248 320 b 201.9 316.4 141.0 371.1 132 477 l 132 546 b 140.5 590.9 102.5 630.6 12 629 l 12 758 l 75 758 b 169.2 768.7 266.0 697.8 275 570 l 275 487 b 268.5 424.9 297.4 375.7 366 376 l 366 258 b 319.6 266.8 277.5 235.2 275 147 l 275 64 b 287.6 -18.7 217.6 -113.7 75 -125"},"[":{"ha":390,"x_min":74,"x_max":378,"o":"m 378 8 l 378 -110 l 74 -110 l 74 750 l 378 750 l 378 632 l 218 632 l 218 8 l 378 8"},"]":{"ha":390,"x_min":12,"x_max":316,"o":"m 316 -110 l 12 -110 l 12 8 l 172 8 l 172 632 l 12 632 l 12 750 l 316 750 l 316 -110"},"‚":{"ha":236,"x_min":37,"x_max":200,"o":"m 130 -158 l 48 -158 l 102 0 l 37 0 l 37 153 l 200 153 l 200 16 l 130 -158"},"„":{"ha":452,"x_min":37,"x_max":415,"o":"m 345 -163 l 263 -163 l 317 -5 l 252 -5 l 252 148 l 415 148 l 415 11 l 345 -163 m 130 -163 l 48 -163 l 102 -5 l 37 -5 l 37 148 l 200 148 l 200 11 l 130 -163"},"“":{"ha":462,"x_min":42,"x_max":420,"o":"m 112 726 l 193 726 l 139 568 l 205 568 l 205 414 l 42 414 l 42 551 l 112 726 m 327 726 l 409 726 l 355 568 l 420 568 l 420 414 l 257 414 l 257 551 l 327 726"},"”":{"ha":462,"x_min":42,"x_max":421,"o":"m 351 399 l 269 399 l 323 557 l 258 557 l 258 710 l 421 710 l 421 573 l 351 399 m 135 399 l 53 399 l 107 557 l 42 557 l 42 710 l 205 710 l 205 573 l 135 399"},"‘":{"ha":247,"x_min":42,"x_max":205,"o":"m 112 726 l 193 726 l 139 568 l 205 568 l 205 414 l 42 414 l 42 551 l 112 726"},"’":{"ha":247,"x_min":42,"x_max":205,"o":"m 135 399 l 53 399 l 107 557 l 42 557 l 42 710 l 205 710 l 205 573 l 135 399"},"«":{"ha":645,"x_min":37,"x_max":608,"o":"m 173 276 l 344 76 l 177 76 l 37 240 l 37 312 l 177 476 l 344 476 l 173 276 m 437 276 l 608 76 l 441 76 l 301 240 l 301 312 l 441 476 l 608 476 l 437 276"},"»":{"ha":655,"x_min":43,"x_max":614,"o":"m 474 76 l 307 76 l 478 276 l 307 476 l 474 476 l 614 312 l 614 240 l 474 76 m 210 76 l 43 76 l 214 276 l 43 476 l 210 476 l 350 312 l 350 240 l 210 76"},"‹":{"ha":381,"x_min":37,"x_max":344,"o":"m 173 276 l 344 76 l 177 76 l 37 240 l 37 312 l 177 476 l 344 476 l 173 276"},"›":{"ha":381,"x_min":37,"x_max":344,"o":"m 204 76 l 37 76 l 208 276 l 37 476 l 204 476 l 344 312 l 344 240 l 204 76"},"\"":{"ha":390,"x_min":42,"x_max":348,"o":"m 154 431 l 63 431 l 42 626 l 42 710 l 161 710 l 154 431 m 327 431 l 236 431 l 229 710 l 348 710 l 348 626 l 327 431"},"'":{"ha":203,"x_min":42,"x_max":161,"o":"m 146 431 l 57 431 l 42 626 l 42 710 l 161 710 l 161 626 l 146 431"},"ƒ":{"ha":528,"x_min":46,"x_max":496,"o":"m 141 -1 l 46 0 l 46 121 l 107 121 q 157 121 164 176 l 188 396 l 103 396 l 103 508 l 200 508 l 207 568 b 205.0 632.8 266.0 703.6 370 710 l 496 709 l 496 588 l 409 588 q 354 588 348 533 l 345 508 l 496 508 l 496 396 l 333 396 l 304 141 b 306.4 74.3 246.9 4.6 141 -1"},"฿":{"ha":684,"x_min":74,"x_max":633,"o":"m 291 0 l 74 0 l 74 710 l 291 710 l 291 805 l 369 805 l 369 708 b 655.6 636.7 676.9 442.5 457 367 b 696.8 317.3 724.0 112.4 369 0 l 369 -91 l 291 -91 l 291 0 m 226 586 l 226 416 l 291 416 l 291 586 l 226 586 m 452 500 q 452 568 369 583 l 369 420 q 452 433 452 500 m 226 306 l 226 124 l 291 124 l 291 306 l 226 306 m 482 214 q 482 299 369 305 l 369 124 q 482 130 482 214"},"☹":{"ha":841,"x_min":37,"x_max":804,"o":"m 420 -26 b 208.6 -19.5 66.6 103.5 37 358 b 43.6 569.5 165.7 710.4 420 740 b 632.7 733.2 774.5 611.1 804 358 b 797.5 145.3 674.5 3.5 420 -26 m 420 58 b 586.0 64.0 696.1 159.6 719 358 b 713.9 523.1 618.6 632.9 420 656 b 254.9 650.7 145.1 555.5 122 358 b 127.3 192.1 222.5 82.1 420 58 m 328 406 b 259.0 425.2 251.5 484.1 328 514 b 394.0 496.0 401.5 437.5 328 406 m 523 406 b 454.0 425.2 446.5 484.1 523 514 b 589.4 496.0 596.7 437.5 523 406 m 314 212 l 230 212 b 313.0 411.2 498.0 431.4 619 212 l 535 212 b 484.5 314.3 385.4 324.1 314 212"},"☺":{"ha":841,"x_min":37,"x_max":804,"o":"m 420 -26 b 208.6 -19.5 66.6 103.5 37 358 b 43.6 569.5 165.7 710.4 420 740 b 632.7 733.2 774.5 611.1 804 358 b 797.5 145.3 674.5 3.5 420 -26 m 420 58 b 586.0 64.0 696.1 159.6 719 358 b 713.9 523.1 618.6 632.9 420 656 b 254.9 650.7 145.1 555.5 122 358 b 127.3 192.1 222.5 82.1 420 58 m 328 406 b 259.0 425.2 251.5 484.1 328 514 b 394.0 496.0 401.5 437.5 328 406 m 523 406 b 454.0 425.2 446.5 484.1 523 514 b 589.4 496.0 596.7 437.5 523 406 m 424 167 b 343.0 157.0 253.0 212.1 209 354 l 287 354 b 346.8 214.1 475.5 199.3 561 354 l 640 354 b 638.4 272.4 571.4 189.7 424 167"},"":{"ha":600,"x_min":8,"x_max":592,"o":"m 495 0 l 105 0 b 63.1 -5.4 14.1 31.9 8 97 l 8 487 b 2.6 528.9 39.9 577.9 105 584 l 495 584 b 536.9 589.4 585.9 552.1 592 487 l 592 97 b 597.4 55.1 560.1 6.1 495 0 m 299 495 l 86 124 l 513 124 l 299 495"},"@":{"ha":962,"x_min":42,"x_max":920,"o":"m 658 10 l 681 -73 b 281.2 -218.1 -42.9 9.3 76 435 b 164.5 660.9 370.7 760.2 727.5 666 b 958.8 508.1 976.7 261.1 819 112 b 736.2 57.4 635.1 64.7 585 154 l 584 155 b 507.1 34.4 349.1 17.0 251 260 b 266.0 448.7 383.1 538.8 532 488 q 565 473 584 448 l 588 496 l 701 496 l 683 299 b 669.1 230.4 665.4 181.4 724 167 b 919.9 208.0 890.4 613.0 315 576 b 67.3 415.0 37.1 106.9 441 -33 b 492.7 -36.2 576.9 -23.2 658 10 m 463 172 b 595.6 223.6 607.7 355.9 483 404 b 354.9 353.1 342.5 218.4 463 172"},"&":{"ha":706,"x_min":34,"x_max":692,"o":"m 288 -16 b -21.0 33.9 -46.0 234.2 182 389 b 65.7 472.5 47.5 624.8 323 726 b 591.0 673.4 612.7 501.5 385 362 l 497 222 q 522 258 523 328 l 676 313 b 676.5 261.5 646.6 174.6 595 112 l 692 0 l 515 0 l 490 31 b 465.8 10.1 386.6 -13.3 288 -16 m 309 450 b 403.6 508.5 410.2 576.3 326 598 b 248.2 584.9 240.7 526.2 309 450 m 301 114 b 330.9 112.7 369.6 122.3 391 138 l 261 298 b 163.5 234.8 153.4 151.1 301 114"},"¶":{"ha":661,"x_min":42,"x_max":587,"o":"m 384 0 l 250 0 l 250 309 b 83.2 316.7 5.8 424.0 71 614.5 b 90.5 659.6 168.5 705.8 274 710 l 587 710 l 587 0 l 453 0 l 453 596 l 384 596 l 384 0"},"§":{"ha":606,"x_min":52,"x_max":554,"o":"m 316 -66 b 199.1 -76.7 74.4 -9.3 52 116 l 204 124 b 245.3 23.5 360.6 15.4 398 97 b 379.6 136.9 163.2 171.6 67 337 b 63.5 370.1 89.6 418.8 148 450 b 17.1 499.9 -1.2 631.3 308 726 b 408.5 737.4 524.3 674.0 554 545 l 403 539 b 362.0 638.5 262.1 646.7 223 563 b 223.2 529.3 412.5 502.1 552 324 q 552 247 473 213 b 602.4 161.3 619.6 24.4 316 -66 m 323 264 b 430.3 282.7 440.2 352.6 348 392.5 b 259.3 419.2 185.1 380.6 235.5 286.5 q 262 265 323 264"},"©":{"ha":822,"x_min":42,"x_max":780,"o":"m 411 -12 b 207.4 -5.6 70.7 112.9 42 358 b 48.6 560.7 167.2 697.1 411 726 b 615.0 719.3 751.3 600.7 780 358 b 773.4 153.1 655.0 16.6 411 -12 m 411 80 b 560.9 85.0 663.7 173.3 686 358 b 680.5 510.3 590.8 612.1 411 634 b 261.1 628.7 158.3 540.2 136 358 b 141.5 203.5 231.2 101.6 411 80 m 415 156 b 257.5 165.7 184.5 275.3 243 462.5 b 328.7 581.4 467.2 591.8 572 482.5 q 597 447 601 401 l 494 396 b 464.6 497.8 374.8 509.5 325 358 b 354.0 218.4 449.9 206.0 496 323 l 604 319 b 606.4 246.6 550.4 174.9 415 156"},"®":{"ha":649,"x_min":42,"x_max":607,"o":"m 325 160 b 167.6 165.2 64.2 255.9 42 444 b 47.3 600.1 136.9 703.6 325 726 b 481.1 720.5 584.6 630.8 607 444 b 601.5 286.7 511.8 182.2 325 160 m 325 225 b 493.6 241.4 576.5 362.5 511.5 552.5 b 418.9 690.4 265.7 704.2 137.5 552.5 b 67.1 399.3 127.3 264.6 325 225 m 286 295 l 207 295 l 207 594 l 327 594 b 475.0 563.0 487.2 467.5 394 414 l 459 295 l 373 295 l 318 402 l 286 402 l 286 295 m 285 531 l 285 462 l 320 462 b 384.7 470.9 391.3 515.4 320 531 l 285 531"},"℗":{"ha":649,"x_min":42,"x_max":607,"o":"m 325 160 b 167.6 165.2 64.2 255.9 42 444 b 47.3 600.1 136.9 703.6 325 726 b 481.1 720.5 584.6 630.8 607 444 b 601.5 286.7 511.8 182.2 325 160 m 325 225 b 493.6 241.4 576.5 362.5 511.5 552.5 b 418.9 690.4 265.7 704.2 137.5 552.5 b 67.1 399.3 127.3 264.6 325 225 m 299 295 l 220 295 l 220 594 l 340 594 b 500.9 564.9 515.7 454.1 340 402 l 299 402 l 299 295 m 298 531 l 298 462 l 333 462 b 397.7 470.9 404.3 515.4 333 531 l 298 531"},"™":{"ha":910,"x_min":74,"x_max":836,"o":"m 503 359 l 412 359 l 412 710 l 530 710 l 624 455 l 719 710 l 836 710 l 836 359 l 745 359 l 745 571 l 666 359 l 582 359 l 503 562 l 503 359 m 270 359 l 173 359 l 173 625 l 74 625 l 74 710 l 368 710 l 368 625 l 270 625 l 270 359"},"°":{"ha":428,"x_min":37,"x_max":391,"o":"m 214 372 b 77.2 382.2 7.0 479.7 61 639 b 139.4 749.7 260.7 760.7 367 639 b 425.5 509.9 374.3 400.2 214 372 m 214 476 b 305.4 498.5 315.4 581.8 214 623 b 123.1 598.5 112.6 515.8 214 476"},"′":{"ha":255,"x_min":40,"x_max":215,"o":"m 163 475 l 40 475 l 79 710 l 215 710 l 163 475"},"″":{"ha":436,"x_min":40,"x_max":396,"o":"m 163 475 l 40 475 l 79 710 l 215 710 l 163 475 m 344 475 l 221 475 l 260 710 l 396 710 l 344 475"},"|":{"ha":294,"x_min":74,"x_max":220,"o":"m 220 -110 l 74 -110 l 74 750 l 220 750 l 220 -110"},"¦":{"ha":294,"x_min":74,"x_max":220,"o":"m 220 395 l 74 395 l 74 750 l 220 750 l 220 395 m 220 -110 l 74 -110 l 74 245 l 220 245 l 220 -110"},"†":{"ha":586,"x_min":74,"x_max":512,"o":"m 363 0 l 223 0 l 223 422 l 74 422 l 74 536 l 223 536 l 223 710 l 363 710 l 363 536 l 512 536 l 512 422 l 363 422 l 363 0"},"‡":{"ha":586,"x_min":74,"x_max":512,"o":"m 223 170 l 74 170 l 74 284 l 223 284 l 223 422 l 74 422 l 74 536 l 223 536 l 223 710 l 363 710 l 363 536 l 512 536 l 512 422 l 363 422 l 363 284 l 512 284 l 512 170 l 363 170 l 363 0 l 223 0 l 223 170"},"№":{"ha":1169,"x_min":74,"x_max":1095,"o":"m 226 0 l 74 0 l 74 710 l 242 710 l 524 220 l 524 710 l 676 710 l 676 0 l 506 0 l 226 473 l 226 0 m 912 172 b 678.8 225.3 655.9 428.2 912 522 b 1145.2 467.7 1168.1 264.9 912 172 m 912 252 b 1019.0 400.3 971.7 474.5 862 417 b 834.8 398.7 826.6 303.0 912 252 m 1065 0 l 759 0 l 759 102 l 1065 102 l 1065 0"},"¢":{"ha":598,"x_min":37,"x_max":571,"o":"m 313 -12 l 237 -12 l 245 82 b -5.6 194.9 -26.9 442.0 157.5 596.5 q 215 632 293 636 l 300 726 l 376 726 l 368 632 b 450.1 629.3 546.8 554.0 571 427 l 416 419 q 406 487 358 510 l 331 194 b 364.1 192.4 404.6 228.1 416 299 l 571 293 b 573.7 197.0 480.0 92.0 321 77 l 313 -12 m 191 356 q 191 240 256 205 l 282 518 b 239.3 517.2 195.2 458.4 191 356"},"¤":{"ha":633,"x_min":42,"x_max":591,"o":"m 191 164 l 100 73 l 42 131 l 133 222 b 83.2 292.7 78.1 379.7 134 473 l 42 564 l 100 622 l 192 530 b 262.9 579.6 348.9 584.6 441 530 l 533 622 l 591 564 l 499 473 b 548.6 400.8 553.8 314.0 499 222 l 591 131 l 533 73 l 442 164 b 369.8 114.4 283.0 109.4 191 164 m 316 229 b 407.2 237.4 454.0 302.6 418 406 b 365.8 481.0 284.8 488.5 214 406 b 175.0 322.6 209.1 249.9 316 229"},"$":{"ha":670,"x_min":52,"x_max":618,"o":"m 381 -90 l 299 -90 l 299 -8 b 188.9 -9.4 72.2 80.3 52 234 l 202 241 q 216 141 299 119 l 299 302 b 87.6 332.9 12.4 416.6 127 652 q 189 709 299 715 l 299 800 l 381 800 l 381 713 b 481.5 710.9 585.2 621.6 607 481 l 458 474 b 458.6 510.9 431.7 559.9 381 583 l 381 410 b 599.3 370.3 672.1 282.6 554 53.5 q 490 -2 381 -10 l 381 -90 m 216 512 b 209.3 483.4 232.4 450.8 299 430 l 299 591 b 260.3 590.1 219.9 559.8 216 512 m 467 193 b 474.7 219.1 454.3 253.9 381 281 l 381 114 b 421.7 114.4 463.2 142.3 467 193"},"€":{"ha":765,"x_min":52,"x_max":728,"o":"m 137 235 l 52 235 l 52 316 l 123 316 b 121.9 332.6 121.6 362.6 123 385 l 52 385 l 52 466 l 135 466 b 193.9 675.0 345.9 769.4 569.5 696 b 625.4 676.4 695.8 594.1 725 480 l 568 472 b 514.2 632.9 386.5 649.6 292 466 l 486 466 l 474 385 l 279 385 b 277.9 373.0 277.6 346.7 279 318 l 279 316 l 465 316 l 454 235 l 294 235 b 360.2 76.1 490.5 60.0 569 249 l 728 241 b 681.8 32.4 538.2 -59.8 306.5 15.5 b 248.2 36.6 172.3 120.6 137 235"},"₴":{"ha":727,"x_min":52,"x_max":675,"o":"m 675 382 l 52 382 l 52 464 l 453 464 b 507.3 545.6 447.3 621.6 306 578.5 q 278 557 261 517 l 106 530 b 216.3 781.5 495.9 806.4 630 519 b 630.7 502.4 624.6 478.8 615 464 l 675 464 l 675 382 m 360 -12 b 72.8 72.0 55.6 226.6 112 234 l 52 234 l 52 316 l 675 316 l 675 234 l 272 234 b 241.9 217.4 235.5 164.1 356 115 b 395.7 110.8 449.5 135.6 476 184 l 642 175 b 634.5 88.6 527.2 -2.8 360 -12"},"₱":{"ha":752,"x_min":30,"x_max":722,"o":"m 262 0 l 110 0 l 110 365 l 30 365 l 30 435 l 110 435 l 110 477 l 30 477 l 30 547 l 110 547 l 110 710 l 369 710 b 466.9 720.8 585.4 665.7 630 547 l 722 547 l 722 477 l 641 477 b 642.0 468.1 642.2 452.5 642 439 l 641 435 l 722 435 l 722 365 l 629 365 b 618.9 286.7 523.0 208.6 369 202 l 262 202 l 262 0 m 360 592 l 262 592 l 262 547 l 468 547 b 457.3 570.7 417.1 591.1 360 592 m 489 476 l 489 477 l 262 477 l 262 435 l 489 435 b 490.1 444.1 490.4 462.1 489 476 m 262 365 l 262 320 l 360 320 b 395.4 316.7 441.8 330.3 468 365 l 262 365"},"₽":{"ha":736,"x_min":40,"x_max":696,"o":"m 139 99 l 40 99 l 40 183 l 139 183 l 139 710 l 423 710 b 771.3 641.4 805.3 367.4 423 245 l 291 245 l 291 183 l 436 183 l 436 99 l 291 99 l 291 0 l 139 0 l 139 99 m 291 582 l 291 373 l 414 373 b 575.2 401.2 590.6 531.2 414 582 l 291 582"},"₹":{"ha":710,"x_min":74,"x_max":659,"o":"m 535 0 l 342 0 l 74 248 l 74 365 l 302 365 q 401 365 423 432 l 74 432 l 74 514 l 424 514 q 404 584 302 584 l 74 584 l 74 710 l 659 710 l 659 629 l 525 629 b 546.0 612.2 571.4 568.4 582 514 l 659 514 l 659 432 l 580 432 b 579.8 346.7 479.9 259.1 311 251 l 257 251 l 535 0"},"₪":{"ha":865,"x_min":74,"x_max":791,"o":"m 641 0 l 276 0 l 276 542 l 394 542 l 394 96 l 606 96 b 633.8 92.3 663.1 114.5 666 157 l 666 710 l 791 710 l 791 150 b 800.1 81.4 745.7 7.7 641 0 m 198 0 l 74 0 l 74 710 l 440 710 b 508.5 719.1 581.6 664.7 589 560 l 589 168 l 471 168 l 471 553 b 474.7 580.8 452.5 610.9 410 614 l 198 614 l 198 0"},"£":{"ha":647,"x_min":52,"x_max":611,"o":"m 599 2 l 53 0 l 53 112 b 185.3 217.3 191.6 306.0 166 310 l 52 310 l 52 392 l 148 392 b 95.3 472.1 86.1 572.9 230.5 699.5 b 305.0 764.3 507.2 748.8 611 529 l 445 522 b 407.7 621.5 316.8 630.5 269 510 b 267.8 487.6 283.8 441.0 303 392 l 456 392 l 456 310 l 312 310 b 317.2 249.9 284.6 171.5 209 131 l 599 131 l 599 2"},"¥":{"ha":631,"x_min":-7,"x_max":638,"o":"m 240 122 l 104 122 l 104 213 l 240 213 l 240 276 l 239 276 l 104 276 l 104 367 l 188 367 l -7 710 l 161 710 l 316 424 l 470 710 l 638 710 l 444 367 l 591 367 l 591 276 l 392 276 l 392 213 l 591 213 l 591 122 l 392 122 l 392 0 l 240 0 l 240 122"},"+":{"ha":570,"x_min":40,"x_max":530,"o":"m 346 42 l 224 42 l 224 226 l 40 226 l 40 347 l 224 347 l 224 532 l 346 532 l 346 347 l 530 347 l 530 226 l 346 226 l 346 42"},"−":{"ha":544,"x_min":40,"x_max":504,"o":"m 504 226 l 40 226 l 40 347 l 504 347 l 504 226"},"×":{"ha":540,"x_min":40,"x_max":500,"o":"m 126 56 l 40 142 l 185 287 l 40 431 l 126 517 l 270 372 l 415 517 l 500 431 l 356 287 l 500 142 l 415 56 l 270 201 l 126 56"},"÷":{"ha":564,"x_min":40,"x_max":524,"o":"m 282 399 b 179.5 425.0 168.9 513.9 282 558 b 385.6 531.9 396.4 442.7 282 399 m 524 230 l 40 230 l 40 344 l 524 344 l 524 230 m 282 14 b 179.5 39.9 168.9 129.1 282 174 b 385.6 147.1 396.4 57.9 282 14"},"=":{"ha":552,"x_min":40,"x_max":512,"o":"m 512 347 l 40 347 l 40 469 l 512 469 l 512 347 m 512 117 l 40 117 l 40 238 l 512 238 l 512 117"},"≠":{"ha":552,"x_min":40,"x_max":512,"o":"m 166 117 l 40 117 l 40 238 l 201 238 l 233 347 l 40 347 l 40 469 l 267 469 l 295 565 l 413 565 l 385 469 l 512 469 l 512 347 l 351 347 l 319 238 l 512 238 l 512 117 l 284 117 l 257 22 l 139 22 l 166 117"},">":{"ha":550,"x_min":50,"x_max":510,"o":"m 510 217 l 50 22 l 50 152 l 382 292 l 50 432 l 50 562 l 510 367 l 510 217"},"<":{"ha":550,"x_min":40,"x_max":500,"o":"m 500 152 l 500 22 l 40 217 l 40 367 l 500 562 l 500 432 l 168 292 l 500 152"},"≥":{"ha":557,"x_min":50,"x_max":517,"o":"m 510 280 l 50 134 l 50 257 l 393 357 l 50 457 l 50 581 l 510 435 l 510 280 m 517 0 l 50 0 l 50 106 l 517 106 l 517 0"},"≤":{"ha":557,"x_min":40,"x_max":507,"o":"m 507 257 l 507 134 l 47 280 l 47 435 l 507 581 l 507 457 l 164 357 l 507 257 m 507 106 l 507 0 l 40 0 l 40 106 l 507 106"},"±":{"ha":550,"x_min":40,"x_max":510,"o":"m 336 146 l 214 146 l 214 310 l 40 310 l 40 427 l 214 427 l 214 592 l 336 592 l 336 427 l 510 427 l 510 310 l 336 310 l 336 146 m 510 0 l 40 0 l 40 106 l 510 106 l 510 0"},"≈":{"ha":523,"x_min":40,"x_max":483,"o":"m 344 130 b 273.0 141.0 214.3 206.1 188 217 q 147 217 147 135 l 40 135 b 88.2 344.2 216.8 359.3 280 267 b 302.9 220.2 322.8 196.4 376 311 l 483 311 b 491.4 227.6 441.1 138.9 344 130 m 344 350 b 273.0 361.0 214.3 426.1 188 437 q 147 437 147 355 l 40 355 b 88.2 564.2 216.8 579.3 280 487 b 302.9 440.2 322.8 416.4 376 531 l 483 531 b 491.4 447.6 441.1 358.9 344 350"},"~":{"ha":523,"x_min":40,"x_max":483,"o":"m 344 240 b 273.0 251.0 214.3 316.1 188 327 q 147 327 147 245 l 40 245 b 88.2 454.2 216.8 469.3 280 377 b 302.9 330.2 322.8 306.4 376 421 l 483 421 b 491.4 337.6 441.1 248.9 344 240"},"¬":{"ha":512,"x_min":40,"x_max":472,"o":"m 472 66 l 370 66 l 370 229 l 40 229 l 40 330 l 472 330 l 472 66"},"^":{"ha":461,"x_min":40,"x_max":421,"o":"m 149 383 l 40 383 l 160 673 l 301 673 l 421 383 l 313 383 l 231 577 l 149 383"},"∞":{"ha":843,"x_min":40,"x_max":803,"o":"m 218 85 b 7.5 147.6 -10.4 328.0 124 433 b 177.6 480.5 305.1 472.4 422 348 b 531.0 485.4 687.5 496.5 781 366 b 837.1 230.2 794.2 115.4 626 85 b 564.3 77.1 481.7 110.4 422 193 b 395.7 140.5 319.8 89.1 218 85 m 243 192 b 277.2 187.1 337.6 215.2 375 271 b 294.1 371.7 196.8 379.6 163 271 b 158.3 235.2 187.9 196.2 243 192 m 599 192 b 698.3 219.5 708.1 305.4 599 348 b 565.2 355.0 505.6 327.4 466 270 b 482.9 233.3 538.3 195.5 599 192"},"∫":{"ha":452,"x_min":13,"x_max":439,"o":"m 101 -150 l 13 -150 l 26 -29 l 69 -29 b 94.1 -33.4 119.1 -18.0 126 26 l 188 568 b 186.9 632.6 246.0 702.6 349 710 l 439 709 l 426 589 l 389 589 q 333 589 327 534 l 264 -8 b 266.2 -72.6 205.9 -142.6 101 -150"},"∆":{"ha":652,"x_min":19,"x_max":633,"o":"m 633 0 l 19 0 l 19 123 l 258 710 l 396 710 l 633 124 l 633 0 m 327 587 l 141 124 l 512 124 l 327 587"},"∏":{"ha":681,"x_min":11,"x_max":670,"o":"m 269 -150 l 121 -150 l 121 585 l 11 585 l 11 710 l 670 710 l 670 585 l 564 585 l 564 -150 l 416 -150 l 416 585 l 269 585 l 269 -150"},"∑":{"ha":545,"x_min":27,"x_max":518,"o":"m 518 0 l 27 0 l 27 128 l 179 355 l 27 582 l 27 710 l 518 710 l 518 582 l 175 582 l 329 355 l 175 128 l 518 128 l 518 0"},"√":{"ha":731,"x_min":21,"x_max":711,"o":"m 359 -150 l 152 -150 l 21 348 l 162 348 l 252 -10 l 392 710 l 711 710 l 711 588 l 509 588 l 359 -150"},"∂":{"ha":569,"x_min":37,"x_max":527,"o":"m 278 -11 b 82.2 -0.7 -3.6 128.9 65 356.5 b 169.5 490.0 306.3 498.9 391 430 b 382.7 503.0 303.8 567.8 95 608 l 121 724 b 404.4 688.9 529.0 552.9 527 261 b 540.7 132.6 468.7 15.7 278 -11 m 278 95 b 416.0 135.7 429.9 308.6 282 364 b 147.9 324.0 135.2 165.2 278 95"},"%":{"ha":825,"x_min":37,"x_max":789,"o":"m 203 366 b -6.3 410.2 -28.4 632.6 203 718 b 411.3 672.8 433.1 450.4 203 366 m 223 0 l 131 0 l 603 710 l 695 710 l 223 0 m 203 442 b 293.0 657.6 131.0 704.5 203 442 m 623 -8 b 413.7 36.2 391.6 258.6 623 344 b 832.3 298.8 854.4 76.4 623 -8 m 623 68 b 713.0 283.6 551.0 330.5 623 68"},"‰":{"ha":1210,"x_min":37,"x_max":1173,"o":"m 203 366 b -6.3 410.2 -28.4 632.6 203 718 b 411.3 672.8 433.1 450.4 203 366 m 223 0 l 131 0 l 603 710 l 695 710 l 223 0 m 203 442 b 293.0 657.6 131.0 704.5 203 442 m 623 -8 b 413.7 36.2 391.6 258.6 623 344 b 832.3 298.8 854.4 76.4 623 -8 m 1008 -8 b 798.7 36.2 776.6 258.6 1008 344 b 1216.3 298.8 1238.1 76.4 1008 -8 m 623 68 b 713.0 283.6 551.0 330.5 623 68 m 1008 68 b 1098.0 283.6 936.0 330.5 1008 68"},"∶":{"ha":311,"x_min":74,"x_max":237,"o":"m 237 100 l 74 100 l 74 253 l 237 253 l 237 100 m 237 456 l 74 456 l 74 609 l 237 609 l 237 456"},"↑":{"ha":706,"x_min":42,"x_max":664,"o":"m 426 0 l 280 0 l 280 485 l 42 247 l 42 400 l 353 710 l 664 399 l 664 246 l 426 483 l 426 0"},"↗":{"ha":637,"x_min":42,"x_max":595,"o":"m 145 77 l 42 181 l 385 524 l 48 524 l 156 632 l 595 631 l 595 192 l 487 83 l 487 419 l 145 77"},"→":{"ha":794,"x_min":42,"x_max":752,"o":"m 441 44 l 288 44 l 525 282 l 42 282 l 42 428 l 527 428 l 289 666 l 442 666 l 752 355 l 441 44"},"↘":{"ha":639,"x_min":42,"x_max":597,"o":"m 156 78 l 48 186 l 383 187 l 42 528 l 145 632 l 488 289 l 488 625 l 597 517 l 596 78 l 156 78"},"↓":{"ha":706,"x_min":42,"x_max":664,"o":"m 280 225 l 280 710 l 426 710 l 426 227 l 664 464 l 664 311 l 353 0 l 42 310 l 42 463 l 280 225"},"↙":{"ha":639,"x_min":42,"x_max":597,"o":"m 255 187 l 591 186 l 483 78 l 43 78 l 42 517 l 150 625 l 150 289 l 494 632 l 597 528 l 255 187"},"←":{"ha":794,"x_min":42,"x_max":752,"o":"m 269 282 l 506 44 l 353 44 l 42 355 l 352 666 l 505 666 l 267 428 l 752 428 l 752 282 l 269 282"},"↖":{"ha":637,"x_min":42,"x_max":595,"o":"m 151 419 l 150 83 l 42 192 l 42 631 l 481 632 l 589 524 l 252 524 l 595 181 l 492 77 l 151 419"},"↔":{"ha":1082,"x_min":42,"x_max":1040,"o":"m 269 282 l 506 44 l 353 44 l 42 355 l 352 666 l 505 666 l 267 428 l 815 428 l 577 666 l 730 666 l 1040 355 l 729 44 l 576 44 l 813 282 l 269 282"},"↕":{"ha":706,"x_min":42,"x_max":664,"o":"m 42 167 l 42 320 l 280 83 l 280 627 l 42 390 l 42 543 l 353 854 l 664 544 l 664 391 l 426 630 l 426 81 l 664 319 l 664 166 l 353 -144 l 42 167"},"↝":{"ha":647,"x_min":42,"x_max":605,"o":"m 370 173 b 266.7 199.7 234.2 312.6 203 346 b 189.0 349.6 163.8 331.1 149 291 l 42 291 b 75.6 420.1 158.2 477.0 277.5 422 b 319.0 300.5 333.1 241.8 432 334 l 354 379 l 583 487 l 605 233 l 524 280 b 499.0 231.3 437.0 178.6 370 173"},"⇤":{"ha":666,"x_min":42,"x_max":624,"o":"m 130 157 l 42 157 l 42 547 l 130 547 l 130 157 m 375 297 l 375 172 l 160 352 l 374 531 l 375 406 l 624 406 l 624 297 l 375 297"},"⇥":{"ha":666,"x_min":42,"x_max":624,"o":"m 624 547 l 624 157 l 537 157 l 537 547 l 624 547 m 506 352 l 291 172 l 291 297 l 42 297 l 42 406 l 292 406 l 292 531 l 506 352"},"↩":{"ha":660,"x_min":42,"x_max":618,"o":"m 234 230 l 348 116 l 211 116 l 42 285 l 209 453 l 347 453 l 233 340 l 384 340 b 481.0 346.7 529.1 410.3 491.5 514 b 479.8 539.8 437.9 568.0 384 571 l 90 571 l 90 679 l 385 679 b 566.1 665.3 657.5 542.3 586.5 341 b 564.0 290.3 485.1 235.7 385 230 l 234 230"},"↪":{"ha":660,"x_min":42,"x_max":618,"o":"m 449 116 l 312 116 l 426 230 l 275 230 b 93.0 244.7 2.4 367.9 73 569 b 95.1 619.7 174.6 673.5 275 679 l 570 679 l 570 571 l 276 571 b 179.0 563.4 130.9 500.3 168.5 396.5 b 180.2 370.2 222.1 342.7 276 340 l 427 340 l 313 453 l 450 453 l 618 285 l 449 116"},"↰":{"ha":661,"x_min":42,"x_max":619,"o":"m 271 390 l 271 255 l 42 445 l 270 635 l 271 500 l 619 500 l 619 0 l 507 0 l 507 390 l 271 390"},"↱":{"ha":661,"x_min":42,"x_max":619,"o":"m 153 390 l 153 0 l 42 0 l 42 500 l 390 500 l 390 635 l 619 445 l 389 255 l 390 390 l 153 390"},"↳":{"ha":661,"x_min":42,"x_max":619,"o":"m 390 320 l 389 455 l 619 265 l 390 75 l 390 210 l 42 210 l 42 710 l 153 710 l 153 320 l 390 320"},"↴":{"ha":661,"x_min":42,"x_max":619,"o":"m 619 215 l 439 0 l 260 216 l 385 215 l 385 600 l 42 600 l 42 710 l 494 710 l 494 215 l 619 215"},"↵":{"ha":661,"x_min":42,"x_max":619,"o":"m 42 265 l 271 455 l 271 320 l 507 320 l 507 710 l 619 710 l 619 210 l 271 210 l 270 75 l 42 265"},"⇧":{"ha":882,"x_min":19,"x_max":863,"o":"m 642 0 l 243 0 l 243 313 l 19 313 l 442 734 l 863 313 l 642 313 l 642 0 m 351 405 l 351 109 l 533 109 l 533 405 l 630 405 l 442 593 l 253 405 l 351 405"},"●":{"ha":838,"x_min":42,"x_max":796,"o":"m 419 -12 b 207.4 -7.6 69.5 106.6 42 356 b 47.3 567.9 166.5 700.6 419 726 b 630.6 721.9 768.5 607.9 796 356 b 790.7 146.4 671.5 13.7 419 -12"},"○":{"ha":838,"x_min":42,"x_max":796,"o":"m 419 -12 b 207.4 -7.6 69.5 106.6 42 356 b 47.3 567.9 166.5 700.6 419 726 b 630.6 721.9 768.5 607.9 796 356 b 790.7 146.4 671.5 13.7 419 -12 m 419 106 b 619.4 119.9 717.3 255.9 640.5 486 b 530.1 641.6 348.7 656.8 197.5 486 b 114.6 299.9 185.3 145.4 419 106"},"◌":{"ha":838,"x_min":42,"x_max":796,"o":"m 363 650 l 346 734 b 361.2 737.0 390.0 740.5 419 741 l 419 655 b 407.1 655.2 384.6 653.2 363 650 m 555 721 l 524 640 q 498 649 469 656 l 483 741 b 499.5 738.0 528.6 731.1 555 721 m 258 606 l 210 678 b 222.6 687.9 248.7 702.2 275 713 l 308 633 b 296.6 628.2 275.6 618.0 258 606 m 679 643 l 620 580 q 598 600 575 615 l 621 688 q 651 669 679 643 m 178 527 l 105 575 q 125 605 152 632 l 214 571 b 205.2 561.8 190.5 545.0 178 527 m 765 524 l 685 489 b 681.1 500.4 669.6 519.9 657 537 l 728 588 b 738.0 575.5 753.7 550.1 765 524 m 135 424 l 49 439 q 55 477 70 510 l 151 478 q 140 452 135 424 m 796 380 l 709 379 q 709 408 703 435 l 788 453 q 796 416 796 380 m 136 311 l 50 293 q 42 330 42 366 l 129 367 q 129 337 136 311 m 768 236 l 688 268 q 699 296 704 322 l 789 307 q 783 269 768 236 m 181 209 l 110 158 b 101.2 170.7 85.7 196.9 73 222 l 154 257 b 157.9 245.6 168.6 226.1 181 209 m 686 114 l 625 175 b 633.8 184.2 647.8 201.0 660 219 l 733 171 q 713 141 686 114 m 263 131 l 217 58 q 187 77 159 103 l 219 166 b 227.3 158.2 244.6 143.7 263 131 m 563 33 l 530 113 b 542.4 117.8 562.8 128.0 580 140 l 628 68 b 615.4 59.2 589.3 45.2 563 33 m 370 90 l 355 5 b 338.5 8.0 309.4 14.9 283 25 l 315 106 q 341 96 370 90 m 419 5 l 419 91 b 431.7 90.8 453.6 92.8 476 96 l 492 12 b 476.8 9.0 448.0 5.5 419 5"},"◊":{"ha":595,"x_min":42,"x_max":553,"o":"m 384 0 l 211 0 l 42 322 l 211 644 l 384 644 l 553 322 l 384 0 m 298 535 l 185 322 l 298 109 l 410 322 l 298 535"},"▲":{"ha":870,"x_min":26,"x_max":845,"o":"m 845 0 l 26 0 l 435 710 l 845 0"},"▶":{"ha":870,"x_min":80,"x_max":790,"o":"m 790 356 l 80 -1 l 80 712 l 790 356"},"▼":{"ha":870,"x_min":26,"x_max":845,"o":"m 435 0 l 26 710 l 845 710 l 435 0"},"◀":{"ha":870,"x_min":80,"x_max":790,"o":"m 790 712 l 790 -1 l 80 356 l 790 712"},"△":{"ha":870,"x_min":26,"x_max":845,"o":"m 845 0 l 26 0 l 435 710 l 845 0 m 434 506 l 221 123 l 650 123 l 434 506"},"▷":{"ha":870,"x_min":80,"x_max":790,"o":"m 790 356 l 80 -1 l 80 712 l 790 356 m 184 542 l 184 169 l 556 356 l 184 542"},"▽":{"ha":870,"x_min":26,"x_max":845,"o":"m 435 0 l 26 710 l 845 710 l 435 0 m 650 587 l 221 587 l 434 204 l 650 587"},"◁":{"ha":870,"x_min":80,"x_max":790,"o":"m 790 712 l 790 -1 l 80 356 l 790 712 m 314 356 l 686 169 l 686 542 l 314 356"},"̈":{"ha":0,"x_min":37,"x_max":395,"o":"m 180 602 l 37 602 l 37 722 l 180 722 l 180 602 m 395 602 l 252 602 l 252 722 l 395 722 l 395 602"},"̇":{"ha":0,"x_min":37,"x_max":192,"o":"m 192 602 l 37 602 l 37 722 l 192 722 l 192 602"},"̀":{"ha":0,"x_min":37,"x_max":241,"o":"m 241 591 l 127 591 l 37 738 l 182 738 l 241 591"},"́":{"ha":0,"x_min":37,"x_max":241,"o":"m 151 591 l 37 591 l 96 739 l 241 739 l 151 591"},"̋":{"ha":0,"x_min":37,"x_max":418,"o":"m 151 591 l 37 591 l 96 739 l 241 739 l 151 591 m 328 591 l 214 591 l 273 739 l 418 739 l 328 591"},"̂":{"ha":0,"x_min":37,"x_max":373,"o":"m 142 591 l 37 591 l 133 744 l 277 744 l 373 591 l 268 591 l 205 680 l 142 591"},"̌":{"ha":0,"x_min":37,"x_max":373,"o":"m 133 591 l 37 744 l 142 744 l 205 655 l 268 744 l 373 744 l 277 591 l 133 591"},"̆":{"ha":0,"x_min":37,"x_max":350,"o":"m 194 592 b 124.9 582.7 48.9 634.0 37 739 l 124 739 b 148.7 654.2 224.6 647.1 263 739 l 350 739 b 356.1 669.6 298.9 598.5 194 592"},"̊":{"ha":0,"x_min":37,"x_max":242,"o":"m 140 575 b 10.4 608.7 -3.4 721.2 140 778 b 268.1 744.2 281.9 631.4 140 575 m 140 639 b 186.6 651.0 191.6 693.3 140 714 b 91.9 701.9 86.9 659.3 140 639"},"̃":{"ha":0,"x_min":37,"x_max":379,"o":"m 265 600 b 210.2 607.8 171.5 641.3 150 648 b 135.3 652.4 117.0 638.5 112 595 l 37 595 b 68.2 760.3 192.1 766.4 267 689 b 282.6 684.4 300.5 699.0 305 744 l 379 744 b 385.2 678.4 345.7 607.5 265 600"},"̄":{"ha":0,"x_min":37,"x_max":336,"o":"m 336 607 l 37 607 l 37 717 l 336 717 l 336 607"},"̉":{"ha":0,"x_min":37,"x_max":211,"o":"m 167 588 l 77 588 b 128.4 641.7 134.1 680.9 82 687 q 57 687 37 681 l 37 755 b 63.2 775.9 159.1 781.9 211 680 b 212.7 649.3 192.6 610.4 167 588"},"̒":{"ha":0,"x_min":37,"x_max":184,"o":"m 167 592 l 37 592 l 37 696 l 96 796 l 184 796 l 132 708 l 167 708 l 167 592"}}}
